<?xml version="1.0" encoding="UTF-8"?>
<svg version="1.1" xmlns="http://www.w3.org/2000/svg" width="346" height="532">
<path d="M0 0 C114.18 0 228.36 0 346 0 C346 175.56 346 351.12 346 532 C231.82 532 117.64 532 0 532 C0 356.44 0 180.88 0 0 Z " fill="#661715" transform="translate(0,0)"/>
<path d="M0 0 C3.11518499 1.34341311 4.80752547 2.66925482 6.796875 5.40625 C7.28027344 6.06753906 7.76367188 6.72882813 8.26171875 7.41015625 C8.75285156 8.09980469 9.24398437 8.78945312 9.75 9.5 C10.25660156 10.18964844 10.76320312 10.87929687 11.28515625 11.58984375 C15 16.72654144 15 16.72654144 15 19 C15.71285156 19.25652344 16.42570313 19.51304688 17.16015625 19.77734375 C26.94786852 23.99131066 33.75677646 30.91582572 38.14453125 40.5 C39.39002946 44.13981213 39.12974598 47.17249346 39 51 C42.46754887 46.06136979 43.53634665 43.07524191 42.56640625 37.08203125 C41.83688327 34.4004054 40.53351339 32.30027009 39 30 C39.33 29.34 39.66 28.68 40 28 C46.04327507 34.6966021 48.73855083 40.35680608 48.56640625 49.48046875 C47.74160317 54.60562442 45.78573073 59.09473651 43.57861328 63.77294922 C41.2048852 68.89995779 40.27610952 73.36834611 40 79 C39.92616089 80.47690308 39.92616089 80.47690308 39.85083008 81.98364258 C39.16110543 99.96120042 39.33283459 117.18104109 51 132 C53.48783163 134.58646812 56.17292328 136.79468586 59 139 C71.29275767 148.74209902 81.22474009 158.6689024 86 174 C86.0928125 175.794375 86.0928125 175.794375 86.1875 177.625 C87.11288519 181.46890773 87.5893491 181.73915355 90.6875 183.875 C95.48443641 187.18204413 98.78295616 190.53280004 101 196 C101.32233566 198.74531643 101.57193621 201.4348654 101.75 204.1875 C102.10054154 209.69451548 102.10054154 209.69451548 105.16015625 214.15234375 C107.78265847 215.65792113 107.78265847 215.65792113 110.515625 216.8359375 C114.63999812 218.76842679 116.97296615 221.9459323 119 226 C119.23282443 231.35496183 119.23282443 231.35496183 118.28515625 233.98046875 C118.19105469 234.64691406 118.09695313 235.31335938 118 236 C119.3054669 237.80256919 119.3054669 237.80256919 121.3125 239.4375 C132.20641025 249.76104845 144.12599228 264.99151307 145.16796875 280.5 C145.20390504 285.0998452 145.22229407 288.83319862 143 293 C143.58265625 293.25652344 144.1653125 293.51304687 144.765625 293.77734375 C156.38877918 300.13756623 161.65306633 316.26038593 165.4375 328.1875 C167.7697551 336.16736834 168.2098659 343.66485847 168.25 351.9375 C168.2809375 353.52594727 168.2809375 353.52594727 168.3125 355.14648438 C168.34333971 361.32599169 167.75611364 365.48777272 165 371 C164.69481835 373.15407606 164.69481835 373.15407606 164.75 375.0625 C164.52215725 377.64306677 164.31469301 378.67470852 162.4921875 380.55859375 C161.23308041 381.53058228 159.96317053 382.48871512 158.68359375 383.43359375 C156.71246453 385.2675214 156.34730384 386.48589378 155.6875 389.0625 C154.52663904 392.58534396 153.2412784 393.93689246 150 395.75 C144.97737624 397.98802206 139.86999213 398.84026087 134.5 399.8125 C127.37411668 401.12810037 122.95579934 402.77181889 117.546875 407.7890625 C88.73287858 432.80243976 42.44748657 434.08111466 6.45996094 431.77294922 C-1.39925344 431.12806144 -9.19545316 430.11586026 -17 429 C-18.2684375 428.82307617 -19.536875 428.64615234 -20.84375 428.46386719 C-54.30857734 423.76044658 -89.55477985 418.78804137 -117 397.4375 C-122.86255177 393.3065036 -128.12910719 393.31202673 -135.05786133 393.21508789 C-144.73563126 393.07435209 -152.16373095 390.71515162 -159.27734375 383.9375 C-164.82016409 377.70339821 -167.14167896 372.54628514 -166.75 364.1875 C-166.55979568 359.40465378 -166.55979568 359.40465378 -168.109375 355.02734375 C-168.79773438 354.33318359 -168.79773438 354.33318359 -169.5 353.625 C-172 351 -172 351 -172.3671875 347.30078125 C-172.21677444 342.88264822 -170.71487624 339.40286247 -168.625 335.5625 C-168.26994385 334.88292236 -167.9148877 334.20334473 -167.54907227 333.50317383 C-161.74793829 322.54825883 -155.33509051 311.93002264 -148.5703125 301.546875 C-146.93027083 298.88690692 -145.53443228 296.1630573 -144.125 293.375 C-140.24542196 286.12549358 -134.95115526 279.69696479 -127 277 C-127.04640625 276.28457031 -127.0928125 275.56914062 -127.140625 274.83203125 C-127.67911124 259.9659648 -122.53377808 250.13598428 -113.2734375 238.90625 C-111.29151533 235.93944626 -111.69495821 233.4774764 -112 230 C-112.63903117 228.32254318 -113.30341637 226.65438613 -114 225 C-114.38302031 221.85807668 -114.35408813 220.48953477 -112.47460938 217.89111328 C-111.77142578 217.20774902 -111.06824219 216.52438477 -110.34375 215.8203125 C-109.56773438 215.05589844 -108.79171875 214.29148437 -107.9921875 213.50390625 C-107.16976562 212.71886719 -106.34734375 211.93382812 -105.5 211.125 C-104.70851563 210.34769531 -103.91703125 209.57039062 -103.1015625 208.76953125 C-99.37389967 205.13353226 -95.61074317 201.66744605 -91.5703125 198.3828125 C-87.92773336 195.23166361 -86.60989732 192.46871336 -85.375 187.75 C-83.70481196 181.88952625 -81.4754629 176.93014393 -78.390625 171.6796875 C-76.89946829 168.80627879 -76.05891433 166.05082575 -75.1875 162.9375 C-72.05925568 152.97346255 -63.85313612 146.67351268 -56.23046875 139.97265625 C-53.17622289 137.27144056 -50.14017546 134.52023394 -47.6875 131.25 C-45.29061216 129.47452753 -42.84238758 129.50644034 -39.94140625 129.25 C-37.65466227 128.95552995 -35.95001762 128.21876101 -34 127 C-32.49936621 130.00126757 -32.54826282 132.74517571 -33 136 C-33.64482049 137.86943756 -34.33584991 139.72332357 -35.0625 141.5625 C-37.21568748 147.2044921 -37.21568748 147.2044921 -36 153 C-33.11602003 158.58657756 -30.03068357 164.10122023 -25 168 C-21.81849108 168.87989974 -21.81849108 168.87989974 -19 169 C-19.51787185 163.9498355 -19.51787185 163.9498355 -20.5625 159 C-21.28722991 155.686949 -21.05638051 152.3828307 -21 149 C-19.68 148.67 -18.36 148.34 -17 148 C-16.67 151.3 -16.34 154.6 -16 158 C-14.68 158.33 -13.36 158.66 -12 159 C-12.165 158.175 -12.33 157.35 -12.5 156.5 C-13 153 -13 153 -12.6875 149.4375 C-12.57475166 144.11782854 -15.16006137 139.80142344 -17.4921875 135.1484375 C-20.87159077 128.09196332 -22.82323457 120.85731665 -22 113 C-20.38428137 109.97800775 -18.46881013 107.58756119 -16.27734375 104.95703125 C-13.67202779 101.57414243 -11.86022389 98.16708776 -10.0625 94.3125 C-9.76859375 93.70680176 -9.4746875 93.10110352 -9.171875 92.47705078 C-5.18895448 83.77267057 -5.97338184 77.40387158 -8.375 68.5 C-11.48700355 56.58205235 -13.22425763 48.39899172 -7 37 C-5.0582953 34.89617238 -3.06291226 33.20822064 -0.8046875 31.45703125 C2.65436599 28.66433222 3.7807312 25.80411038 4.30859375 21.4609375 C4.56787097 15.75683869 3.9296768 11.66107656 0.97265625 6.75390625 C-0.08990621 4.83787997 -0.6380499 3.15795563 -1 1 C-0.67 0.67 -0.34 0.34 0 0 Z " fill="#FEFEFE" transform="translate(175,96)"/>
<path d="M0 0 C80.85 0 161.7 0 245 0 C243 2 243 2 240.125 3.3125 C235.75935012 5.66995093 233.56407386 8.30777843 232 13 C231.77439324 15.39254576 231.59151405 17.78928123 231.4375 20.1875 C231.35371094 21.45980469 231.26992187 22.73210938 231.18359375 24.04296875 C231.12300781 25.01878906 231.06242188 25.99460937 231 27 C230.34 27 229.68 27 229 27 C229.21864896 32.23664258 229.62328317 36.6775683 232.0625 41.375 C233.95997231 45.16323977 234.11309555 47.84556328 233.875 52.0625 C233.66517437 57.54594319 234.77015931 60.23768706 238.296875 64.37890625 C240.01020722 66.08286968 240.01020722 66.08286968 242.203125 67.58984375 C242.79609375 68.05519531 243.3890625 68.52054687 244 69 C244 69.66 244 70.32 244 71 C242 72.625 242 72.625 240 74 C241.00546875 75.24716797 241.00546875 75.24716797 242.03125 76.51953125 C244.3626671 80.64114363 244.22250261 83.20531741 243.5 87.6875 C243.3961499 88.45296143 243.2922998 89.21842285 243.18530273 90.00708008 C242.81550448 92.67563836 242.40865447 95.3371253 242 98 C241.68762369 100.1248271 241.37648464 102.24983635 241.06640625 104.375 C240.56407171 107.79816084 240.0575079 111.2204861 239.53979492 114.64135742 C238.21608896 123.3894077 237.03342172 132.14927425 235.95141602 140.93041992 C235.83983154 141.81963135 235.72824707 142.70884277 235.61328125 143.625 C235.51829346 144.40101563 235.42330566 145.17703125 235.32543945 145.9765625 C235 148 235 148 234 151 C234.969375 151.598125 235.93875 152.19625 236.9375 152.8125 C240 155 240 155 241 158 C241.2475 157.030625 241.495 156.06125 241.75 155.0625 C243 152 243 152 244.875 151.0625 C247 151 247 151 251 152 C250.34 155.3 249.68 158.6 249 162 C248.34 161.67 247.68 161.34 247 161 C247 160.34 247 159.68 247 159 C245.02 159.33 243.04 159.66 241 160 C241 160.99 241 161.98 241 163 C237.62537285 162.45276317 235.91765 161.9451 233 160 C233.66 160.66 234.32 161.32 235 162 C235 163.32 235 164.64 235 166 C235.99 166.33 236.98 166.66 238 167 C235.38058783 168.74627478 233.96175123 169.38722388 231 170 C228.81555126 166.78757538 229.14148936 164.80172868 229.73678398 161.09170341 C230.24471777 157.05529697 230.12941292 152.99603916 230.11352539 148.93383789 C230.11374443 147.45463867 230.11374443 147.45463867 230.1139679 145.94555664 C230.1132744 142.70456702 230.10550845 139.46363576 230.09765625 136.22265625 C230.09579007 133.96821626 230.09436711 131.71377587 230.09336853 129.45933533 C230.08955912 123.53940705 230.07974232 117.6195035 230.06866455 111.69958496 C230.05841651 105.65324233 230.05386365 99.60689569 230.04882812 93.56054688 C230.03811861 81.70702042 230.02106115 69.85351227 230 58 C229.23469971 58.63389648 228.46939941 59.26779297 227.6809082 59.92089844 C224.88331459 62.09049203 222.52534727 63.12397924 219.1875 64.25 C218.21167969 64.58515625 217.23585937 64.9203125 216.23046875 65.265625 C215.49441406 65.50796875 214.75835937 65.7503125 214 66 C214.05800781 65.09378906 214.11601562 64.18757813 214.17578125 63.25390625 C214.47186555 55.25963009 214.31711534 49.25694444 209 43 C200.79690557 35.05926466 192.08288404 33.53567273 181 33 C180.67 32.01 180.34 31.02 180 30 C180 32.31 180 34.62 180 37 C180.33 36.67 180.66 36.34 181 36 C184 37 184 37 185.1875 39.0625 C185.5896875 40.0215625 185.5896875 40.0215625 186 41 C183.73538929 42.37494222 182.54345306 43.07991957 179.875 42.6875 C178 42 178 42 176 41 C175.375 37.9375 175.375 37.9375 175 35 C174.01 35.495 174.01 35.495 173 36 C172.566875 34.7934375 172.566875 34.7934375 172.125 33.5625 C171.26737432 30.8673532 171.26737432 30.8673532 169 30 C169.061875 30.78375 169.12375 31.5675 169.1875 32.375 C169.125625 33.24125 169.06375 34.1075 169 35 C168.01 35.66 167.02 36.32 166 37 C166.33 37.99 166.66 38.98 167 40 C166.01 40 165.02 40 164 40 C165.11179163 43.33537489 166.47411298 44.63707344 169 47 C169.66 46.67 170.32 46.34 171 46 C170.67 47.98 170.34 49.96 170 52 C168.35 52 166.7 52 165 52 C165.14261591 53.87524747 165.28924857 55.75018964 165.4375 57.625 C165.52386719 58.71941406 165.61023438 59.81382813 165.69921875 60.94140625 C165.95385904 64.10261517 165.95385904 64.10261517 166.75 67.5625 C166.8325 68.366875 166.915 69.17125 167 70 C166.02246356 71.02196992 165.0194119 72.01979625 164 73 C163.79681311 74.62549516 163.59843183 76.25176037 163.42651367 77.88085938 C162.90775475 80.45832214 161.93516635 82.53392596 160.80078125 84.90625 C144.7101143 119.53492059 133.48395979 157.08255248 124 194 C123.71664795 195.08869385 123.4332959 196.1773877 123.14135742 197.29907227 C122.86783447 198.36569092 122.59431152 199.43230957 122.3125 200.53125 C122.06757812 201.48451172 121.82265625 202.43777344 121.5703125 203.41992188 C120.82229961 206.80391169 120.63336587 209.55363922 121 213 C123.23775234 216.3566285 123.93320048 216.57996014 127.625 217.6875 C128.44226563 217.93886719 129.25953125 218.19023437 130.1015625 218.44921875 C131.04128906 218.72185547 131.04128906 218.72185547 132 219 C132.3125 221.3125 132.3125 221.3125 132 224 C129.75 225.5 129.75 225.5 127 227 C126.37867187 227.77988281 125.75734375 228.55976563 125.1171875 229.36328125 C123.03628642 231.95480935 121.02217986 233.69995942 118.375 235.6875 C109.39453075 242.7682546 102.47385346 248.92494244 99 260 C98.35043636 261.75642009 97.68378219 263.5066164 97 265.25 C96.71125 266.01828125 96.4225 266.7865625 96.125 267.578125 C95 270 95 270 92.99609375 272.8515625 C90.81807863 276.28694448 90.03541276 279.19159307 89.0625 283.125 C86.38901326 292.33810642 80.28467811 297.19563081 73 303 C67.88392333 307.28379626 63.308994 311.12920419 60 317 C60.12066807 320.19770394 60.5831526 322.1663052 62 325 C62.64381709 328.13943798 62.68931985 330.86359469 62 334 C60.21915463 336.44217872 58.20593653 338.48476413 56.1015625 340.65234375 C50.81818138 346.55441077 49.00851391 353.15222077 48.05102539 360.83813477 C46.77582587 371.0552443 46.77582587 371.0552443 44.0625 374.359375 C42.51998719 375.45372531 40.93859357 376.49520618 39.32421875 377.48046875 C31.93655371 382.31038757 28.0320358 392.40450398 23.90698242 399.97509766 C21.06729665 405.16573673 18.05985798 410.20213072 14.875 415.1875 C9.3575384 423.84221468 4.58857123 432.82285754 0 442 C0 296.14 0 150.28 0 0 Z " fill="#E6E5E5" transform="translate(0,0)"/>
<path d="M0 0 C30.69 0 61.38 0 93 0 C93 146.85 93 293.7 93 445 C92.67 445 92.34 445 92 445 C91.92072266 444.4330542 91.84144531 443.8661084 91.75976562 443.28198242 C88.73613517 422.52793332 83.0087457 403.84051221 67.96875 388.5703125 C67 387 67 387 67.3203125 385.046875 C67.54460937 384.37140625 67.76890625 383.6959375 68 383 C69.49635486 367.53766649 60.49175665 354.43714306 51.1875 342.9375 C49.18485528 340.53501571 47.21110188 338.21110188 45 336 C44.6942538 332.9637152 44.50713136 330.0056838 44.40234375 326.9609375 C44.36315323 326.04728424 44.32396271 325.13363098 44.28358459 324.19229126 C44.15928275 321.25348393 44.0479786 318.31435651 43.9375 315.375 C43.82113607 312.49517419 43.70207421 309.61547058 43.58244324 306.73577881 C43.504093 304.84541042 43.42703445 302.95498805 43.35127258 301.06451416 C43.12118883 295.43544239 42.82204587 289.81638007 42.4453125 284.1953125 C42.07831961 278.61801917 41.86831467 273.08804594 41.9375 267.5 C41.94201172 266.76136719 41.94652344 266.02273438 41.95117188 265.26171875 C41.96256113 263.50777396 41.98046429 261.75387297 42 260 C42.67546875 259.81566406 43.3509375 259.63132812 44.046875 259.44140625 C49.39040586 257.7336997 49.39040586 257.7336997 53.51953125 254.1171875 C55.96912609 248.99780952 56.52078915 243.91226586 56.7265625 238.28515625 C57 236 57 236 59 234 C59.21808696 231.39645429 59.21808696 231.39645429 59.046875 228.33984375 C59.00570557 227.16728027 58.96453613 225.9947168 58.92211914 224.78662109 C58.83692017 222.88130615 58.83692017 222.88130615 58.75 220.9375 C58.6977124 219.62346191 58.6454248 218.30942383 58.59155273 216.95556641 C58.214244 207.90344308 57.58142493 198.88247919 56.80175781 189.85644531 C55.66007675 176.46992126 54.98508968 163.05449493 54.25439453 149.640625 C53.99763032 144.93713196 53.73176363 140.23417596 53.46484375 135.53125 C53.33234678 133.18702143 53.20004514 130.84278196 53.06787109 128.49853516 C52.98132365 126.96434396 52.89457408 125.43016414 52.80761719 123.89599609 C52.39691524 116.63033373 51.99848165 109.36609586 51.72265625 102.09375 C51.68342041 101.07901611 51.64418457 100.06428223 51.60375977 99.01879883 C51.53762681 97.21422488 51.47874658 95.4093602 51.42944336 93.60424805 C51.34213169 85.49216278 51.34213169 85.49216278 47.65551758 78.59838867 C43.0073919 75.01343071 37.63988705 73.03970127 32.1875 71 C12.41476306 63.34132986 12.41476306 63.34132986 9 59 C8.01465086 54.41945807 8.57702605 50.16373491 10.8125 46.0625 C13 43 13 43 16 41 C16.55695008 38.4237336 16.93158176 36.0451473 17.1875 33.4375 C17.26500488 32.71240234 17.34250977 31.98730469 17.42236328 31.24023438 C17.63406132 29.16140612 17.82137105 27.08189671 18 25 C18.08636719 24.08347656 18.17273438 23.16695312 18.26171875 22.22265625 C18.54377329 16.68855168 17.15047889 12.55990365 14 8 C10.07807676 3.85396686 5.35053124 2.53871487 0 1 C0 0.67 0 0.34 0 0 Z " fill="#E6E6E5" transform="translate(253,0)"/>
<path d="M0 0 C0.66 0.33 1.32 0.66 2 1 C2 1.99 2 2.98 2 4 C2.75023437 3.95359375 3.50046875 3.9071875 4.2734375 3.859375 C13.83015518 3.52236229 20.85919598 5.19020968 28.375 11.25 C33.51007927 16.15639153 36.16905919 20.82726166 36.4375 28 C35.98420225 38.86403617 34.35179416 50.90920465 28 60 C27.14921875 60.75667969 26.2984375 61.51335937 25.421875 62.29296875 C22.33969213 65.73805379 22.10115206 68.07011147 21.625 72.625 C21.54378906 73.29273437 21.46257812 73.96046875 21.37890625 74.6484375 C21.02944502 77.82535778 20.97794667 79.93384001 22 83 C22.66 83 23.32 83 24 83 C25.7265625 84.6796875 25.7265625 84.6796875 27.625 86.875 C28.25664062 87.59429687 28.88828125 88.31359375 29.5390625 89.0546875 C31 91 31 91 31 93 C31.61488281 93.0928125 32.22976562 93.185625 32.86328125 93.28125 C35 94 35 94 36.23046875 95.53125 C38.64281785 100.49379672 40.62140269 105.39766639 40 111 C38.66543198 113.94880655 36.99893815 116.46155605 35 119 C34 117 34 117 34.25 114 C34.34308078 107.64391239 30.65361247 101.96645807 26.6875 97.25 C20.44611894 91.99832528 20.44611894 91.99832528 13.53515625 87.71875 C10.32793478 85.54436256 8.50276875 82.82562592 6.4375 79.625 C2.49044094 73.6102833 2.49044094 73.6102833 -2 68 C-2.66 68 -3.32 68 -4 68 C-3.39340946 70.90524943 -2.46248602 73.03178843 -0.9375 75.5625 C1.63135948 80.63410861 1.93472226 85.42417853 1 91 C-0.78787132 95.48869821 -3.10464978 98.34714047 -7 101.1875 C-11.79890973 104.85212198 -13.70618159 111.31621066 -15 117 C-14.59990365 124.26967522 -12.5303265 131.21668845 -10.640625 138.22265625 C-8.34659329 147.28012629 -9.28359269 153.61447762 -13.625 161.875 C-13.97747803 162.57407471 -14.32995605 163.27314941 -14.69311523 163.9934082 C-16.80853166 168.08472666 -19.14675506 171.6029524 -22.0625 175.1875 C-25.59540667 180.02200386 -25.60252064 183.78510623 -24.7890625 189.6171875 C-23.20645738 196.40201934 -20.78228422 202.8525619 -17.34765625 208.91796875 C-15.72680849 212.6247771 -15.69854876 215.34872286 -15.8125 219.375 C-15.85310547 221.24285156 -15.85310547 221.24285156 -15.89453125 223.1484375 C-15.92933594 224.08945313 -15.96414062 225.03046875 -16 226 C-17.9375 225.625 -17.9375 225.625 -20 225 C-21.60725635 221.78548731 -21.05748185 218.56387464 -21 215 C-21.99 215.33 -22.98 215.66 -24 216 C-24.1941204 221.53243128 -23.61340977 225.65558013 -22 231 C-21.875 233.9375 -21.875 233.9375 -22 236 C-25.26001913 237.15059499 -26.66752949 237.1445524 -29.875 235.75 C-35.36907797 231.70772501 -39.37843185 224.20829074 -42 218 C-41.77144811 214.03843393 -40.95434581 210.7509838 -39.4375 207.125 C-37.66242787 202.73040396 -37.70760647 198.67829654 -38 194 C-38.55171875 194.48082031 -39.1034375 194.96164063 -39.671875 195.45703125 C-42.36143493 197.23954161 -44.05821418 197.47751409 -47.25 197.6875 C-48.14203125 197.75324219 -49.0340625 197.81898438 -49.953125 197.88671875 C-50.96632812 197.94279297 -50.96632812 197.94279297 -52 198 C-51.34 197.01 -50.68 196.02 -50 195 C-49.01 195 -48.02 195 -47 195 C-47.33 193.35 -47.66 191.7 -48 190 C-48.62648437 189.81824219 -49.25296875 189.63648438 -49.8984375 189.44921875 C-50.71570313 189.19785156 -51.53296875 188.94648438 -52.375 188.6875 C-53.18710938 188.44386719 -53.99921875 188.20023438 -54.8359375 187.94921875 C-57 187 -57 187 -59 184 C-59.59689369 177.72035128 -58.01125142 172.05086182 -56.4375 166 C-56.16429932 164.93458984 -55.89109863 163.86917969 -55.60961914 162.77148438 C-53.05588562 152.95980955 -50.20882272 143.26013851 -47.14013672 133.59814453 C-46.3068081 130.96825219 -45.48040231 128.33674918 -44.66064453 125.70263672 C-38.64568563 106.40243102 -32.218844 87.35373139 -24.75 68.5625 C-24.41790527 67.72669403 -24.08581055 66.89088806 -23.74365234 66.02975464 C-22.80855991 63.68554277 -21.86746241 61.3439025 -20.921875 59.00390625 C-20.6401947 58.3048819 -20.3585144 57.60585754 -20.06829834 56.88565063 C-18.1210475 52.1210475 -18.1210475 52.1210475 -17 51 C-16.814375 49.329375 -16.814375 49.329375 -16.625 47.625 C-16 44 -16 44 -14.375 42.4375 C-13.92125 41.963125 -13.4675 41.48875 -13 41 C-13.25783678 38.98887313 -13.61580002 36.99085446 -14 35 C-14.10220319 30.99874513 -14.0582795 27.00185897 -14 23 C-12.35 23 -10.7 23 -9 23 C-9 21.35 -9 19.7 -9 18 C-9.66 18.66 -10.32 19.32 -11 20 C-11.33 18.35 -11.66 16.7 -12 15 C-12.99 14.67 -13.98 14.34 -15 14 C-15 13.01 -15 12.02 -15 11 C-14.34 10.67 -13.68 10.34 -13 10 C-13.495 8.02 -13.495 8.02 -14 6 C-12.68 6 -11.36 6 -10 6 C-10 4.35 -10 2.7 -10 1 C-8.0625 1.8125 -8.0625 1.8125 -6 3 C-5.505 4.485 -5.505 4.485 -5 6 C-4.34 5.67 -3.68 5.34 -3 5 C-3 7.31 -3 9.62 -3 12 C-2.195625 11.979375 -1.39125 11.95875 -0.5625 11.9375 C2 12 2 12 3 13 C3.99 12.34 4.98 11.68 6 11 C5.34 10.34 4.68 9.68 4 9 C3.34 8.34 2.68 7.68 2 7 C2 7.66 2 8.32 2 9 C1.34 8.67 0.68 8.34 0 8 C0 5.36 0 2.72 0 0 Z " fill="#661916" transform="translate(179,29)"/>
<path d="M0 0 C5.24228218 3.34613756 8.24839859 6.92091274 10 13 C10.25235284 16.17964583 10.24611986 18.84878676 10 22 C9.9071875 23.30582031 9.814375 24.61164062 9.71875 25.95703125 C9.58723086 27.38838431 9.45178382 28.81938164 9.3125 30.25 C9.25940674 30.93570068 9.20631348 31.62140137 9.15161133 32.32788086 C8.56594779 37.51527694 6.81694018 39.59934669 3 43 C0.88372238 46.29637834 0.72562019 49.04370324 0.65625 52.91796875 C0.61177734 54.67850586 0.61177734 54.67850586 0.56640625 56.47460938 C0.54449219 57.69986328 0.52257812 58.92511719 0.5 60.1875 C0.35975404 67.70715816 0.04673238 75.06889621 -0.9609375 82.52734375 C-2.60447796 95.05927047 -2.69488218 107.7233462 -3.06445312 120.34259033 C-3.1662548 123.75982228 -3.27703207 127.17676377 -3.38671875 130.59375 C-3.81700462 142.2945595 -3.81700462 142.2945595 -4 154 C-3.01 154.99 -3.01 154.99 -2 156 C-2 156.99 -2 157.98 -2 159 C-0.70896357 160.3743291 0.6256709 161.70896357 2 163 C2.33 163.66 2.66 164.32 3 165 C3.598125 164.34 4.19625 163.68 4.8125 163 C7 161 7 161 10 161 C10 163.64 10 166.28 10 169 C10.99 168.67 11.98 168.34 13 168 C14.87643761 169.87643761 14.17984987 172.49805701 14.23046875 174.9921875 C14 177 14 177 12 180 C10.02 179.01 10.02 179.01 8 178 C8.33 177.34 8.66 176.68 9 176 C8.01 175.67 7.02 175.34 6 175 C6.66 174.67 7.32 174.34 8 174 C6.55245745 172.55245745 4.96037087 172.44266439 3 172 C3 170.68 3 169.36 3 168 C1.68 168.33 0.36 168.66 -1 169 C-1 170.65 -1 172.3 -1 174 C-0.34 174 0.32 174 1 174 C0.731875 174.556875 0.46375 175.11375 0.1875 175.6875 C-0.28598106 178.26583282 -0.28598106 178.26583282 2.125 180.6875 C5.09328709 183.07503527 6.26859751 183.82231417 10 184 C12.34165499 183.73128549 14.67884289 183.40961596 17 183 C17.75 184.75 17.75 184.75 18 187 C16.015625 189.140625 16.015625 189.140625 14 191 C13.32453125 190.59007812 12.6490625 190.18015625 11.953125 189.7578125 C11.06109375 189.21898437 10.1690625 188.68015625 9.25 188.125 C8.36828125 187.59132812 7.4865625 187.05765625 6.578125 186.5078125 C4.08958965 185.00179144 4.08958965 185.00179144 1.734375 183.9296875 C0 183 0 183 -1 181 C-1.66 181.99 -2.32 182.98 -3 184 C-5.8203125 184.29296875 -5.8203125 184.29296875 -9.125 184.1875 C-10.76855469 184.14689453 -10.76855469 184.14689453 -12.4453125 184.10546875 C-13.28835937 184.07066406 -14.13140625 184.03585938 -15 184 C-12.69 184.33 -10.38 184.66 -8 185 C-8.66 185.99 -9.32 186.98 -10 188 C-16.875 187.125 -16.875 187.125 -18 186 C-18.33 186.66 -18.66 187.32 -19 188 C-15.37 188.33 -11.74 188.66 -8 189 C-7.67 190.32 -7.34 191.64 -7 193 C-6.01 190.69 -5.02 188.38 -4 186 C-3.34 186.33 -2.68 186.66 -2 187 C-0.46331135 187.22467831 1.07968054 187.40796805 2.625 187.5625 C3.44226563 187.64628906 4.25953125 187.73007813 5.1015625 187.81640625 C5.72804688 187.87699219 6.35453125 187.93757812 7 188 C7 188.66 7 189.32 7 190 C7.99 190 8.98 190 10 190 C10 191.32 10 192.64 10 194 C2.25 195.125 2.25 195.125 0 194 C0 193.34 0 192.68 0 192 C-0.66 192 -1.32 192 -2 192 C-1.34 193.65 -0.68 195.3 0 197 C-3 198 -3 198 -6 197 C-6.33 197.99 -6.66 198.98 -7 200 C-7.33 200.33 -7.66 200.66 -8 201 C-7.67 201 -7.34 201 -7 201 C-7.33 203.31 -7.66 205.62 -8 208 C-10.66666667 208 -13.33333333 208 -16 208 C-16.99 208.33 -17.98 208.66 -19 209 C-19 208.34 -19 207.68 -19 207 C-20.32 207 -21.64 207 -23 207 C-22.855625 206.030625 -22.71125 205.06125 -22.5625 204.0625 C-21.93952558 199.71947831 -21.46492141 195.36234766 -21 191 C-22.62450001 192.62450001 -22.31658482 194.57548987 -22.5 196.8125 C-22.76255818 199.98664084 -23.14832451 202.93000697 -24 206 C-24.185625 206.7425 -24.37125 207.485 -24.5625 208.25 C-24.706875 208.8275 -24.85125 209.405 -25 210 C-25.78375 209.95875 -26.5675 209.9175 -27.375 209.875 C-30.16116119 209.71271266 -30.16116119 209.71271266 -32 212 C-34.125 211.625 -34.125 211.625 -36 211 C-35.505 208.03 -35.505 208.03 -35 205 C-36.32 205 -37.64 205 -39 205 C-39 204.01 -39 203.02 -39 202 C-42.04913228 200.98888907 -42.04913228 200.98888907 -45 202 C-45 203.65 -45 205.3 -45 207 C-48.65574118 200.17594979 -48.1834183 193.60013113 -48.1875 186 C-48.19974609 184.83082031 -48.21199219 183.66164062 -48.22460938 182.45703125 C-48.24189406 172.07469918 -47.62252144 162.35743356 -42.875 153 C-39.52057466 145.51641717 -38.21650046 139.06373986 -40.99609375 131.171875 C-43.0130713 126.8740163 -45.17365957 122.93352767 -49 120 C-49.99 119.67 -50.98 119.34 -52 119 C-53.82421875 117.22265625 -53.82421875 117.22265625 -55.6875 115.0625 C-56.31011719 114.35222656 -56.93273437 113.64195313 -57.57421875 112.91015625 C-59 111 -59 111 -59 109 C-59.66 109 -60.32 109 -61 109 C-64.05761122 104.41358317 -62.81833604 99.95875936 -61.96484375 94.7265625 C-60.78392503 90.16544324 -59.06669291 88.07524182 -55.74609375 84.87890625 C-51.35275885 80.1514027 -50.07025107 74.05548847 -49.625 67.8125 C-49.22265625 65.33203125 -49.22265625 65.33203125 -48 63 C-43.56725771 60.0061004 -38.91799565 58.05842386 -34 56 C-33.01 55.34 -32.02 54.68 -31 54 C-30.97681746 67.1782497 -30.95905474 80.35649453 -30.94818783 93.53476048 C-30.94297195 99.65412174 -30.93589779 105.77346904 -30.92456055 111.89282227 C-30.91368569 117.79964777 -30.90771339 123.70645986 -30.90512276 129.6132946 C-30.90327681 131.86550037 -30.89967215 134.11770542 -30.89426994 136.36990547 C-30.88699853 139.52730007 -30.88601164 142.68463938 -30.88647461 145.84204102 C-30.88287933 146.77064941 -30.87928406 147.69925781 -30.87557983 148.65600586 C-30.88334207 153.55653868 -31.25339843 158.16100094 -32 163 C-31.65340705 165.32158065 -31.65340705 165.32158065 -31 167 C-27.95865509 165.33075929 -27.95865509 165.33075929 -27 163 C-27.85116209 160.56810832 -28.84845643 158.30308715 -30 156 C-29.0625 153.875 -29.0625 153.875 -28 152 C-27.62875 153.4540625 -27.62875 153.4540625 -27.25 154.9375 C-26.63125 156.4534375 -26.63125 156.4534375 -26 158 C-23.96756452 158.96877057 -23.96756452 158.96877057 -22 159 C-21.67 158.01 -21.34 157.02 -21 156 C-19.02 156 -17.04 156 -15 156 C-14.67 156.66 -14.34 157.32 -14 158 C-13.01 155.03 -12.02 152.06 -11 149 C-13.31 149 -15.62 149 -18 149 C-18.185625 150.2065625 -18.185625 150.2065625 -18.375 151.4375 C-18.58125 152.283125 -18.7875 153.12875 -19 154 C-19.66 154.33 -20.32 154.66 -21 155 C-21.763125 154.21625 -22.52625 153.4325 -23.3125 152.625 C-25.90891805 149.92742283 -25.90891805 149.92742283 -29 148 C-28.82984375 147.20464844 -28.6596875 146.40929687 -28.484375 145.58984375 C-26.2920281 134.68641634 -24.86639388 123.70954699 -23.49243164 112.67797852 C-22.41874425 104.08206099 -21.24194326 95.51425851 -19.77539062 86.97558594 C-18.64881301 80.03451349 -19.71803623 76.1358453 -23 70 C-20.525 69.01 -20.525 69.01 -18 68 C-18 67.34 -18 66.68 -18 66 C-18.59425781 65.73574219 -19.18851563 65.47148438 -19.80078125 65.19921875 C-23.4044952 63.2341385 -25.76545963 60.41061424 -28 57 C-28.91543481 53.33826075 -29.02123762 50.38227717 -28.8125 46.625 C-28.99445097 43.10728116 -29.47650257 41.72914925 -31 38.6875 C-33.41662958 33.75212972 -33.40606876 29.40297044 -33 24 C-32.34 24 -31.68 24 -31 24 C-31.04640625 23.07058594 -31.0928125 22.14117188 -31.140625 21.18359375 C-31.50790025 8.60441652 -31.50790025 8.60441652 -27 3 C-19.01402373 -4.57643903 -9.59303425 -4.58123359 0 0 Z " fill="#661816" transform="translate(262,3)"/>
<path d="M0 0 C2 2 4 4 6 6 C5.91291962 8.10494301 5.80474307 10.20902142 5.6875 12.3125 C5.6295797 21.79212308 8.96644047 29.06107692 15.375 36 C23.5637659 43.380664 32.69615792 45.19539042 43.4375 44.6875 C50.06189078 44.61535317 53.12183867 45.6779972 58.17578125 49.8046875 C90.74150357 75.11856847 141.31316554 80.23594812 181 83 C181 83.33 181 83.66 181 84 C121.27 84 61.54 84 0 84 C0 56.28 0 28.56 0 0 Z " fill="#E6E5E5" transform="translate(0,448)"/>
<path d="M0 0 C5.24228218 3.34613756 8.24839859 6.92091274 10 13 C10.25235284 16.17964583 10.24611986 18.84878676 10 22 C9.86078125 23.95873047 9.86078125 23.95873047 9.71875 25.95703125 C9.58723086 27.38838431 9.45178382 28.81938164 9.3125 30.25 C9.23286011 31.27855103 9.23286011 31.27855103 9.15161133 32.32788086 C8.56594779 37.51527694 6.81694018 39.59934669 3 43 C1.19694501 45.85210516 0.77746699 48.03245454 0.625 51.375 C0.07378395 57.16276857 -2.32596612 60.44845641 -6.5625 64.375 C-9 66 -9 66 -12 66 C-12 66.66 -12 67.32 -12 68 C-10.35 68.33 -8.7 68.66 -7 69 C-6.3125 70.6875 -6.3125 70.6875 -6 73 C-6.48412354 73.6803833 -6.96824707 74.3607666 -7.46704102 75.06176758 C-9.62738675 79.20251626 -9.33928521 82.7274072 -9.21484375 87.32421875 C-9.20202866 88.24273117 -9.18921356 89.16124359 -9.17601013 90.10758972 C-9.13131755 93.0721456 -9.06555776 96.03583981 -9 99 C-8.96866788 100.9656335 -8.93887875 102.93129222 -8.91064453 104.89697266 C-8.83517049 109.86449488 -8.73672771 114.83120491 -8.62768555 119.7980957 C-8.56156898 122.85555368 -8.50236957 125.91310064 -8.44335938 128.97070312 C-8.40145764 130.94532137 -8.35915512 132.91993116 -8.31640625 134.89453125 C-8.29969376 135.79355667 -8.28298126 136.69258209 -8.26576233 137.61885071 C-8.14420377 142.81493441 -7.73370614 147.85361279 -7 153 C-8.65 153 -10.3 153 -12 153 C-11.67 151.68 -11.34 150.36 -11 149 C-13.31 149 -15.62 149 -18 149 C-18.185625 150.2065625 -18.185625 150.2065625 -18.375 151.4375 C-18.58125 152.283125 -18.7875 153.12875 -19 154 C-19.66 154.33 -20.32 154.66 -21 155 C-21.763125 154.21625 -22.52625 153.4325 -23.3125 152.625 C-25.90891805 149.92742283 -25.90891805 149.92742283 -29 148 C-28.82984375 147.20464844 -28.6596875 146.40929687 -28.484375 145.58984375 C-26.2920281 134.68641634 -24.86639388 123.70954699 -23.49243164 112.67797852 C-22.41874425 104.08206099 -21.24194326 95.51425851 -19.77539062 86.97558594 C-18.64881301 80.03451349 -19.71803623 76.1358453 -23 70 C-20.525 69.01 -20.525 69.01 -18 68 C-18 67.34 -18 66.68 -18 66 C-18.59425781 65.73574219 -19.18851563 65.47148438 -19.80078125 65.19921875 C-23.4044952 63.2341385 -25.76545963 60.41061424 -28 57 C-28.91543481 53.33826075 -29.02123762 50.38227717 -28.8125 46.625 C-28.99445097 43.10728116 -29.47650257 41.72914925 -31 38.6875 C-33.41662958 33.75212972 -33.40606876 29.40297044 -33 24 C-32.34 24 -31.68 24 -31 24 C-31.04640625 23.07058594 -31.0928125 22.14117188 -31.140625 21.18359375 C-31.50790025 8.60441652 -31.50790025 8.60441652 -27 3 C-19.01402373 -4.57643903 -9.59303425 -4.58123359 0 0 Z " fill="#651715" transform="translate(262,3)"/>
<path d="M0 0 C0.33 0 0.66 0 1 0 C1 24.42 1 48.84 1 74 C-41.24 74 -83.48 74 -127 74 C-127 73.67 -127 73.34 -127 73 C-125.07800781 72.83564453 -125.07800781 72.83564453 -123.1171875 72.66796875 C-96.39972449 70.27044709 -64.84763371 63.84763371 -45 44 C-42.74323401 43.49492818 -40.46818259 43.07035403 -38.1875 42.6875 C-24.7128583 40.46424112 -24.7128583 40.46424112 -14 33 C-13.731875 31.88625 -13.46375 30.7725 -13.1875 29.625 C-11.65792729 24.95577803 -9.87245001 23.88373937 -6 21 C-4.90000317 18.80000633 -4.83980841 17.43693451 -4.6875 15 C-4.15773505 9.56990927 -2.21865396 4.94295463 0 0 Z " fill="#E6E5E5" transform="translate(345,458)"/>
<path d="M0 0 C0.33 0 0.66 0 1 0 C1.05557646 2.8127866 1.09439915 5.62440721 1.125 8.4375 C1.14175781 9.20126953 1.15851563 9.96503906 1.17578125 10.75195312 C1.21801976 16.01064735 0.76566207 21.05004695 0.0625 26.26171875 C-1.58038268 38.88572163 -1.6922037 51.63188749 -2.06445312 64.34259033 C-2.1662548 67.75982228 -2.27703207 71.17676377 -2.38671875 74.59375 C-2.81700462 86.2945595 -2.81700462 86.2945595 -3 98 C-2.01 98.99 -2.01 98.99 -1 100 C-1 100.99 -1 101.98 -1 103 C0.29103643 104.3743291 1.6256709 105.70896357 3 107 C3.33 107.66 3.66 108.32 4 109 C4.598125 108.34 5.19625 107.68 5.8125 107 C8 105 8 105 11 105 C11 107.64 11 110.28 11 113 C11.99 112.67 12.98 112.34 14 112 C15.87643761 113.87643761 15.17984987 116.49805701 15.23046875 118.9921875 C15 121 15 121 13 124 C11.68 123.34 10.36 122.68 9 122 C9.33 121.34 9.66 120.68 10 120 C9.01 119.67 8.02 119.34 7 119 C7.66 118.67 8.32 118.34 9 118 C7.55245745 116.55245745 5.96037087 116.44266439 4 116 C4 114.68 4 113.36 4 112 C2.02 112.495 2.02 112.495 0 113 C0 114.65 0 116.3 0 118 C0.66 118 1.32 118 2 118 C1.731875 118.556875 1.46375 119.11375 1.1875 119.6875 C0.71401894 122.26583282 0.71401894 122.26583282 3.125 124.6875 C6.09328709 127.07503527 7.26859751 127.82231417 11 128 C13.34165499 127.73128549 15.67884289 127.40961596 18 127 C18.75 128.75 18.75 128.75 19 131 C17.015625 133.140625 17.015625 133.140625 15 135 C14.32453125 134.59007812 13.6490625 134.18015625 12.953125 133.7578125 C12.06109375 133.21898437 11.1690625 132.68015625 10.25 132.125 C9.36828125 131.59132812 8.4865625 131.05765625 7.578125 130.5078125 C5.08958965 129.00179144 5.08958965 129.00179144 2.734375 127.9296875 C1 127 1 127 0 125 C-0.66 125.99 -1.32 126.98 -2 128 C-4.8203125 128.29296875 -4.8203125 128.29296875 -8.125 128.1875 C-9.76855469 128.14689453 -9.76855469 128.14689453 -11.4453125 128.10546875 C-12.28835937 128.07066406 -13.13140625 128.03585938 -14 128 C-11.69 128.33 -9.38 128.66 -7 129 C-7.66 129.99 -8.32 130.98 -9 132 C-15.875 131.125 -15.875 131.125 -17 130 C-17.33 130.66 -17.66 131.32 -18 132 C-14.37 132.33 -10.74 132.66 -7 133 C-6.67 134.32 -6.34 135.64 -6 137 C-5.01 134.69 -4.02 132.38 -3 130 C-2.34 130.33 -1.68 130.66 -1 131 C0.53668865 131.22467831 2.07968054 131.40796805 3.625 131.5625 C4.44226563 131.64628906 5.25953125 131.73007813 6.1015625 131.81640625 C6.72804688 131.87699219 7.35453125 131.93757812 8 132 C8 132.66 8 133.32 8 134 C8.99 134 9.98 134 11 134 C11 135.32 11 136.64 11 138 C3.25 139.125 3.25 139.125 1 138 C1 137.34 1 136.68 1 136 C0.34 136 -0.32 136 -1 136 C-0.34 137.65 0.32 139.3 1 141 C-2 142 -2 142 -5 141 C-5.33 141.99 -5.66 142.98 -6 144 C-6.33 144.33 -6.66 144.66 -7 145 C-6.67 145 -6.34 145 -6 145 C-6.33 147.31 -6.66 149.62 -7 152 C-9.66666667 152 -12.33333333 152 -15 152 C-15.99 152.33 -16.98 152.66 -18 153 C-18 152.34 -18 151.68 -18 151 C-19.32 151 -20.64 151 -22 151 C-21.855625 150.030625 -21.71125 149.06125 -21.5625 148.0625 C-20.93952558 143.71947831 -20.46492141 139.36234766 -20 135 C-21.62450001 136.62450001 -21.31658482 138.57548987 -21.5 140.8125 C-21.76255818 143.98664084 -22.14832451 146.93000697 -23 150 C-23.185625 150.7425 -23.37125 151.485 -23.5625 152.25 C-23.706875 152.8275 -23.85125 153.405 -24 154 C-24.78375 153.95875 -25.5675 153.9175 -26.375 153.875 C-29.16116119 153.71271266 -29.16116119 153.71271266 -31 156 C-33.125 155.625 -33.125 155.625 -35 155 C-34.67 153.02 -34.34 151.04 -34 149 C-35.32 149 -36.64 149 -38 149 C-37.34 146.36 -36.68 143.72 -36 141 C-36.99 141 -37.98 141 -39 141 C-38.38461538 134.47692308 -38.38461538 134.47692308 -36.4375 132.0625 C-35.963125 131.711875 -35.48875 131.36125 -35 131 C-33.68 131.66 -32.36 132.32 -31 133 C-31.66 134.98 -32.32 136.96 -33 139 C-31.68 139.33 -30.36 139.66 -29 140 C-29.33 142.31 -29.66 144.62 -30 147 C-29.38125 146.649375 -28.7625 146.29875 -28.125 145.9375 C-27.42375 145.628125 -26.7225 145.31875 -26 145 C-25.34 145.33 -24.68 145.66 -24 146 C-23.7937464 142.28743521 -24.31695371 140.26090219 -26 137 C-26 135.68 -26 134.36 -26 133 C-25.195625 132.7525 -24.39125 132.505 -23.5625 132.25 C-20.828919 131.27761141 -20.828919 131.27761141 -20.1875 128.875 C-20.125625 128.25625 -20.06375 127.6375 -20 127 C-22.64 126.67 -25.28 126.34 -28 126 C-28 125.01 -28 124.02 -28 123 C-29.65 122.67 -31.3 122.34 -33 122 C-33 121.01 -33 120.02 -33 119 C-33.66 119 -34.32 119 -35 119 C-35 117.68 -35 116.36 -35 115 C-31.98400776 114.92986065 -29.31959301 114.92390643 -26.375 115.625 C-23.53973051 116.07267413 -22.38761711 115.50331448 -20 114 C-20.8125 115.9375 -20.8125 115.9375 -22 118 C-23.485 118.495 -23.485 118.495 -25 119 C-21.535 119.495 -21.535 119.495 -18 120 C-18.66 120.99 -19.32 121.98 -20 123 C-19.443125 122.505 -18.88625 122.01 -18.3125 121.5 C-15.61837017 119.75245633 -14.14624993 119.73781251 -11 120 C-12.32 119.34 -13.64 118.68 -15 118 C-15.25235894 114.46697478 -15.19328523 112.37816676 -13.5625 109.1875 C-11.57872456 105.14059811 -11.2867919 101.45021908 -11 97 C-9.02 96.505 -9.02 96.505 -7 96 C-7.15847412 95.05141113 -7.31694824 94.10282227 -7.48022461 93.12548828 C-8.14856146 88.42261704 -8.22872636 83.73588378 -8.31640625 78.9921875 C-8.33718735 78.03087921 -8.35796844 77.06957092 -8.37937927 76.07913208 C-8.42249699 74.04351907 -8.46355617 72.00786155 -8.50268555 69.97216797 C-8.56137706 66.93314519 -8.62678069 63.8943278 -8.69335938 60.85546875 C-8.79903445 55.89030705 -8.88183229 50.9251202 -8.95294189 45.95935059 C-8.98460556 43.96811243 -9.02260196 41.97696596 -9.06658936 39.98596191 C-9.1301995 37.09745898 -9.17452859 34.20922214 -9.21484375 31.3203125 C-9.23833389 30.45284393 -9.26182404 29.58537537 -9.286026 28.69161987 C-9.33040538 23.82311409 -8.88831634 21.08984455 -6 17 C-6 16.01 -6 15.02 -6 14 C-7.65 13.34 -9.3 12.68 -11 12 C-11 11.34 -11 10.68 -11 10 C-10.0925 9.608125 -9.185 9.21625 -8.25 8.8125 C-4.26844818 6.59201918 -2.03069992 4.06139984 0 0 Z " fill="#9A6966" transform="translate(261,59)"/>
<path d="M0 0 C0.53625 0.680625 1.0725 1.36125 1.625 2.0625 C3.44090148 4.30848341 5.26588366 6.54002101 7.125 8.75 C7.62257812 9.34296875 8.12015625 9.9359375 8.6328125 10.546875 C9.9579498 12.12271444 9.9579498 12.12271444 12 13 C12 13.66 12 14.32 12 15 C10 16.625 10 16.625 8 18 C8.6703125 18.83144531 9.340625 19.66289063 10.03125 20.51953125 C12.3626671 24.64114363 12.22250261 27.20531741 11.5 31.6875 C11.3961499 32.45296143 11.2922998 33.21842285 11.18530273 34.00708008 C10.81550448 36.67563836 10.40865447 39.3371253 10 42 C9.68762369 44.1248271 9.37648464 46.24983635 9.06640625 48.375 C8.56407171 51.79816084 8.0575079 55.2204861 7.53979492 58.64135742 C6.21608896 67.3894077 5.03342172 76.14927425 3.95141602 84.93041992 C3.83983154 85.81963135 3.72824707 86.70884277 3.61328125 87.625 C3.51829346 88.40101563 3.42330566 89.17703125 3.32543945 89.9765625 C3 92 3 92 2 95 C2.969375 95.598125 3.93875 96.19625 4.9375 96.8125 C8 99 8 99 9 102 C9.37125 100.5459375 9.37125 100.5459375 9.75 99.0625 C11 96 11 96 12.875 95.0625 C15 95 15 95 19 96 C18.01 100.95 18.01 100.95 17 106 C16.34 105.67 15.68 105.34 15 105 C15 104.34 15 103.68 15 103 C12.03 103.495 12.03 103.495 9 104 C9 104.99 9 105.98 9 107 C5.62537285 106.45276317 3.91765 105.9451 1 104 C1.66 104.66 2.32 105.32 3 106 C3 107.32 3 108.64 3 110 C3.99 110.33 4.98 110.66 6 111 C3.38058783 112.74627478 1.96175123 113.38722388 -1 114 C-2.80109535 111.35133036 -3.02569214 110.17933372 -2.56370544 106.95462036 C-1.90769373 102.35243437 -1.88282672 97.92812996 -1.91821289 93.28857422 C-1.92127945 92.33973358 -1.92434601 91.39089294 -1.92750549 90.41329956 C-1.93463196 88.36336283 -1.9440068 86.31343293 -1.95540047 84.26351547 C-1.97284978 81.01870011 -1.98310804 77.77393438 -1.99131775 74.52908325 C-2.01572481 65.30693882 -2.05142028 56.08486167 -2.09594727 46.86279297 C-2.12272169 41.21375085 -2.13976831 35.56474692 -2.15081596 29.91565323 C-2.15702345 27.76505237 -2.16702589 25.61445899 -2.18089485 23.46389389 C-2.20010208 20.46009197 -2.20700558 17.45649175 -2.21118164 14.45263672 C-2.21994324 13.56523804 -2.22870483 12.67783936 -2.23773193 11.7635498 C-2.23078242 7.38686164 -2.05840294 3.98248818 0 0 Z " fill="#FCFBFA" transform="translate(232,56)"/>
<path d="M0 0 C0.33 0 0.66 0 1 0 C1.05557646 2.8127866 1.09439915 5.62440721 1.125 8.4375 C1.14175781 9.20126953 1.15851563 9.96503906 1.17578125 10.75195312 C1.21801976 16.01064735 0.76566207 21.05004695 0.0625 26.26171875 C-1.58038268 38.88572163 -1.6922037 51.63188749 -2.06445312 64.34259033 C-2.1662548 67.75982228 -2.27703207 71.17676377 -2.38671875 74.59375 C-2.81700462 86.2945595 -2.81700462 86.2945595 -3 98 C-2.34 98.66 -1.68 99.32 -1 100 C-1 100.99 -1 101.98 -1 103 C0.29103643 104.3743291 1.6256709 105.70896357 3 107 C3.33 107.66 3.66 108.32 4 109 C4.8971875 108.01 4.8971875 108.01 5.8125 107 C8 105 8 105 11 105 C11 107.64 11 110.28 11 113 C12.485 112.505 12.485 112.505 14 112 C15.87643761 113.87643761 15.17984987 116.49805701 15.23046875 118.9921875 C15 121 15 121 13 124 C11.68 123.34 10.36 122.68 9 122 C9.33 121.34 9.66 120.68 10 120 C8.515 119.505 8.515 119.505 7 119 C7.99 118.505 7.99 118.505 9 118 C7.55245745 116.55245745 5.96037087 116.44266439 4 116 C4 114.68 4 113.36 4 112 C2.02 112.495 2.02 112.495 0 113 C0 114.65 0 116.3 0 118 C0.66 118 1.32 118 2 118 C1.731875 118.556875 1.46375 119.11375 1.1875 119.6875 C0.71401894 122.26583282 0.71401894 122.26583282 3.125 124.6875 C6.09328709 127.07503527 7.26859751 127.82231417 11 128 C13.34165499 127.73128549 15.67884289 127.40961596 18 127 C18.75 128.75 18.75 128.75 19 131 C17.015625 133.140625 17.015625 133.140625 15 135 C14.32453125 134.59007812 13.6490625 134.18015625 12.953125 133.7578125 C12.06109375 133.21898437 11.1690625 132.68015625 10.25 132.125 C9.36828125 131.59132812 8.4865625 131.05765625 7.578125 130.5078125 C5.08958965 129.00179144 5.08958965 129.00179144 2.734375 127.9296875 C1 127 1 127 0 125 C-0.99 125.99 -0.99 125.99 -2 127 C-2 122.38 -2 117.76 -2 113 C-2.66 114.32 -3.32 115.64 -4 117 C-4.144375 115.7625 -4.28875 114.525 -4.4375 113.25 C-4.78688502 110.43495501 -5.20379366 107.7298503 -6 105 C-6.99 105 -7.98 105 -9 105 C-9.66 106.32 -10.32 107.64 -11 109 C-12.03159626 105.90521121 -11.97482862 104.47368607 -11.5625 101.3125 C-11.46066406 100.50425781 -11.35882813 99.69601563 -11.25390625 98.86328125 C-11.17011719 98.24839844 -11.08632812 97.63351563 -11 97 C-9.02 96.505 -9.02 96.505 -7 96 C-7.15847412 95.05141113 -7.31694824 94.10282227 -7.48022461 93.12548828 C-8.14856146 88.42261704 -8.22872636 83.73588378 -8.31640625 78.9921875 C-8.33718735 78.03087921 -8.35796844 77.06957092 -8.37937927 76.07913208 C-8.42249699 74.04351907 -8.46355617 72.00786155 -8.50268555 69.97216797 C-8.56137706 66.93314519 -8.62678069 63.8943278 -8.69335938 60.85546875 C-8.79903445 55.89030705 -8.88183229 50.9251202 -8.95294189 45.95935059 C-8.98460556 43.96811243 -9.02260196 41.97696596 -9.06658936 39.98596191 C-9.1301995 37.09745898 -9.17452859 34.20922214 -9.21484375 31.3203125 C-9.23833389 30.45284393 -9.26182404 29.58537537 -9.286026 28.69161987 C-9.33040538 23.82311409 -8.88831634 21.08984455 -6 17 C-6 16.01 -6 15.02 -6 14 C-8.475 13.01 -8.475 13.01 -11 12 C-11 11.34 -11 10.68 -11 10 C-10.0925 9.608125 -9.185 9.21625 -8.25 8.8125 C-4.26844818 6.59201918 -2.03069992 4.06139984 0 0 Z " fill="#F2EDEC" transform="translate(261,59)"/>
<path d="M0 0 C0.99 0.495 0.99 0.495 2 1 C-0.92634619 4.90179492 -3.960011 7.87136451 -7.8125 10.875 C-16.36656564 17.55227811 -22.97654692 23.60361361 -25.875 34.3125 C-27.2829197 39.10370962 -28.88239506 42.65814827 -31.72265625 46.70703125 C-33.46289718 49.83094999 -34.36100703 53.15419653 -35.375 56.5625 C-37.35082729 62.98511385 -39.69197576 66.87769307 -45 71 C-47.6897951 73.30717032 -50.35039227 75.64681999 -53 78 C-53.98613281 78.87140625 -54.97226563 79.7428125 -55.98828125 80.640625 C-57.01485096 81.59177857 -58.03959943 82.54490163 -59.0625 83.5 C-60.02285156 84.3765625 -60.98320313 85.253125 -61.97265625 86.15625 C-64.37446933 88.91478978 -64.37446933 88.91478978 -63.87109375 92.65625 C-63.31530319 94.78968821 -62.69717012 96.90848964 -62 99 C-61.5851592 103.19779385 -61.60400537 105.35185494 -63.828125 108.9921875 C-64.62734375 109.94351563 -65.4265625 110.89484375 -66.25 111.875 C-70.11741946 116.73811301 -72.94298994 121.14894916 -75 127 C-75.391875 128.093125 -75.78375 129.18625 -76.1875 130.3125 C-77.09093358 133.84138591 -77.09093358 133.84138591 -77.05859375 136.890625 C-77.2308764 145.11965509 -77.2308764 145.11965509 -79.59375 147.82421875 C-80.97120156 148.79108379 -82.3796714 149.71493149 -83.8125 150.59765625 C-89.22104743 154.06492148 -92.75216821 159.28850195 -95.6796875 164.90234375 C-98.01900868 169.2688586 -100.4912335 173.52848864 -103.09375 177.7421875 C-103.45181732 178.32360001 -103.80988464 178.90501251 -104.17880249 179.50404358 C-105.65208286 181.89273705 -107.1284953 184.27938725 -108.61376953 186.66064453 C-119.36480407 202.299194 -119.36480407 202.299194 -122 220 C-120.70569854 221.35901653 -119.40979121 222.71671227 -118.09375 224.0546875 C-116.45596474 226.96760557 -116.85724931 229.44532149 -117 232.75 C-117.362129 242.55852273 -113.49205157 248.95148687 -107 256 C-108.67299959 255.34938905 -110.33859237 254.67966676 -112 254 C-112.66 253.74476563 -113.32 253.48953125 -114 253.2265625 C-118.23074644 250.63192503 -119.67203874 245.57711239 -121 241 C-121.14197953 237.33613938 -121.0028429 233.75136122 -120.83984375 230.08984375 C-121.00936196 226.81938261 -121.26983031 225.9552109 -123.5625 223.75 C-126.16455023 220.81435359 -126.45532969 220.3888449 -126.375 216.6875 C-124.26273288 203.78346816 -114.62303565 191.57504548 -107.81298828 180.7578125 C-104.39750406 175.32349558 -101.18977783 169.82580656 -98.125 164.1875 C-94.43582928 157.47607578 -90.79425562 151.03756763 -83.88671875 147.328125 C-80.3829767 144.50237363 -80.20402592 143.14279751 -79.71191406 138.85693359 C-79.64198242 138.07914551 -79.57205078 137.30135742 -79.5 136.5 C-78.19546593 126.38274902 -75.3479964 118.28406105 -68.125 110.8125 C-65.44208629 107.96967753 -64.52164338 106.24782126 -64.4375 102.3125 C-64.70860152 98.87658287 -65.67602973 96.17752864 -67 93 C-66.17374359 83.08492309 -54.06202856 75.05156342 -47 69 C-45.97390625 68.26007813 -44.9478125 67.52015625 -43.890625 66.7578125 C-40.28264665 63.31560613 -39.31177711 60.37160534 -37.9375 55.6875 C-36.19568701 50.25049782 -34.46665183 45.64788901 -31.15234375 40.95703125 C-29.13721015 37.53471961 -28.18303447 33.72814742 -27.08984375 29.9296875 C-24.81528871 23.81529223 -20.75444607 19.42452631 -16.1875 14.9375 C-15.65777588 14.41091797 -15.12805176 13.88433594 -14.58227539 13.34179688 C-10.95347936 9.78895884 -7.19980615 6.85944249 -3 4 C-1.11696038 1.85823993 -1.11696038 1.85823993 0 0 Z " fill="#6D2522" transform="translate(126,227)"/>
<path d="M0 0 C1.52515993 2.77209703 2.31961021 5.07680639 2.7109375 8.2109375 C2.81954102 9.03343994 2.92814453 9.85594238 3.04003906 10.70336914 C3.15057617 11.58500732 3.26111328 12.46664551 3.375 13.375 C4.55174682 22.27983543 6.04925133 31.08353567 7.81787109 39.89013672 C8.07044678 41.19942139 8.07044678 41.19942139 8.328125 42.53515625 C8.4818457 43.302229 8.63556641 44.06930176 8.79394531 44.85961914 C9.02050614 47.21300627 8.80155663 48.78163627 8 51 C7.34 51.66 6.68 52.32 6 53 C5.01 53 4.02 53 3 53 C3.33 51.35 3.66 49.7 4 48 C3.34 48 2.68 48 2 48 C1.67 47.34 1.34 46.68 1 46 C-1.08611558 45.349461 -1.08611558 45.349461 -3.5 44.9375 C-7.90606654 44.09393346 -7.90606654 44.09393346 -9 43 C-9.5896476 34.99763965 -7.73817745 28.05623231 -5.625 20.375 C-5.30789062 19.18648437 -4.99078125 17.99796875 -4.6640625 16.7734375 C-3.16235178 11.16705081 -1.61821932 5.57386654 0 0 Z " fill="#FBF9F9" transform="translate(131,171)"/>
<path d="M0 0 C0.66 0 1.32 0 2 0 C1.48237111 2.8469589 0.83871059 5.49335583 -0.0625 8.25 C-1.43909866 13.75639464 -1.890202 18.626128 0.125 24 C2.59190181 26.63136193 4.47221403 26.76481427 8 27 C7.53176998 33.16273338 6.12121836 37.62090786 3.25 43.0625 C2.91484375 43.73087891 2.5796875 44.39925781 2.234375 45.08789062 C-0.13645652 49.70831795 -2.84451331 53.87318152 -6 58 C-6.33 58 -6.66 58 -7 58 C-7.01981934 57.39639648 -7.03963867 56.79279297 -7.06005859 56.17089844 C-7.15691781 53.36358669 -7.26592503 50.55686268 -7.375 47.75 C-7.42140625 46.326875 -7.42140625 46.326875 -7.46875 44.875 C-7.67658319 39.74844787 -8.18792418 35.06532819 -9.34375 30.0625 C-10.63100297 22.86372225 -8.1710398 17.69201629 -5.125 11.25 C-4.39603516 9.61417969 -4.39603516 9.61417969 -3.65234375 7.9453125 C-2.46146867 5.28335643 -1.24440555 2.63724406 0 0 Z " fill="#FCFBFB" transform="translate(160,149)"/>
<path d="M0 0 C3.125 0.3125 3.125 0.3125 5 2.125 C6.125 4.3125 6.125 4.3125 6.125 7.3125 C7.41603643 8.6868291 8.7506709 10.02146357 10.125 11.3125 C10.455 11.9725 10.785 12.6325 11.125 13.3125 C11.723125 12.6525 12.32125 11.9925 12.9375 11.3125 C15.125 9.3125 15.125 9.3125 18.125 9.3125 C18.125 11.9525 18.125 14.5925 18.125 17.3125 C19.115 16.9825 20.105 16.6525 21.125 16.3125 C23.00143761 18.18893761 22.30484987 20.81055701 22.35546875 23.3046875 C22.125 25.3125 22.125 25.3125 20.125 28.3125 C18.805 27.6525 17.485 26.9925 16.125 26.3125 C16.455 25.6525 16.785 24.9925 17.125 24.3125 C16.135 23.9825 15.145 23.6525 14.125 23.3125 C14.785 22.9825 15.445 22.6525 16.125 22.3125 C14.67745745 20.86495745 13.08537087 20.75516439 11.125 20.3125 C11.125 18.9925 11.125 17.6725 11.125 16.3125 C9.805 16.6425 8.485 16.9725 7.125 17.3125 C7.125 18.9625 7.125 20.6125 7.125 22.3125 C7.785 22.3125 8.445 22.3125 9.125 22.3125 C8.856875 22.869375 8.58875 23.42625 8.3125 24 C7.83901894 26.57833282 7.83901894 26.57833282 10.25 29 C13.21828709 31.38753527 14.39359751 32.13481417 18.125 32.3125 C20.46665499 32.04378549 22.80384289 31.72211596 25.125 31.3125 C25.875 33.0625 25.875 33.0625 26.125 35.3125 C24.140625 37.453125 24.140625 37.453125 22.125 39.3125 C21.44953125 38.90257812 20.7740625 38.49265625 20.078125 38.0703125 C19.18609375 37.53148437 18.2940625 36.99265625 17.375 36.4375 C16.49328125 35.90382812 15.6115625 35.37015625 14.703125 34.8203125 C12.21458965 33.31429144 12.21458965 33.31429144 9.859375 32.2421875 C8.125 31.3125 8.125 31.3125 7.125 29.3125 C6.465 29.9725 5.805 30.6325 5.125 31.3125 C5.125 26.6925 5.125 22.0725 5.125 17.3125 C4.465 18.6325 3.805 19.9525 3.125 21.3125 C2.980625 20.075 2.83625 18.8375 2.6875 17.5625 C2.33811498 14.74745501 1.92120634 12.0423503 1.125 9.3125 C0.135 9.3125 -0.855 9.3125 -1.875 9.3125 C-2.535 10.6325 -3.195 11.9525 -3.875 13.3125 C-4.89436725 10.25439824 -4.87686825 8.81448793 -4.5 5.6875 C-4.40976563 4.89085937 -4.31953125 4.09421875 -4.2265625 3.2734375 C-3.66683739 0.15141522 -3.25983931 0.35433036 0 0 Z " fill="#ECE4E2" transform="translate(253.875,154.6875)"/>
<path d="M0 0 C1.98 0 3.96 0 6 0 C5.01 0.33 4.02 0.66 3 1 C3.99 3.64 4.98 6.28 6 9 C6.66 8.67 7.32 8.34 8 8 C7.67 13.28 7.34 18.56 7 24 C2.38 24 -2.24 24 -7 24 C-7.33 23.34 -7.66 22.68 -8 22 C-8.99 21.67 -9.98 21.34 -11 21 C-10 18 -10 18 -7 16 C-4.3125 15.875 -4.3125 15.875 -2 16 C-3.32 15.34 -4.64 14.68 -6 14 C-6.17942163 10.05272412 -6.09350689 7.4019487 -4 4 C-3.34 4 -2.68 4 -2 4 C-1.34 2.68 -0.68 1.36 0 0 Z " fill="#E8DEDD" transform="translate(252,163)"/>
<path d="M0 0 C0 3.96872101 -1.46041996 5.88443518 -3.4609375 9.30859375 C-3.82053558 9.92649277 -4.18013367 10.54439178 -4.55062866 11.18101501 C-8.81611764 18.47065664 -13.25688113 25.65779192 -17.72363281 32.82543945 C-28.40663575 48.36667633 -28.40663575 48.36667633 -31 66 C-29.70569854 67.35901653 -28.40979121 68.71671227 -27.09375 70.0546875 C-25.45596474 72.96760557 -25.85724931 75.44532149 -26 78.75 C-26.362129 88.55852273 -22.49205157 94.95148687 -16 102 C-17.67299959 101.34938905 -19.33859237 100.67966676 -21 100 C-21.99 99.61714844 -21.99 99.61714844 -23 99.2265625 C-27.23074644 96.63192503 -28.67203874 91.57711239 -30 87 C-30.14197953 83.33613938 -30.0028429 79.75136122 -29.83984375 76.08984375 C-30.00936196 72.81938261 -30.26983031 71.9552109 -32.5625 69.75 C-35.16455023 66.81435359 -35.45532969 66.3888449 -35.375 62.6875 C-33.26296709 49.78489892 -23.62557198 37.58815862 -16.82177734 26.76879883 C-12.93735968 20.5829066 -9.26696904 14.31528314 -5.80273438 7.88452148 C-4.15650518 4.8663004 -2.63808643 2.24483131 0 0 Z " fill="#6E2623" transform="translate(35,381)"/>
<path d="M0 0 C0.33 0.99 0.66 1.98 1 3 C1.99 2.67 2.98 2.34 4 2 C4 2.66 4 3.32 4 4 C4.66 4 5.32 4 6 4 C6 4.99 6 5.98 6 7 C7.423125 6.9690625 7.423125 6.9690625 8.875 6.9375 C12 7 12 7 14 8 C13.45276317 11.37462715 12.9451 13.08235 11 16 C10.67 15.34 10.34 14.68 10 14 C9.01 14.495 9.01 14.495 8 15 C8.4640625 16.36125 8.4640625 16.36125 8.9375 17.75 C11.18604651 24.62790698 11.18604651 24.62790698 10 27 C8.35 27 6.7 27 5 27 C4.67 27.99 4.34 28.98 4 30 C2.84058962 26.52176885 3.29179116 24.54104422 4 21 C3.01 20.67 2.02 20.34 1 20 C1 17.66666667 1 15.33333333 1 13 C-4.94 12.01 -4.94 12.01 -11 11 C-11 10.67 -11 10.34 -11 10 C-8.36 10 -5.72 10 -3 10 C-3.2475 9.278125 -3.495 8.55625 -3.75 7.8125 C-4 5 -4 5 -2.0625 2.1875 C-1.381875 1.465625 -0.70125 0.74375 0 0 Z " fill="#A9817E" transform="translate(227,178)"/>
<path d="M0 0 C0.33 0 0.66 0 1 0 C1.2475 0.969375 1.495 1.93875 1.75 2.9375 C2.1625 3.948125 2.575 4.95875 3 6 C5.03243548 6.96877057 5.03243548 6.96877057 7 7 C7.33 6.01 7.66 5.02 8 4 C9.98 4 11.96 4 14 4 C14.33 4.66 14.66 5.32 15 6 C15.33 4.35 15.66 2.7 16 1 C16.33 1 16.66 1 17 1 C17.35786644 6.96444059 16.95922198 10.67340043 14 16 C13.29241674 19.2366963 13.29241674 19.2366963 13 22 C13.639375 22.12375 14.27875 22.2475 14.9375 22.375 C15.9584375 22.684375 15.9584375 22.684375 17 23 C17.33 23.66 17.66 24.32 18 25 C17.113125 24.9175 16.22625 24.835 15.3125 24.75 C11.30991841 25.05208163 9.87164566 26.29727467 7 29 C7 26 7 26 8 25 C6.02 24.67 4.04 24.34 2 24 C2.33 23.34 2.66 22.68 3 22 C3.99 22 4.98 22 6 22 C6.21081851 18.10540926 6.21081851 18.10540926 5 15 C2.98491642 14.26676204 2.98491642 14.26676204 1 14 C1.33 13.01 1.66 12.02 2 11 C1.16396226 8.55160376 0.15569573 6.31139145 -1 4 C-0.5625 1.875 -0.5625 1.875 0 0 Z " fill="#9A6863" transform="translate(233,155)"/>
<path d="M0 0 C11.32740617 8.44156786 19.78141472 23.35319843 23 37 C23.43313989 41.03857196 23.39706258 44.62717726 22.265625 48.5390625 C21.70551371 51.04341391 21.70551371 51.04341391 23.37109375 52.74609375 C24.05300781 53.30425781 24.73492187 53.86242187 25.4375 54.4375 C38.22801903 66.33357714 44.71712281 85.92005155 46 103 C46.05083925 108.36410612 45.59502011 113.67349469 45 119 C44.67 119 44.34 119 44 119 C43.97421875 117.741875 43.9484375 116.48375 43.921875 115.1875 C43.33387634 95.10083436 39.24904974 70.84675065 24.0703125 56.12890625 C22.42550262 54.69878039 20.71862023 53.34052378 19 52 C19.165 51.38125 19.33 50.7625 19.5 50.125 C21.67805579 36.51215133 17.42167332 26.2998018 10 15 C7.75893536 11.91853612 5.40557114 8.95337446 3 6 C0 2.25688073 0 2.25688073 0 0 Z " fill="#75302D" transform="translate(299,337)"/>
<path d="M0 0 C1.32 0.66 2.64 1.32 4 2 C3.34 3.98 2.68 5.96 2 8 C3.32 8.33 4.64 8.66 6 9 C5.67 11.31 5.34 13.62 5 16 C5.61875 15.649375 6.2375 15.29875 6.875 14.9375 C7.926875 14.4734375 7.926875 14.4734375 9 14 C9.66 14.33 10.32 14.66 11 15 C11.33 14.34 11.66 13.68 12 13 C12 16.3 12 19.6 12 23 C10.576875 22.938125 10.576875 22.938125 9.125 22.875 C5.89755144 22.65026182 5.89755144 22.65026182 4 25 C1.875 24.625 1.875 24.625 0 24 C0.33 22.02 0.66 20.04 1 18 C-0.32 18 -1.64 18 -3 18 C-2.34 15.36 -1.68 12.72 -1 10 C-1.99 10 -2.98 10 -4 10 C-3.38461538 3.47692308 -3.38461538 3.47692308 -1.4375 1.0625 C-0.7259375 0.5365625 -0.7259375 0.5365625 0 0 Z " fill="#F3EFEE" transform="translate(226,190)"/>
<path d="M0 0 C1.9375 0.8125 1.9375 0.8125 4 2 C4.33 2.99 4.66 3.98 5 5 C5.66 4.67 6.32 4.34 7 4 C7 6.31 7 8.62 7 11 C8.65 11 10.3 11 12 11 C12 11.99 12 12.98 12 14 C11.01 14 10.02 14 9 14 C9.04125 14.78375 9.0825 15.5675 9.125 16.375 C9 19 9 19 7 21 C7 21.99 7 22.98 7 24 C4.00675737 22.9024777 3.15389099 22.32317108 1.75 19.375 C1.5025 18.59125 1.255 17.8075 1 17 C0.34 17.66 -0.32 18.32 -1 19 C-1.33 17.35 -1.66 15.7 -2 14 C-2.99 13.67 -3.98 13.34 -5 13 C-5 12.01 -5 11.02 -5 10 C-4.34 9.67 -3.68 9.34 -3 9 C-3.33 7.68 -3.66 6.36 -4 5 C-2.68 5 -1.36 5 0 5 C0 3.35 0 1.7 0 0 Z " fill="#6D2421" transform="translate(169,30)"/>
<path d="M0 0 C0.721875 0.185625 1.44375 0.37125 2.1875 0.5625 C5.12826973 1.01995307 7.14103058 0.73516357 10 0 C10.59732819 2.76264289 11 5.16032769 11 8 C11.33 8.99 11.66 9.98 12 11 C8.625 10.6875 8.625 10.6875 5 10 C4.34 9.01 3.68 8.02 3 7 C2.01 7.33 1.02 7.66 0 8 C0 8.66 0 9.32 0 10 C0.99 9.67 1.98 9.34 3 9 C4.32 10.32 5.64 11.64 7 13 C6.67 13.99 6.34 14.98 6 16 C4.35 16.33 2.7 16.66 1 17 C0.67 15.68 0.34 14.36 0 13 C0 13.99 0 14.98 0 16 C-2.875 16.625 -2.875 16.625 -6 17 C-6.66 16.34 -7.32 15.68 -8 15 C-7.67028521 11.70285207 -7.3773161 10.3773161 -5 8 C-4.67 8.33 -4.34 8.66 -4 9 C-3.67 7.02 -3.34 5.04 -3 3 C-2.01 2.67 -1.02 2.34 0 2 C0 1.34 0 0.68 0 0 Z " fill="#AD8581" transform="translate(262,200)"/>
<path d="M0 0 C0.53625 0.680625 1.0725 1.36125 1.625 2.0625 C3.44090148 4.30848341 5.26588366 6.54002101 7.125 8.75 C7.62257812 9.34296875 8.12015625 9.9359375 8.6328125 10.546875 C9.9579498 12.12271444 9.9579498 12.12271444 12 13 C12 13.66 12 14.32 12 15 C11.401875 15.268125 10.80375 15.53625 10.1875 15.8125 C8.00203449 16.86479911 8.00203449 16.86479911 6.59375 18.40625 C4.93950878 20.06049122 3.22878873 21.34971352 1.3125 22.6875 C0.37857422 23.34298828 0.37857422 23.34298828 -0.57421875 24.01171875 C-1.27998047 24.50091797 -1.27998047 24.50091797 -2 25 C-2.05834353 21.77090994 -2.09371115 18.54195662 -2.125 15.3125 C-2.14175781 14.40048828 -2.15851563 13.48847656 -2.17578125 12.54882812 C-2.20936169 7.93151773 -2.23556185 4.18067669 0 0 Z " fill="#F4EFEF" transform="translate(232,56)"/>
<path d="M0 0 C1.20220203 3.53094302 0.79532349 6.12898982 0.0625 9.75 C-0.13214844 10.73484375 -0.32679688 11.7196875 -0.52734375 12.734375 C-0.68332031 13.48203125 -0.83929688 14.2296875 -1 15 C-1.66 15 -2.32 15 -3 15 C-3.96287814 18.3111957 -4.91944917 21.62418304 -5.875 24.9375 C-6.14441406 25.86369141 -6.41382812 26.78988281 -6.69140625 27.74414062 C-10.07165498 38.71699677 -10.07165498 38.71699677 -11.125 50.0625 C-11.08375 51.361875 -11.0425 52.66125 -11 54 C-10.36191406 54.10957031 -9.72382812 54.21914062 -9.06640625 54.33203125 C-7.82697266 54.56986328 -7.82697266 54.56986328 -6.5625 54.8125 C-5.73878906 54.96332031 -4.91507813 55.11414063 -4.06640625 55.26953125 C-3.38449219 55.51058594 -2.70257813 55.75164062 -2 56 C-1.67 56.99 -1.34 57.98 -1 59 C-0.34 59 0.32 59 1 59 C0.34 60.98 -0.32 62.96 -1 65 C-2.32 64.67 -3.64 64.34 -5 64 C-4.01 64 -3.02 64 -2 64 C-2.33 62.35 -2.66 60.7 -3 59 C-3.62648437 58.81824219 -4.25296875 58.63648438 -4.8984375 58.44921875 C-6.12433594 58.07216797 -6.12433594 58.07216797 -7.375 57.6875 C-8.18710938 57.44386719 -8.99921875 57.20023438 -9.8359375 56.94921875 C-12 56 -12 56 -14 53 C-14.61340306 46.65873866 -12.96742448 40.92021526 -11.375 34.8125 C-11.10864746 33.76835937 -10.84229492 32.72421875 -10.56787109 31.6484375 C-7.98995658 21.68110544 -5.06546354 11.82687603 -2 2 C-1.34 2 -0.68 2 0 2 C0 1.34 0 0.68 0 0 Z " fill="#783532" transform="translate(134,160)"/>
<path d="M0 0 C1.08216797 0.1340625 2.16433594 0.268125 3.27929688 0.40625 C4.97602539 0.62667969 4.97602539 0.62667969 6.70703125 0.8515625 C8.37475586 1.06039062 8.37475586 1.06039062 10.07617188 1.2734375 C13.22473314 1.6686388 16.37215819 2.07202653 19.51953125 2.4765625 C22.18593259 2.81206662 24.85270733 3.14443058 27.51953125 3.4765625 C28.01453125 4.9615625 28.01453125 4.9615625 28.51953125 6.4765625 C19.69940873 7.58575973 11.51154346 7.52764449 2.70703125 6.2890625 C1.82950195 6.1758667 0.95197266 6.0626709 0.04785156 5.94604492 C-0.77231445 5.81818604 -1.59248047 5.69032715 -2.4375 5.55859375 C-3.5354187 5.39194214 -3.5354187 5.39194214 -4.65551758 5.22192383 C-6.48046875 4.4765625 -6.48046875 4.4765625 -7.7331543 2.40893555 C-8.10307495 1.45241089 -8.10307495 1.45241089 -8.48046875 0.4765625 C-5.15787797 -0.63096776 -3.44117379 -0.43703727 0 0 Z " fill="#631412" transform="translate(145.48046875,522.5234375)"/>
<path d="M0 0 C0.33 0 0.66 0 1 0 C1.33 1.65 1.66 3.3 2 5 C2 4.67 2 4.34 2 4 C2.32380126 2.66431979 2.65657551 1.33076989 3 0 C3.70125 0.804375 4.4025 1.60875 5.125 2.4375 C8.26291593 5.23433811 9.88758763 5.71308751 14 6 C13.67 8.31 13.34 10.62 13 13 C10.33333333 13 7.66666667 13 5 13 C4.01 13.33 3.02 13.66 2 14 C2 13.34 2 12.68 2 12 C0.68 12 -0.64 12 -2 12 C-1.44687265 7.97007218 -0.8441938 3.97977076 0 0 Z " fill="#EAE1DF" transform="translate(241,198)"/>
<path d="M0 0 C0.66 0.33 1.32 0.66 2 1 C3.53668865 1.22467831 5.07968054 1.40796805 6.625 1.5625 C7.44226563 1.64628906 8.25953125 1.73007813 9.1015625 1.81640625 C9.72804688 1.87699219 10.35453125 1.93757812 11 2 C11 2.66 11 3.32 11 4 C11.99 4 12.98 4 14 4 C14 5.32 14 6.64 14 8 C6.25 9.125 6.25 9.125 4 8 C4 7.34 4 6.68 4 6 C3.34 6 2.68 6 2 6 C2.66 7.65 3.32 9.3 4 11 C1 12 1 12 -2 11 C-2.33 11.99 -2.66 12.98 -3 14 C-3.66 14 -4.32 14 -5 14 C-5.57040341 9.15157102 -3.77088151 6.86244089 -1 3 C-0.67 2.01 -0.34 1.02 0 0 Z " fill="#F9F7F6" transform="translate(258,189)"/>
<path d="M0 0 C0 2.64 0 5.28 0 8 C0.99 7.67 1.98 7.34 3 7 C4.87643761 8.87643761 4.17984987 11.49805701 4.23046875 13.9921875 C4 16 4 16 2 19 C0.68 18.34 -0.64 17.68 -2 17 C-1.67 16.34 -1.34 15.68 -1 15 C-1.99 14.67 -2.98 14.34 -4 14 C-3.34 13.67 -2.68 13.34 -2 13 C-3.44754255 11.55245745 -5.03962913 11.44266439 -7 11 C-7.8125 8.875 -7.8125 8.875 -8 6 C-6.01654547 2.48574653 -4.26162808 0 0 0 Z " fill="#E9E0DE" transform="translate(272,164)"/>
<path d="M0 0 C0.85980469 0.47050781 1.71960938 0.94101562 2.60546875 1.42578125 C12.70863934 6.80357726 22.59726599 9.6741007 34 11 C30.75711836 14.24288164 26.89062022 13.8219752 22.45703125 14.0859375 C14.20782165 13.8808724 8.4718017 10.08217095 2.49609375 4.68359375 C1 3 1 3 0 0 Z " fill="#611110" transform="translate(12,479)"/>
<path d="M0 0 C0.33 0.99 0.66 1.98 1 3 C1.99 2.67 2.98 2.34 4 2 C4 2.66 4 3.32 4 4 C4.66 4 5.32 4 6 4 C6.19573608 5.43640171 6.38127816 6.87419504 6.5625 8.3125 C6.66691406 9.11300781 6.77132812 9.91351563 6.87890625 10.73828125 C7 13 7 13 6 16 C3.9375 16.6875 3.9375 16.6875 2 17 C1.67 15.68 1.34 14.36 1 13 C-4.94 12.01 -4.94 12.01 -11 11 C-11 10.67 -11 10.34 -11 10 C-8.36 10 -5.72 10 -3 10 C-3.2475 9.278125 -3.495 8.55625 -3.75 7.8125 C-4 5 -4 5 -2.0625 2.1875 C-1.381875 1.465625 -0.70125 0.74375 0 0 Z " fill="#793532" transform="translate(227,178)"/>
<path d="M0 0 C0.66 0.33 1.32 0.66 2 1 C0 4 0 4 -3 5 C-0.69 5.33 1.62 5.66 4 6 C3.01 7.32 2.02 8.64 1 10 C1.33 10.66 1.66 11.32 2 12 C-0.64 12 -3.28 12 -6 12 C-6 11.01 -6 10.02 -6 9 C-7.65 8.67 -9.3 8.34 -11 8 C-11 7.01 -11 6.02 -11 5 C-11.66 5 -12.32 5 -13 5 C-13 3.68 -13 2.36 -13 1 C-9.94194999 0.92888256 -7.24211001 0.944975 -4.25 1.625 C-3.13625 1.810625 -3.13625 1.810625 -2 2 C-1.34 1.34 -0.68 0.68 0 0 Z " fill="#F5F1F0" transform="translate(239,173)"/>
<path d="M0 0 C0.65376114 0.00809692 1.30752228 0.01619385 1.98109436 0.02453613 C4.09074103 0.05537878 6.19938957 0.1034043 8.30859375 0.15625 C9.35427521 0.18090332 9.35427521 0.18090332 10.42108154 0.20605469 C15.36378758 0.3273165 20.30480707 0.48779062 25.24609375 0.65625 C26.71939371 0.70465077 28.19270101 0.7528288 29.66601562 0.80078125 C33.21362945 0.91671817 36.76113615 1.03561655 40.30859375 1.15625 C40.30859375 1.48625 40.30859375 1.81625 40.30859375 2.15625 C23.97359375 2.65125 23.97359375 2.65125 7.30859375 3.15625 C7.30859375 3.48625 7.30859375 3.81625 7.30859375 4.15625 C5.05885928 4.210388 2.80874992 4.24910491 0.55859375 4.28125 C-0.694375 4.30445313 -1.94734375 4.32765625 -3.23828125 4.3515625 C-6.41961117 4.17162302 -8.05662521 3.84623582 -10.69140625 2.15625 C-7.10099021 -0.09143135 -4.18136453 -0.06551473 0 0 Z " fill="#5B0A09" transform="translate(176.69140625,526.84375)"/>
<path d="M0 0 C0.33 0 0.66 0 1 0 C0.94199219 0.89460938 0.88398438 1.78921875 0.82421875 2.7109375 C0.39157615 14.30575915 3.21099535 21.54336638 11 30 C9.32700041 29.34938905 7.66140763 28.67966676 6 28 C5.34128906 27.74734375 4.68257812 27.4946875 4.00390625 27.234375 C-0.21615107 24.6348855 -1.69270539 19.58116602 -3 15 C-3.11315976 10.90267353 -2.71067327 7.03183947 -2 3 C-1.34 3 -0.68 3 0 3 C0 2.01 0 1.02 0 0 Z " fill="#6A211E" transform="translate(8,453)"/>
<path d="M0 0 C2.01309711 5.54926112 -0.66520875 10.90103061 -3 16 C-5.03365208 18.75261999 -7.35914921 20.83881394 -10 23 C-11.29398437 24.12233338 -12.5855929 25.24741093 -13.875 26.375 C-14.86113281 27.22384766 -14.86113281 27.22384766 -15.8671875 28.08984375 C-19.74097708 31.55922673 -23.36212495 35.28633589 -27 39 C-27.66 38.34 -28.32 37.68 -29 37 C-23.48637704 31.24132713 -17.77121877 26.04250814 -11.48046875 21.140625 C-6.67661088 16.99493348 -4.50573459 13.35946684 -2.8125 7.25 C-1.074883 1.074883 -1.074883 1.074883 0 0 Z " fill="#6F2825" transform="translate(91,275)"/>
<path d="M0 0 C0.33 0 0.66 0 1 0 C1.35786644 5.96444059 0.95922198 9.67340043 -2 15 C-2.70758326 18.2366963 -2.70758326 18.2366963 -3 21 C-2.360625 21.12375 -1.72125 21.2475 -1.0625 21.375 C-0.381875 21.58125 0.29875 21.7875 1 22 C1.33 22.66 1.66 23.32 2 24 C1.113125 23.9175 0.22625 23.835 -0.6875 23.75 C-4.69008159 24.05208163 -6.12835434 25.29727467 -9 28 C-9 25 -9 25 -8 24 C-9.98 23.67 -11.96 23.34 -14 23 C-13.67 22.34 -13.34 21.68 -13 21 C-12.01 21 -11.02 21 -10 21 C-9.67 20.01 -9.34 19.02 -9 18 C-7.68 18 -6.36 18 -5 18 C-4.896875 17.46375 -4.79375 16.9275 -4.6875 16.375 C-4 14 -4 14 -2.5 11.25 C-0.7002028 7.35043941 -0.36721681 4.259715 0 0 Z " fill="#651917" transform="translate(249,156)"/>
<path d="M0 0 C0.103125 0.639375 0.20625 1.27875 0.3125 1.9375 C0.539375 2.618125 0.76625 3.29875 1 4 C1.99 4.33 2.98 4.66 4 5 C4.33 4.34 4.66 3.68 5 3 C5.79953138 6.28696233 6.09658936 7.71023192 5 11 C4.01 11 3.02 11 2 11 C1.67 12.32 1.34 13.64 1 15 C-0.65 13.35 -2.3 11.7 -4 10 C-3.34 9.67 -2.68 9.34 -2 9 C-2 8.01 -2 7.02 -2 6 C-2.66 6 -3.32 6 -4 6 C-4 4.35 -4 2.7 -4 1 C-2 0 -2 0 0 0 Z " fill="#A0716D" transform="translate(265,171)"/>
<path d="M0 0 C4.16138263 -0.08159574 7.9472484 0.01751476 12 1 C12 2.65 12 4.3 12 6 C11.01 6.495 11.01 6.495 10 7 C10 8.32 10 9.64 10 11 C8.68 11 7.36 11 6 11 C5.18697675 9.54195831 4.37459869 8.08355685 3.5625 6.625 C3.11003906 5.81289062 2.65757812 5.00078125 2.19140625 4.1640625 C1.4349464 2.79003378 0.70145369 1.40290739 0 0 Z " fill="#F7F4F3" transform="translate(242,191)"/>
<path d="M0 0 C0.33 0 0.66 0 1 0 C1.33 9.24 1.66 18.48 2 28 C-0.31 26.02 -2.62 24.04 -5 22 C-5.24609375 18.7890625 -5.24609375 18.7890625 -4.4375 15.625 C-4.18871094 14.56539063 -3.93992187 13.50578125 -3.68359375 12.4140625 C-3.45800781 11.61742187 -3.23242188 10.82078125 -3 10 C-2.67 10.66 -2.34 11.32 -2 12 C-1.34 12 -0.68 12 0 12 C0 8.04 0 4.08 0 0 Z " fill="#6F2725" transform="translate(297,310)"/>
<path d="M0 0 C0.66 0 1.32 0 2 0 C2.02696365 1.79158489 2.04637917 3.58328473 2.0625 5.375 C2.07410156 6.37273437 2.08570313 7.37046875 2.09765625 8.3984375 C2 11 2 11 1 13 C-0.32 13 -1.64 13 -3 13 C-2.67 14.65 -2.34 16.3 -2 18 C-3.98 19.32 -5.96 20.64 -8 22 C-5.92957946 14.39162534 -3.14169523 7.2271408 0 0 Z " fill="#F4F0EF" transform="translate(162,83)"/>
<path d="M0 0 C0.99 0.33 1.98 0.66 3 1 C2.67447917 3.01822917 2.34895833 5.03645833 2.0234375 7.0546875 C2.01570312 7.69664062 2.00796875 8.33859375 2 9 C2.66 9.66 3.32 10.32 4 11 C4 12.32 4 13.64 4 15 C4.99 15.33 5.98 15.66 7 16 C4.38058783 17.74627478 2.96175123 18.38722388 0 19 C-2.59404778 15.18522385 -1.80534781 12.39280621 -1 8 C-0.80328258 6.52203094 -0.61566245 5.04282038 -0.4375 3.5625 C-0.293125 2.386875 -0.14875 1.21125 0 0 Z " fill="#F2EEED" transform="translate(231,151)"/>
<path d="M0 0 C0.33 0 0.66 0 1 0 C1.01981934 0.9286084 1.03963867 1.8572168 1.06005859 2.81396484 C1.13808613 6.2545052 1.22477462 9.69459891 1.31738281 13.13476562 C1.35569998 14.62458889 1.39054808 16.11450554 1.421875 17.60449219 C1.46746729 19.74448048 1.52546874 21.88382436 1.5859375 24.0234375 C1.6173584 25.31169434 1.6487793 26.59995117 1.68115234 27.92724609 C1.68458268 31.10481505 1.68458268 31.10481505 4 33 C3.34 33 2.68 33 2 33 C2 34.65 2 36.3 2 38 C-0.58732024 33.17033555 -1.12715101 29.28527307 -1.1328125 23.80859375 C-1.13410156 22.61685547 -1.13539063 21.42511719 -1.13671875 20.19726562 C-1.13285156 18.95654297 -1.12898437 17.71582031 -1.125 16.4375 C-1.12886719 15.19291016 -1.13273438 13.94832031 -1.13671875 12.66601562 C-1.13542969 11.47556641 -1.13414062 10.28511719 -1.1328125 9.05859375 C-1.13168457 7.96861084 -1.13055664 6.87862793 -1.12939453 5.75561523 C-1 3 -1 3 0 0 Z " fill="#702A27" transform="translate(215,172)"/>
<path d="M0 0 C0.33 0.99 0.66 1.98 1 3 C0.01 3.495 0.01 3.495 -1 4 C-1.66 3.67 -2.32 3.34 -3 3 C-2.79375 3.7425 -2.5875 4.485 -2.375 5.25 C-1.95591249 8.32330841 -2.38050989 9.42786866 -4 12 C-4.66 11.34 -5.32 10.68 -6 10 C-7.00217064 13.58327753 -7.00217064 13.58327753 -6 17 C-6.99 16.67 -7.98 16.34 -9 16 C-9 14.68 -9 13.36 -9 12 C-10.65 12 -12.3 12 -14 12 C-14 11.67 -14 11.34 -14 11 C-12.02 11 -10.04 11 -8 11 C-7.79029441 6.85906302 -7.79029441 6.85906302 -9 3 C-6.38997624 -0.48003168 -4.1689578 -0.27793052 0 0 Z " fill="#894E4A" transform="translate(262,200)"/>
<path d="M0 0 C4.29 0.33 8.58 0.66 13 1 C10.8515625 7.93359375 10.8515625 7.93359375 10 10 C9.01 10.495 9.01 10.495 8 11 C7.64808594 10.04867187 7.64808594 10.04867187 7.2890625 9.078125 C6.17709092 6.81749261 6.17709092 6.81749261 3.8359375 6.171875 C2.61777344 5.96304688 2.61777344 5.96304688 1.375 5.75 C0.55773437 5.60046875 -0.25953125 5.4509375 -1.1015625 5.296875 C-1.72804687 5.19890625 -2.35453125 5.1009375 -3 5 C-2.67 4.01 -2.34 3.02 -2 2 C-1.071875 2.350625 -0.14375 2.70125 0.8125 3.0625 C3.9802953 4.32382628 3.9802953 4.32382628 7 3 C4.69 2.34 2.38 1.68 0 1 C0 0.67 0 0.34 0 0 Z " fill="#722B28" transform="translate(246,186)"/>
<path d="M0 0 C2.10353495 -0.0810206 4.20795952 -0.13919907 6.3125 -0.1875 C7.48425781 -0.22230469 8.65601563 -0.25710938 9.86328125 -0.29296875 C13 0 13 0 14.91796875 1.51171875 C15.45357422 2.24841797 15.45357422 2.24841797 16 3 C15.01 3.495 15.01 3.495 14 4 C13.67 4.66 13.34 5.32 13 6 C12.29230469 5.83371094 11.58460937 5.66742188 10.85546875 5.49609375 C7.00714459 4.82750665 3.31692111 5.02852094 -0.57421875 5.16015625 C-3 5 -3 5 -5 3 C-1.7 2.67 1.6 2.34 5 2 C3.35 1.67 1.7 1.34 0 1 C0 0.67 0 0.34 0 0 Z " fill="#6A201E" transform="translate(39,489)"/>
<path d="M0 0 C0.99 0 1.98 0 3 0 C3.66 2.31 4.32 4.62 5 7 C5 6.34 5 5.68 5 5 C8 6 8 6 9.1875 8.0625 C9.455625 8.701875 9.72375 9.34125 10 10 C7.73538929 11.37494222 6.54345306 12.07991957 3.875 11.6875 C2 11 2 11 0 10 C0 6.7 0 3.4 0 0 Z " fill="#F0EBEA" transform="translate(176,31)"/>
<path d="M0 0 C3 1 3 1 4.875 4.0625 C5.24625 5.031875 5.6175 6.00125 6 7 C1.545 7.495 1.545 7.495 -3 8 C-3.33 7.34 -3.66 6.68 -4 6 C-4.99 5.67 -5.98 5.34 -7 5 C-5.64703851 0.94111554 -4.27479763 0 0 0 Z " fill="#FAF9F9" transform="translate(248,179)"/>
<path d="M0 0 C-0.62759865 2.92879371 -1.58622659 5.36095629 -3 8 C-4.65 7.67 -6.3 7.34 -8 7 C-8.33 6.01 -8.66 5.02 -9 4 C-11.01508358 3.26676204 -11.01508358 3.26676204 -13 3 C-13 2.34 -13 1.68 -13 1 C-11.20843648 0.83222817 -9.4167455 0.66581706 -7.625 0.5 C-6.62726563 0.4071875 -5.62953125 0.314375 -4.6015625 0.21875 C-2 0 -2 0 0 0 Z " fill="#B28C88" transform="translate(247,166)"/>
<path d="M0 0 C1.32 0 2.64 0 4 0 C4.59732819 2.76264289 5 5.16032769 5 8 C5.33 8.99 5.66 9.98 6 11 C3.69 10.67 1.38 10.34 -1 10 C-1.625 7.625 -1.625 7.625 -2 5 C-1.34 4.34 -0.68 3.68 0 3 C0 2.01 0 1.02 0 0 Z " fill="#F1ECEB" transform="translate(268,200)"/>
<path d="M0 0 C0.66 0 1.32 0 2 0 C2.02578125 0.60328125 2.0515625 1.2065625 2.078125 1.828125 C2.45429607 7.12871739 2.95859732 9.3497008 7 13 C7.25 15.75 7.25 15.75 7 18 C5 18 5 18 3.45703125 16.6015625 C0.89776319 13.52557761 -0.91883837 11.33256074 -1.16796875 7.2421875 C-0.90514084 4.7821183 -0.54382594 2.41260963 0 0 Z " fill="#5E0D0C" transform="translate(1,438)"/>
<path d="M0 0 C0.845625 0.185625 1.69125 0.37125 2.5625 0.5625 C6.2773282 1.03529632 9.32974273 0.66064631 13 0 C13.75 1.75 13.75 1.75 14 4 C12.015625 6.140625 12.015625 6.140625 10 8 C8.32819726 7.05065487 6.66266064 6.09026687 5 5.125 C4.071875 4.59132812 3.14375 4.05765625 2.1875 3.5078125 C1.465625 3.01023438 0.74375 2.51265625 0 2 C0 1.34 0 0.68 0 0 Z " fill="#F3EFEE" transform="translate(266,186)"/>
<path d="M0 0 C0.25 7.625 0.25 7.625 -2 11 C-3.32 10.67 -4.64 10.34 -6 10 C-6.75 7.8125 -6.75 7.8125 -7 5 C-3.88888889 0 -3.88888889 0 0 0 Z " fill="#FCFBFB" transform="translate(271,165)"/>
<path d="M0 0 C0 0.66 0 1.32 0 2 C-5.90571601 4.46071501 -9.33463199 5.15311256 -15.75 4.0625 C-16.92046875 3.86785156 -18.0909375 3.67320312 -19.296875 3.47265625 C-20.63492188 3.23869141 -20.63492188 3.23869141 -22 3 C-22 2.67 -22 2.34 -22 2 C-20.66195312 1.80083984 -20.66195312 1.80083984 -19.296875 1.59765625 C-18.12640625 1.42105469 -16.9559375 1.24445312 -15.75 1.0625 C-14.00976562 0.80146484 -14.00976562 0.80146484 -12.234375 0.53515625 C-9.14567117 0.07610375 -9.14567117 0.07610375 -6.75 -0.59375 C-4.32031898 -1.15778309 -2.38839906 -0.59709976 0 0 Z " fill="#712927" transform="translate(254,523)"/>
<path d="M0 0 C1.50433594 0.29197266 1.50433594 0.29197266 3.0390625 0.58984375 C4.19535156 0.82380859 4.19535156 0.82380859 5.375 1.0625 C5.375 2.0525 5.375 3.0425 5.375 4.0625 C-0.3182495 5.24859365 -4.05067486 4.72501802 -9.625 3.0625 C-8.965 2.7325 -8.305 2.4025 -7.625 2.0625 C-7.625 1.4025 -7.625 0.7425 -7.625 0.0625 C-4.81015955 -1.34492022 -3.05563887 -0.60402164 0 0 Z " fill="#691D1A" transform="translate(106.625,514.9375)"/>
<path d="M0 0 C0.66 0 1.32 0 2 0 C2.99 2.97 3.98 5.94 5 9 C4.34 9.66 3.68 10.32 3 11 C3 11.99 3 12.98 3 14 C-0.75283733 12.54728878 -0.75283733 12.54728878 -1.875 10.0625 C-2 8 -2 8 0 5 C0.16713569 2.37468476 0.16713569 2.37468476 0 0 Z " fill="#F0EAE9" transform="translate(173,40)"/>
<path d="M0 0 C0 0.99 0 1.98 0 3 C-0.99 3.66 -1.98 4.32 -3 5 C-2.67 5.99 -2.34 6.98 -2 8 C-4.91482778 8.80967438 -6.46113217 9.21845993 -9.3125 8.0625 C-9.869375 7.711875 -10.42625 7.36125 -11 7 C-11 6.34 -11 5.68 -11 5 C-9.35 4.67 -7.7 4.34 -6 4 C-6.33 3.01 -6.66 2.02 -7 1 C-4.53721199 -0.231394 -2.7204945 -0.07159196 0 0 Z " fill="#F7F4F4" transform="translate(169,32)"/>
<path d="M0 0 C0.80244141 0.09345703 1.60488281 0.18691406 2.43164062 0.28320312 C3.26501953 0.38697266 4.09839844 0.49074219 4.95703125 0.59765625 C5.80201172 0.69755859 6.64699219 0.79746094 7.51757812 0.90039062 C9.60227322 1.14772733 11.68600409 1.40316666 13.76953125 1.66015625 C13.76953125 1.99015625 13.76953125 2.32015625 13.76953125 2.66015625 C11.54102848 2.99789957 9.31169658 3.33017495 7.08203125 3.66015625 C5.21998047 3.93859375 5.21998047 3.93859375 3.3203125 4.22265625 C0.41066754 4.58116036 -2.30746897 4.74957881 -5.23046875 4.66015625 C-5.89046875 3.34015625 -6.55046875 2.02015625 -7.23046875 0.66015625 C-4.24715569 -0.33428144 -3.02208116 -0.3643644 0 0 Z " fill="#712927" transform="translate(144.23046875,522.33984375)"/>
<path d="M0 0 C1.04005702 3.38018531 1.08004482 6.4780279 1 10 C-1.31 9.34 -3.62 8.68 -6 8 C-5.67 6.02 -5.34 4.04 -5 2 C-4.01 1.67 -3.02 1.34 -2 1 C-1.34 1.33 -0.68 1.66 0 2 C0 1.34 0 0.68 0 0 Z " fill="#FBFAFA" transform="translate(237,203)"/>
<path d="M0 0 C0.66 0.99 1.32 1.98 2 3 C2.99 3 3.98 3 5 3 C5.33 4.65 5.66 6.3 6 8 C3.125 8.625 3.125 8.625 0 9 C-0.66 8.34 -1.32 7.68 -2 7 C-1.6730244 4.38419521 -1.17960932 2.35921863 0 0 Z " fill="#F2EDEC" transform="translate(256,208)"/>
<path d="M0 0 C-0.33 4.95 -0.66 9.9 -1 15 C-1.99 15 -2.98 15 -4 15 C-5.60685522 4.86982581 -5.60685522 4.86982581 -3.125 1.3125 C-1 0 -1 0 0 0 Z " fill="#631614" transform="translate(260,171)"/>
<path d="M0 0 C-0.33 0.99 -0.66 1.98 -1 3 C1.97 3.33 4.94 3.66 8 4 C7.01 5.485 7.01 5.485 6 7 C-0.875 6.125 -0.875 6.125 -2 5 C-2.33 5.66 -2.66 6.32 -3 7 C-3.99 6.67 -4.98 6.34 -6 6 C-5.67 4.68 -5.34 3.36 -5 2 C-5.66 1.67 -6.32 1.34 -7 1 C-4.53721199 -0.231394 -2.7204945 -0.07159196 0 0 Z " fill="#C2A5A1" transform="translate(246,184)"/>
<path d="M0 0 C4.29 0 8.58 0 13 0 C12.01 0.33 11.02 0.66 10 1 C9.67 1.99 9.34 2.98 9 4 C5.7 4 2.4 4 -1 4 C-0.67 2.68 -0.34 1.36 0 0 Z " fill="#5E0D0B" transform="translate(217,527)"/>
<path d="M0 0 C1.1725131 0.95117134 2.33787015 1.91117009 3.5 2.875 C4.47453125 3.67550781 4.47453125 3.67550781 5.46875 4.4921875 C5.9740625 4.98976563 6.479375 5.48734375 7 6 C7 6.66 7 7.32 7 8 C7.92039063 8.10634766 7.92039063 8.10634766 8.859375 8.21484375 C11 9 11 9 12.265625 11.06640625 C12.59046875 11.89011719 12.9153125 12.71382812 13.25 13.5625 C13.58515625 14.38878906 13.9203125 15.21507812 14.265625 16.06640625 C14.50796875 16.70449219 14.7503125 17.34257812 15 18 C14.34 18.33 13.68 18.66 13 19 C12.47212891 18.1646875 12.47212891 18.1646875 11.93359375 17.3125 C8.73490742 12.36831643 5.33945682 7.9351323 1.3203125 3.62890625 C0 2 0 2 0 0 Z " fill="#9D6C66" transform="translate(203,114)"/>
<path d="M0 0 C0.99 0.66 1.98 1.32 3 2 C2.01 2 1.02 2 0 2 C0 2.66 0 3.32 0 4 C1.98 4 3.96 4 6 4 C6 4.33 6 4.66 6 5 C3.70774565 4.88628503 1.41617612 4.75869036 -0.875 4.625 C-2.15117187 4.55539062 -3.42734375 4.48578125 -4.7421875 4.4140625 C-8 4 -8 4 -10 2 C-6.31282562 -0.45811625 -4.35654296 -0.31118164 0 0 Z " fill="#5F0F0D" transform="translate(137,521)"/>
<path d="M0 0 C0.90105469 0.02707031 1.80210937 0.05414063 2.73046875 0.08203125 C3.76107422 0.13423828 3.76107422 0.13423828 4.8125 0.1875 C5.1425 1.1775 5.4725 2.1675 5.8125 3.1875 C1.16851989 4.73549337 -3.51267708 4.68344333 -8.1875 3.1875 C-5.67753317 0.01043235 -3.96125134 -0.15433447 0 0 Z " fill="#5E0E0C" transform="translate(305.1875,496.8125)"/>
<path d="M0 0 C5.75 -0.125 5.75 -0.125 8 1 C7.45276317 4.37462715 6.9451 6.08235 5 9 C4.67 8.01 4.34 7.02 4 6 C3.34 5.67 2.68 5.34 2 5 C2 4.34 2 3.68 2 3 C1.34 3 0.68 3 0 3 C0 2.01 0 1.02 0 0 Z " fill="#641614" transform="translate(233,185)"/>
<path d="M0 0 C0.33 0 0.66 0 1 0 C1.9173273 3.91882221 2.16438768 7.60345677 2.1875 11.625 C2.20167969 12.75164062 2.21585937 13.87828125 2.23046875 15.0390625 C2 18 2 18 0 21 C-1.19600901 16.50832172 -0.9185704 12.26730207 -0.5625 7.6875 C-0.51029297 6.94693359 -0.45808594 6.20636719 -0.40429688 5.44335938 C-0.27549848 3.62847291 -0.13856738 1.81416675 0 0 Z " fill="#611311" transform="translate(344,440)"/>
<path d="M0 0 C1.32 0.33 2.64 0.66 4 1 C3.67 3.31 3.34 5.62 3 8 C1.02 8 -0.96 8 -3 8 C-3 7.34 -3 6.68 -3 6 C-2.34 6 -1.68 6 -1 6 C-1.33 5.01 -1.66 4.02 -2 3 C-1.34 2.01 -0.68 1.02 0 0 Z " fill="#F7F4F3" transform="translate(251,203)"/>
<path d="M0 0 C0.66 0 1.32 0 2 0 C2 0.66 2 1.32 2 2 C5.3 2 8.6 2 12 2 C12 2.99 12 3.98 12 5 C9.69 5.66 7.38 6.32 5 7 C3.29115995 5.37660195 1.62553283 3.70680947 0 2 C0 1.34 0 0.68 0 0 Z " fill="#7B3A37" transform="translate(260,195)"/>
<path d="M0 0 C0.99 0 1.98 0 3 0 C3 0.99 3 1.98 3 3 C4.65 2.67 6.3 2.34 8 2 C8.99 3.485 8.99 3.485 10 5 C9.113125 4.9175 8.22625 4.835 7.3125 4.75 C3.30991841 5.05208163 1.87164566 6.29727467 -1 9 C-1 6 -1 6 0 5 C-2.97 4.505 -2.97 4.505 -6 4 C-4 2 -4 2 -1 1 C-0.67 0.67 -0.34 0.34 0 0 Z " fill="#8C524E" transform="translate(241,175)"/>
<path d="M0 0 C1.65 0 3.3 0 5 0 C4.67 1.98 4.34 3.96 4 6 C2.35 6 0.7 6 -1 6 C-1.33 6.99 -1.66 7.98 -2 9 C-3 6 -3 6 -1.5625 2.8125 C-1.046875 1.884375 -0.53125 0.95625 0 0 Z " fill="#945F5C" transform="translate(233,199)"/>
<path d="M0 0 C1.98 0 3.96 0 6 0 C5.01 0.33 4.02 0.66 3 1 C3.33 1.53625 3.66 2.0725 4 2.625 C5.22699204 5.5391061 5.14233286 7.86867708 5 11 C4.01 11.495 4.01 11.495 3 12 C2.67 9.69 2.34 7.38 2 5 C1.01 5 0.02 5 -1 5 C-0.67 3.35 -0.34 1.7 0 0 Z " fill="#A87F7D" transform="translate(252,163)"/>
<path d="M0 0 C2.64 0.66 5.28 1.32 8 2 C7.67 3.65 7.34 5.3 7 7 C5.125 7.625 5.125 7.625 3 8 C0.4345406 5.4345406 0.45953913 3.52313332 0 0 Z " fill="#A87E79" transform="translate(165,35)"/>
<path d="M0 0 C1.6510403 0.39553053 3.2958515 0.81713897 4.9375 1.25 C5.85402344 1.48203125 6.77054687 1.7140625 7.71484375 1.953125 C10 3 10 3 10.81640625 5.109375 C10.87699219 5.73328125 10.93757813 6.3571875 11 7 C9.37276701 6.54965877 7.74826336 6.08944646 6.125 5.625 C5.22007813 5.36976563 4.31515625 5.11453125 3.3828125 4.8515625 C1 4 1 4 -1 2 C-0.67 1.34 -0.34 0.68 0 0 Z " fill="#6B211E" transform="translate(85,510)"/>
<path d="M0 0 C0.33 0 0.66 0 1 0 C1.87664654 3.08196048 2.39199004 5.80136125 2 9 C-0.28249506 11.65063942 -3.01307923 13.2303701 -6 15 C-7.34408187 15.98550581 -8.68073334 16.98151423 -10 18 C-9.6350139 15.33103915 -9.34686281 14.2721079 -7.1875 12.578125 C-6.465625 12.13984375 -5.74375 11.7015625 -5 11.25 C-1.89713329 9.11007604 -1.89713329 9.11007604 -0.25 5.8359375 C0.06788307 3.39549687 0.06788307 3.39549687 0 0 Z " fill="#7E3D39" transform="translate(46,364)"/>
<path d="M0 0 C3.68754757 0.49831724 5.60490662 1.10067643 8 4 C7.67 4.99 7.34 5.98 7 7 C5.35 7.33 3.7 7.66 2 8 C1.34 5.36 0.68 2.72 0 0 Z " fill="#EEE7E6" transform="translate(261,209)"/>
<path d="M0 0 C0.66 0.33 1.32 0.66 2 1 C1.68954268 2.9169986 1.37655329 4.83358723 1.0625 6.75 C0.88847656 7.81734375 0.71445313 8.8846875 0.53515625 9.984375 C0.11295829 12.36347593 -0.37202884 14.66915211 -1 17 C-0.34 17.33 0.32 17.66 1 18 C0.34 18 -0.32 18 -1 18 C-1.33 18.66 -1.66 19.32 -2 20 C-3.125 14.25 -3.125 14.25 -2 12 C-1.79777644 10.33727297 -1.63588613 8.66945815 -1.5 7 C-1.11111111 2.22222222 -1.11111111 2.22222222 0 0 Z " fill="#6E2523" transform="translate(240,193)"/>
<path d="M0 0 C6.41991126 0.57065878 12.01589463 2.67344909 18 5 C17.01 5.495 17.01 5.495 16 6 C16 6.66 16 7.32 16 8 C15.01 8 14.02 8 13 8 C12.67 7.01 12.34 6.02 12 5 C9.67730041 3.75501391 9.67730041 3.75501391 6.9375 2.8125 C6.01839844 2.46832031 5.09929687 2.12414062 4.15234375 1.76953125 C3.44207031 1.51558594 2.73179688 1.26164062 2 1 C2 1.66 2 2.32 2 3 C1.34 3 0.68 3 0 3 C0 2.01 0 1.02 0 0 Z " fill="#5E0D0C" transform="translate(83,509)"/>
<path d="M0 0 C0.33 0 0.66 0 1 0 C1.66 3.96 2.32 7.92 3 12 C0.69 10.02 -1.62 8.04 -4 6 C-2 2 -2 2 0 0 Z " fill="#681C19" transform="translate(296,326)"/>
<path d="M0 0 C0.625 3.375 0.625 3.375 1 7 C0.34 7.66 -0.32 8.32 -1 9 C-3.125 8.625 -3.125 8.625 -5 8 C-3.91891892 0 -3.91891892 0 0 0 Z " fill="#EFE8E7" transform="translate(231,206)"/>
<path d="M0 0 C0.33 0.66 0.66 1.32 1 2 C1.66 2.144375 2.32 2.28875 3 2.4375 C3.66 2.623125 4.32 2.80875 5 3 C5.33 3.99 5.66 4.98 6 6 C3.03 6 0.06 6 -3 6 C-2 2 -2 2 0 0 Z " fill="#F8F6F6" transform="translate(226,180)"/>
<path d="M0 0 C5.46428571 0.60714286 5.46428571 0.60714286 7.875 2.375 C9 4 9 4 9 7 C4.75272765 6.52808085 2.76506398 4.07229331 0 1 C0 0.67 0 0.34 0 0 Z " fill="#621311" transform="translate(52,492)"/>
<path d="M0 0 C0.625 1.75 0.625 1.75 1 4 C0.5359375 4.91265625 0.5359375 4.91265625 0.0625 5.84375 C-1.11678885 8.23701267 -1.39152711 10.10397396 -1.625 12.75 C-1.69976562 13.54921875 -1.77453125 14.3484375 -1.8515625 15.171875 C-1.90054687 15.77515625 -1.94953125 16.3784375 -2 17 C-2.33 17 -2.66 17 -3 17 C-4.5688 6.2728 -4.5688 6.2728 -2 1 C-1.34 0.67 -0.68 0.34 0 0 Z " fill="#712A27" transform="translate(343,460)"/>
<path d="M0 0 C0.33 0.99 0.66 1.98 1 3 C1.66 3 2.32 3 3 3 C2.7525 3.5775 2.505 4.155 2.25 4.75 C2.1675 5.4925 2.085 6.235 2 7 C3.85432087 9.27144074 3.85432087 9.27144074 6 11 C5.67 11.66 5.34 12.32 5 13 C4.01 12.67 3.02 12.34 2 12 C1.67 11.34 1.34 10.68 1 10 C0.34 10.66 -0.32 11.32 -1 12 C-1.14285714 3.42857143 -1.14285714 3.42857143 0 0 Z " fill="#CDB7B4" transform="translate(260,174)"/>
<path d="M0 0 C0.33 0 0.66 0 1 0 C1.20625 0.9075 1.4125 1.815 1.625 2.75 C3.3204079 6.75732776 5.27549784 7.89484661 9 10 C8.67 10.66 8.34 11.32 8 12 C5.125 11.8125 5.125 11.8125 2 11 C0.6875 8.5625 0.6875 8.5625 0 6 C-0.33 5.34 -0.66 4.68 -1 4 C-0.5625 1.875 -0.5625 1.875 0 0 Z " fill="#7C3B38" transform="translate(233,155)"/>
<path d="M0 0 C1.24546405 2.49092811 0.7767578 3.41080733 0 6 C-1.65 6 -3.3 6 -5 6 C-5.66 4.35 -6.32 2.7 -7 1 C-4 0 -4 0 0 0 Z " fill="#F4F1F0" transform="translate(170,46)"/>
<path d="M0 0 C-1.485 1.485 -1.485 1.485 -3 3 C-2.67 3.66 -2.34 4.32 -2 5 C-4.31 5 -6.62 5 -9 5 C-9 3.68 -9 2.36 -9 1 C-5.57367167 -0.61798838 -3.61944899 -1.34053666 0 0 Z " fill="#F9F7F7" transform="translate(243,180)"/>
<path d="M0 0 C0.99 0.33 1.98 0.66 3 1 C-0.3 4.3 -3.6 7.6 -7 11 C-7.66 10.34 -8.32 9.68 -9 9 C-6.03 6.03 -3.06 3.06 0 0 Z " fill="#81423E" transform="translate(71,303)"/>
<path d="M0 0 C0.33 0.66 0.66 1.32 1 2 C-3.95 2.33 -8.9 2.66 -14 3 C-14 2.67 -14 2.34 -14 2 C-12.35 2 -10.7 2 -9 2 C-9 1.34 -9 0.68 -9 0 C-5.67032582 -0.83241855 -3.24733335 -1.2757381 0 0 Z " fill="#6F2523" transform="translate(173,527)"/>
<path d="M0 0 C0.66 0 1.32 0 2 0 C2.33 3.3 2.66 6.6 3 10 C1.68 10 0.36 10 -1 10 C-0.67 6.7 -0.34 3.4 0 0 Z " fill="#661A17" transform="translate(1,438)"/>
<path d="M0 0 C2.51265671 0.83755224 4.65927339 1.79188304 7 3 C7.66 3.33 8.32 3.66 9 4 C8.01 4.33 7.02 4.66 6 5 C4.79117904 7.00016466 4.79117904 7.00016466 4 9 C3.67 7.35 3.34 5.7 3 4 C2.01 3.67 1.02 3.34 0 3 C0 2.01 0 1.02 0 0 Z " fill="#7F3F3B" transform="translate(164,40)"/>
<path d="M0 0 C-0.33 1.32 -0.66 2.64 -1 4 C-6.53846154 3.38461538 -6.53846154 3.38461538 -8.875 1.4375 C-9.24625 0.963125 -9.6175 0.48875 -10 0 C-6.30458414 -0.95024979 -3.69541586 -0.95024979 0 0 Z " fill="#6F2623" transform="translate(316,496)"/>
<path d="M0 0 C0.66 0 1.32 0 2 0 C1.25749403 4.08378283 0.17076699 8.01939223 -1 12 C-1.99 11.67 -2.98 11.34 -4 11 C-3.52269162 9.5410574 -3.04308958 8.08286504 -2.5625 6.625 C-2.29566406 5.81289062 -2.02882812 5.00078125 -1.75390625 4.1640625 C-1 2 -1 2 0 0 Z " fill="#E6DBD9" transform="translate(160,149)"/>
<path d="M0 0 C-2.17424117 2.50037734 -3.73045798 3.43628586 -7 4 C-7 3.01 -7 2.02 -7 1 C-7.99 0.67 -8.98 0.34 -10 0 C-6.30581799 -1.231394 -3.7943739 -0.64432764 0 0 Z " fill="#691F1C" transform="translate(276,517)"/>
<path d="M0 0 C0.33 0.66 0.66 1.32 1 2 C1.99 2.33 2.98 2.66 4 3 C3.236875 3.28875 2.47375 3.5775 1.6875 3.875 C-1.15029308 4.96269013 -1.15029308 4.96269013 -4 7 C-4.66 6.34 -5.32 5.68 -6 5 C-5.67 4.01 -5.34 3.02 -5 2 C-2.4375 0.8125 -2.4375 0.8125 0 0 Z " fill="#722A28" transform="translate(300,499)"/>
<path d="M0 0 C0 0.66 0 1.32 0 2 C0.66 2 1.32 2 2 2 C1.34 3.98 0.68 5.96 0 8 C-1.32 7.67 -2.64 7.34 -4 7 C-3.01 7 -2.02 7 -1 7 C-1.33 5.35 -1.66 3.7 -2 2 C-3.65 1.67 -5.3 1.34 -7 1 C-7 0.67 -7 0.34 -7 0 C-2.25 -1.125 -2.25 -1.125 0 0 Z " fill="#864A46" transform="translate(133,217)"/>
<path d="M0 0 C0 0.66 0 1.32 0 2 C-2.64 2.33 -5.28 2.66 -8 3 C-8.33 2.01 -8.66 1.02 -9 0 C-5.67465243 -1.10844919 -3.37817425 -0.84454356 0 0 Z " fill="#6D2320" transform="translate(254,523)"/>
<path d="M0 0 C0.33 0.99 0.66 1.98 1 3 C-2.50776784 4.60355101 -5.14354879 5.22036864 -9 5 C-7.68 4.67 -6.36 4.34 -5 4 C-5 3.34 -5 2.68 -5 2 C-5.66 1.67 -6.32 1.34 -7 1 C-3.535 0.505 -3.535 0.505 0 0 Z " fill="#5E0D0B" transform="translate(321,494)"/>
<path d="M0 0 C-2.05233685 2.2477975 -3.00667261 3.0022242 -6 4 C-8.6875 3.5625 -8.6875 3.5625 -11 3 C-8.21756596 -1.17365106 -4.53441502 -0.22300402 0 0 Z " fill="#5E0E0C" transform="translate(282,514)"/>
<path d="M0 0 C2.00720923 0.28674418 4.0085944 0.61866701 6 1 C6 2.65 6 4.3 6 6 C5.34 6 4.68 6 4 6 C4 5.01 4 4.02 4 3 C3.34 3 2.68 3 2 3 C1.34 3.99 0.68 4.98 0 6 C-0.38218767 4.34385343 -0.71395102 2.67542976 -1 1 C-0.67 0.67 -0.34 0.34 0 0 Z " fill="#D2C0BD" transform="translate(248,191)"/>
<path d="M0 0 C2.4375 0.375 2.4375 0.375 5 1 C6.4783226 3.95664519 6.06032783 6.74229737 6 10 C5.34 10 4.68 10 4 10 C3.896875 8.906875 3.79375 7.81375 3.6875 6.6875 C3.02692273 3.14440371 2.7972908 2.06756277 0 0 Z " fill="#641815" transform="translate(249,175)"/>
<path d="M0 0 C1.2065625 0.0309375 1.2065625 0.0309375 2.4375 0.0625 C2.7675 1.0525 3.0975 2.0425 3.4375 3.0625 C1.4575 3.7225 -0.5225 4.3825 -2.5625 5.0625 C-3.125 3.125 -3.125 3.125 -3.5625 1.0625 C-2.5625 0.0625 -2.5625 0.0625 0 0 Z " fill="#FCFCFC" transform="translate(162.5625,41.9375)"/>
<path d="M0 0 C1.35158203 0.15275391 1.35158203 0.15275391 2.73046875 0.30859375 C3.41753906 0.39238281 4.10460937 0.47617187 4.8125 0.5625 C4.8125 0.8925 4.8125 1.2225 4.8125 1.5625 C-1.6225 2.0575 -1.6225 2.0575 -8.1875 2.5625 C-8.1875 1.9025 -8.1875 1.2425 -8.1875 0.5625 C-4.98734144 -0.50421952 -3.30205706 -0.38595472 0 0 Z " fill="#6A1F1C" transform="translate(145.1875,522.4375)"/>
<path d="M0 0 C-0.66 0.66 -1.32 1.32 -2 2 C-2.99 2 -3.98 2 -5 2 C-5.33 3.32 -5.66 4.64 -6 6 C-6 5.01 -6 4.02 -6 3 C-6.66 3 -7.32 3 -8 3 C-8 2.01 -8 1.02 -8 0 C-5.13822943 -1.43088528 -3.06624227 -0.59991697 0 0 Z " fill="#D9CBC8" transform="translate(239,179)"/>
<path d="M0 0 C2.475 0.495 2.475 0.495 5 1 C5.6875 2.6875 5.6875 2.6875 6 5 C4.5625 7.75 4.5625 7.75 3 10 C1.7922442 6.37673261 2.45688872 5.35853631 4 2 C2.68 1.67 1.36 1.34 0 1 C0 0.67 0 0.34 0 0 Z " fill="#CBB6B2" transform="translate(171,26)"/>
<path d="M0 0 C2.31 0 4.62 0 7 0 C7 0.99 7 1.98 7 3 C4.125 3.625 4.125 3.625 1 4 C0.34 3.34 -0.32 2.68 -1 2 C-0.67 1.34 -0.34 0.68 0 0 Z " fill="#6C211E" transform="translate(26,488)"/>
<path d="M0 0 C2.125 0.9375 2.125 0.9375 4 2 C4 2.66 4 3.32 4 4 C4.66 4.33 5.32 4.66 6 5 C3.33579484 5 1.47739354 4.90837763 -1 4 C-1.33 3.01 -1.66 2.02 -2 1 C-1.34 0.67 -0.68 0.34 0 0 Z " fill="#80413D" transform="translate(263,206)"/>
<path d="M0 0 C0.33 0 0.66 0 1 0 C0.67 4.29 0.34 8.58 0 13 C-0.33 13 -0.66 13 -1 13 C-2.42857143 4.57142857 -2.42857143 4.57142857 0 0 Z " fill="#75312D" transform="translate(259,171)"/>
<path d="M0 0 C0 0.99 0 1.98 0 3 C-0.99 3 -1.98 3 -3 3 C-2.34 4.98 -1.68 6.96 -1 9 C-1.99 8.67 -2.98 8.34 -4 8 C-4 6.02 -4 4.04 -4 2 C-2.68 1.34 -1.36 0.68 0 0 Z " fill="#D0BCB8" transform="translate(166,44)"/>
<path d="M0 0 C0.66 0.33 1.32 0.66 2 1 C1.67 1.99 1.34 2.98 1 4 C-0.98 4.33 -2.96 4.66 -5 5 C-4.67 4.01 -4.34 3.02 -4 2 C-2.68 2 -1.36 2 0 2 C0 1.34 0 0.68 0 0 Z " fill="#661A18" transform="translate(269,174)"/>
<path d="M0 0 C-0.33 1.65 -0.66 3.3 -1 5 C-1.99 5.33 -2.98 5.66 -4 6 C-4 4.35 -4 2.7 -4 1 C-2 0 -2 0 0 0 Z " fill="#691E1B" transform="translate(265,171)"/>
<path d="M0 0 C0.99 0.33 1.98 0.66 3 1 C2.67 3.31 2.34 5.62 2 8 C1.34 8 0.68 8 0 8 C0 5.36 0 2.72 0 0 Z " fill="#EBE3E2" transform="translate(231,151)"/>
<path d="M0 0 C3.73884332 2.65654657 5.64978174 4.58110387 7 9 C6.01 9.495 6.01 9.495 5 10 C4.16121545 8.71186658 3.32913217 7.41936744 2.5 6.125 C2.0359375 5.40570313 1.571875 4.68640625 1.09375 3.9453125 C0 2 0 2 0 0 Z " fill="#905853" transform="translate(211,123)"/>
<path d="M0 0 C2.00720923 0.28674418 4.0085944 0.61866701 6 1 C4 3 4 3 1.8359375 3.1953125 C0.61777344 3.16050781 0.61777344 3.16050781 -0.625 3.125 C-1.44226563 3.10695313 -2.25953125 3.08890625 -3.1015625 3.0703125 C-3.72804687 3.04710937 -4.35453125 3.02390625 -5 3 C-4.360625 2.690625 -3.72125 2.38125 -3.0625 2.0625 C-1.06389179 1.1654837 -1.06389179 1.1654837 0 0 Z " fill="#5E0E0C" transform="translate(239,526)"/>
<path d="M0 0 C0.33 0 0.66 0 1 0 C1 2.31 1 4.62 1 7 C-0.98 7.99 -0.98 7.99 -3 9 C-3 5.30581799 -1.71820705 3.22163822 0 0 Z " fill="#5F100E" transform="translate(331,484)"/>
<path d="M0 0 C3.3 0 6.6 0 10 0 C10 0.99 10 1.98 10 3 C6.7 2.34 3.4 1.68 0 1 C0 0.67 0 0.34 0 0 Z " fill="#996661" transform="translate(216,188)"/>
<path d="M0 0 C2.97 0.495 2.97 0.495 6 1 C6 1.99 6 2.98 6 4 C5.01 4 4.02 4 3 4 C2.67 4.99 2.34 5.98 2 7 C0.5393715 4.35261084 0 3.10551666 0 0 Z " fill="#793532" transform="translate(175,40)"/>
<path d="M0 0 C0.33 0 0.66 0 1 0 C0.67 2.97 0.34 5.94 0 9 C-0.66 8.67 -1.32 8.34 -2 8 C-2 6.35 -2 4.7 -2 3 C-1.34 3 -0.68 3 0 3 C0 2.01 0 1.02 0 0 Z " fill="#81423E" transform="translate(8,453)"/>
<path d="M0 0 C2.64 0.66 5.28 1.32 8 2 C8 2.33 8 2.66 8 3 C3.34462607 3.83796731 -0.37078475 4.0161692 -5 3 C-5 2.67 -5 2.34 -5 2 C-3.35 2 -1.7 2 0 2 C0 1.34 0 0.68 0 0 Z " fill="#580605" transform="translate(222,185)"/>
<path d="M0 0 C0.99 0 1.98 0 3 0 C3 1.98 3 3.96 3 6 C1.68 5.01 0.36 4.02 -1 3 C-0.67 2.01 -0.34 1.02 0 0 Z " fill="#651917" transform="translate(241,159)"/>
</svg>
