<svg xmlns="http://www.w3.org/2000/svg" version="1.1" xmlns:xlink="http://www.w3.org/1999/xlink" xmlns:svgjs="http://svgjs.dev/svgjs" width="2000" height="1500" viewBox="0 0 2000 1500"><rect width="2000" height="1500" fill="#ffffff"></rect><g transform="matrix(0.75,0,0,0.75,249.090909090909,563.449757762774)"><svg viewBox="0 0 396 99" data-background-color="#ffffff" preserveAspectRatio="xMidYMid meet" height="499" width="2000" xmlns="http://www.w3.org/2000/svg" xmlns:xlink="http://www.w3.org/1999/xlink"><g id="tight-bounds" transform="matrix(1,0,0,1,0.2400000000000091,-0.15204012963158675)"><svg viewBox="0 0 395.52 99.30408025926315" height="99.30408025926315" width="395.52"><g><svg viewBox="0 0 494.8048445405059 124.23174553732458" height="99.30408025926315" width="395.52"><g transform="matrix(1,0,0,1,99.28484454050589,17.169510417965995)"><svg viewBox="0 0 395.52 89.8927247013926" height="89.8927247013926" width="395.52"><g id="textblocktransform"><svg viewBox="0 0 395.52 89.8927247013926" height="89.8927247013926" width="395.52" id="textblock"><g><svg viewBox="0 0 395.52 51.03697405857741" height="51.03697405857741" width="395.52"><g transform="matrix(1,0,0,1,0,0)"><svg width="395.52" viewBox="1.95 -36.84 291.72 37.650000000000006" height="51.03697405857741" data-palette-color="#0074d9"><path d="M26.49-9.25L29.39-9.25 29.39-1.15Q29.27-1.1 27.84-0.61 26.42-0.12 24.19 0.34 21.97 0.81 19.41 0.81L19.41 0.81Q15.21 0.81 11.96-0.65 8.72-2.1 6.48-4.59 4.25-7.08 3.1-10.24 1.95-13.4 1.95-16.85L1.95-16.85Q1.95-22.02 4.15-25.96 6.35-29.91 10.29-32.13 14.23-34.35 19.46-34.35L19.46-34.35Q21.9-34.35 24.13-33.84 26.37-33.33 29.39-32.4L29.39-32.4 29.39-24.56 26.39-24.56 25.66-29.1Q25.56-29.52 25.29-29.83 25.02-30.15 24.8-30.25L24.8-30.25 24.61-30.35Q23.97-30.64 22.71-31.09 21.44-31.54 19.7-31.54L19.7-31.54Q16.31-31.54 13.59-29.87 10.86-28.2 9.28-24.93 7.69-21.66 7.69-16.85L7.69-16.85Q7.69-9.86 11.06-5.91 14.43-1.95 20.36-1.95L20.36-1.95Q22.12-1.95 23.22-2.37 24.32-2.78 24.39-2.81L24.39-2.81Q25.17-3.1 25.34-3.81L25.34-3.81 26.49-9.25ZM58.88-1.95L58.88 0 47.75 0 47.75-1.95 49.8-2.1Q50.24-2.15 50.57-2.44 50.9-2.73 50.9-3.2L50.9-3.2 50.9-16.09Q50.9-18.24 49.88-19.64 48.85-21.04 45.94-21.04L45.94-21.04Q44.63-21.04 43.1-20.63 41.57-20.21 40.5-19.6L40.5-19.6 40.5-3.2Q40.5-2.17 41.5-2.1L41.5-2.1 43.65-1.95 43.65 0 32.39 0 32.39-1.95 34.79-2.1Q35.84-2.17 35.84-3.2L35.84-3.2 35.84-33.25 32.1-33.25 32.1-34.91 38.5-36.84 40.5-36.84 40.5-21.61Q41.4-22.17 42.84-22.89 44.28-23.61 45.87-24.16 47.46-24.71 48.75-24.71L48.75-24.71Q51.63-24.71 53.59-22.85 55.54-21 55.54-17.14L55.54-17.14 55.54-3.2Q55.54-2.73 55.87-2.44 56.2-2.15 56.64-2.1L56.64-2.1 58.88-1.95ZM79.1-23.95L79.1-18.99 77.14-18.99Q76.68-19.56 76.03-19.96 75.39-20.36 74.46-20.36L74.46-20.36Q73.26-20.36 72-19.53 70.75-18.7 69.45-17.26L69.45-17.26 69.45-3.2Q69.45-2.15 70.5-2.1L70.5-2.1 73.8-1.95 73.8 0 61.3 0 61.3-1.9 63.76-2.1Q64.2-2.15 64.51-2.44 64.81-2.73 64.81-3.2L64.81-3.2 64.81-20.56 61.2-20.56 61.2-22.19 67.4-24.1 69.45-24.1 69.45-19.65Q70.19-20.46 71.28-21.66 72.38-22.85 73.63-23.78 74.87-24.71 76.04-24.71L76.04-24.71Q76.83-24.71 77.73-24.46 78.63-24.22 79.1-23.95L79.1-23.95ZM90.5-32.35L90.5-32.35Q90.5-31.08 89.62-30.16 88.74-29.25 87.47-29.25L87.47-29.25Q86.2-29.25 85.28-30.16 84.37-31.08 84.37-32.35L84.37-32.35Q84.37-33.64 85.28-34.52 86.2-35.4 87.47-35.4L87.47-35.4Q88.74-35.4 89.62-34.52 90.5-33.64 90.5-32.35ZM93.06-1.95L93.06 0 81.32 0 81.32-1.95 83.76-2.1Q84.81-2.17 84.81-3.2L84.81-3.2 84.81-21.04 81.36-21.04 81.36-22.8 87.47-24.71 89.45-24.71 89.45-3.2Q89.45-2.73 89.75-2.44 90.06-2.15 90.5-2.1L90.5-2.1 93.06-1.95ZM112.95-7.25L112.95-7.25Q112.95-3.56 110.41-1.48 107.88 0.61 103.41 0.61L103.41 0.61Q101.11 0.61 99.17 0.13 97.23-0.34 96.47-0.66L96.47-0.66 96.47-7.3 99.01-7.3 99.62-3.05Q100.38-2.56 101.49-2.11 102.6-1.66 104.07-1.66L104.07-1.66Q106.22-1.66 107.39-2.86 108.56-4.05 108.56-5.54L108.56-5.54Q108.56-7.52 107.14-8.53 105.73-9.55 103.12-10.79L103.12-10.79 102.46-11.11Q99.72-12.4 98.27-13.81 96.82-15.21 96.82-17.46L96.82-17.46Q96.82-20.8 99.16-22.75 101.5-24.71 105.82-24.71L105.82-24.71Q108.02-24.71 109.74-24.3 111.46-23.9 112.22-23.56L112.22-23.56 112.22-17.65 109.61-17.65 109.22-21.14Q108.68-21.56 107.63-21.92 106.58-22.29 105.41-22.29L105.41-22.29Q103.36-22.29 102.36-21.35 101.36-20.41 101.36-18.95L101.36-18.95Q101.36-17.26 102.57-16.27 103.77-15.28 106.95-13.84L106.95-13.84Q109.56-12.65 111.26-11.17 112.95-9.69 112.95-7.25ZM131.31-3.05L131.31-3.05 131.31-1.05Q131.31-1.05 130.37-0.63 129.43-0.22 127.9 0.2 126.38 0.61 124.57 0.61L124.57 0.61Q121.76 0.61 120.48-0.72 119.2-2.05 119.2-5L119.2-5 119.2-21.61 116-21.61 116-23.24 119.42-24.85 121.67-30.15 123.86-30.15 123.86-24.1 130.92-24.1 130.92-21.61 123.86-21.61 123.86-7.64Q123.86-4.66 124.87-3.43 125.87-2.2 127.87-2.2L127.87-2.2Q129.33-2.2 130.32-2.62 131.31-3.05 131.31-3.05ZM142.54-32.35L142.54-32.35Q142.54-31.08 141.66-30.16 140.78-29.25 139.51-29.25L139.51-29.25Q138.24-29.25 137.33-30.16 136.41-31.08 136.41-32.35L136.41-32.35Q136.41-33.64 137.33-34.52 138.24-35.4 139.51-35.4L139.51-35.4Q140.78-35.4 141.66-34.52 142.54-33.64 142.54-32.35ZM145.1-1.95L145.1 0 133.36 0 133.36-1.95 135.8-2.1Q136.85-2.17 136.85-3.2L136.85-3.2 136.85-21.04 133.41-21.04 133.41-22.8 139.51-24.71 141.49-24.71 141.49-3.2Q141.49-2.73 141.79-2.44 142.1-2.15 142.54-2.1L142.54-2.1 145.1-1.95ZM171.42-1.95L171.42 0 164.02 0 163.36-2.95Q163.36-2.95 162.62-2.42 161.87-1.88 160.65-1.17 159.43-0.46 157.95 0.07 156.48 0.61 155.01 0.61L155.01 0.61Q152.3 0.61 150.41-1.2 148.52-3 148.52-6.15L148.52-6.15Q148.52-7.54 149.02-8.74 149.52-9.94 151.02-11.02 152.52-12.11 155.49-13.15 158.45-14.18 163.36-15.26L163.36-15.26 163.36-17.41Q163.36-22.34 158.7-22.34L158.7-22.34Q157.4-22.34 156.46-22.09 155.52-21.85 155.16-21.7L155.16-21.7 155.16-17.36 151.52-17.36Q150.84-17.36 150.25-17.61 149.67-17.87 149.67-18.8L149.67-18.8Q149.67-20.85 151.23-22.16 152.79-23.46 155.19-24.08 157.6-24.71 160.07-24.71L160.07-24.71Q163.17-24.71 164.88-23.74 166.58-22.78 167.27-21.08 167.95-19.38 167.95-17.21L167.95-17.21 167.95-3.2Q167.95-2.73 168.26-2.44 168.56-2.15 169-2.1L169-2.1 171.42-1.95ZM163.36-4.71L163.36-4.71 163.36-13.35Q159.99-12.52 158-11.68 156.01-10.84 155.04-10 154.06-9.16 153.75-8.29 153.45-7.42 153.45-6.49L153.45-6.49Q153.45-4.96 154.44-3.65 155.43-2.34 157.21-2.34L157.21-2.34Q158.21-2.34 159.28-2.7 160.36-3.05 161.29-3.53 162.21-4 162.79-4.36 163.36-4.71 163.36-4.71ZM199.59-1.95L199.59 0 188.55 0 188.55-1.95 190.65-2.1Q191.09-2.15 191.4-2.44 191.7-2.73 191.7-3.2L191.7-3.2 191.7-16.21Q191.7-18.58 190.61-19.81 189.51-21.04 186.89-21.04L186.89-21.04Q185.48-21.04 184.07-20.64 182.67-20.24 181.4-19.6L181.4-19.6 181.4-3.2Q181.4-2.17 182.45-2.1L182.45-2.1 184.55-1.95 184.55 0 173.25 0 173.25-1.95 175.69-2.1Q176.74-2.17 176.74-3.2L176.74-3.2 176.74-20.56 173.25-20.56 173.25-22.19 179.35-24.1 181.4-24.1 181.4-21.61Q183.5-22.8 185.71-23.75 187.92-24.71 189.65-24.71L189.65-24.71Q192.92-24.71 194.63-22.67 196.34-20.63 196.34-16.99L196.34-16.99 196.34-3.2Q196.34-2.73 196.65-2.44 196.95-2.15 197.39-2.1L197.39-2.1 199.59-1.95ZM223.54-33.54L223.54-31.4 220.63-31.2Q220.12-31.18 219.85-30.82 219.58-30.47 219.58-30.1L219.58-30.1 219.58-12.65Q219.58-8.5 218.52-5.48 217.46-2.47 215.05-0.83 212.65 0.81 208.6 0.81L208.6 0.81Q206.98 0.81 205.48 0.48 203.98 0.15 202.98-0.21 201.98-0.56 201.83-0.61L201.83-0.61 201.83-9.16 204.84-9.16 205.93-3.05Q206.08-2.29 206.78-2.03 207.47-1.76 208.23-1.76L208.23-1.76Q211.65-1.76 213.09-4.41 214.53-7.06 214.53-12.3L214.53-12.3 214.53-30.1Q214.53-30.47 214.27-30.82 214.02-31.18 213.48-31.2L213.48-31.2 210.33-31.4 210.33-33.54 223.54-33.54ZM250.32-12.01L250.32-12.01Q250.32-8.47 248.85-5.6 247.39-2.73 244.71-1.06 242.04 0.61 238.38 0.61L238.38 0.61Q234.74 0.61 232.08-1.05 229.42-2.71 227.98-5.57 226.54-8.42 226.54-12.01L226.54-12.01Q226.54-15.58 227.99-18.46 229.44-21.34 232.14-23.02 234.84-24.71 238.52-24.71L238.52-24.71Q242.26-24.71 244.9-23 247.53-21.29 248.93-18.41 250.32-15.53 250.32-12.01ZM245.12-12.06L245.12-12.06Q245.12-14.79 244.4-17.16 243.68-19.53 242.2-21 240.72-22.46 238.48-22.46L238.48-22.46Q236.16-22.46 234.68-21 233.2-19.53 232.49-17.16 231.79-14.79 231.79-12.06L231.79-12.06Q231.79-9.35 232.51-6.97 233.23-4.59 234.7-3.13 236.18-1.66 238.43-1.66L238.43-1.66Q240.72-1.66 242.2-3.13 243.68-4.59 244.4-6.96 245.12-9.33 245.12-12.06ZM278.93-1.95L278.93 0 271.07 0 271.07-2.66Q269.36-1.34 267.43-0.37 265.5 0.61 263.33 0.61L263.33 0.61Q260.81 0.61 258.99-0.45 257.17-1.51 256.01-3.27 254.86-5.03 254.29-7.15 253.73-9.28 253.73-11.4L253.73-11.4Q253.73-14.79 255.12-17.83 256.52-20.87 259.35-22.79 262.18-24.71 266.48-24.71L266.48-24.71Q267.67-24.71 269.08-24.48 270.48-24.24 271.07-24.1L271.07-24.1 271.07-33.25 267.28-33.25 267.28-34.91 273.73-36.84 275.73-36.84 275.73-3.2Q275.73-2.17 276.78-2.1L276.78-2.1 278.93-1.95ZM271.07-4.54L271.07-4.54 271.07-21.56Q270.43-21.78 269.17-22.03 267.92-22.29 266.82-22.29L266.82-22.29Q263.11-22.29 260.89-19.54 258.66-16.8 258.66-12.26L258.66-12.26Q258.66-8.18 260.57-5.49 262.47-2.81 265.91-2.81L265.91-2.81Q267.43-2.81 268.76-3.38 270.09-3.96 271.07-4.54ZM291.11-32.35L291.11-32.35Q291.11-31.08 290.23-30.16 289.35-29.25 288.08-29.25L288.08-29.25Q286.81-29.25 285.9-30.16 284.98-31.08 284.98-32.35L284.98-32.35Q284.98-33.64 285.9-34.52 286.81-35.4 288.08-35.4L288.08-35.4Q289.35-35.4 290.23-34.52 291.11-33.64 291.11-32.35ZM293.67-1.95L293.67 0 281.93 0 281.93-1.95 284.37-2.1Q285.42-2.17 285.42-3.2L285.42-3.2 285.42-21.04 281.98-21.04 281.98-22.8 288.08-24.71 290.06-24.71 290.06-3.2Q290.06-2.73 290.36-2.44 290.67-2.15 291.11-2.1L291.11-2.1 293.67-1.95Z" opacity="1" transform="matrix(1,0,0,1,0,0)" fill="#0074d9" class="wordmark-text-0" data-fill-palette-color="primary" id="text-0"></path></svg></g></svg></g><g transform="matrix(1,0,0,1,0,63.08557874643013)"><svg viewBox="0 0 375.74399999999997 26.80714595496247" height="26.80714595496247" width="375.74399999999997"><g transform="matrix(1,0,0,1,0,0)"><svg width="375.74399999999997" viewBox="2.2 -38.38 702.4699999999999 50.120000000000005" height="26.80714595496247" data-palette-color="#556970"><path d="M18.6-5.98L18.6-5.98Q20.39-5.98 21.4-6.35 22.41-6.71 22.97-7.25 23.54-7.79 23.95-8.33L23.95-8.33Q24.34-8.81 24.6-9.06 24.85-9.3 25.32-9.4L25.32-9.4Q25.71-9.52 26.57-9.56 27.44-9.59 28.31-9.59 29.17-9.59 29.52-9.55L29.52-9.55Q30.03-9.52 30.22-9.35L30.22-9.35Q30.42-9.18 30.47-8.62L30.47-8.62Q30.54-7.84 30.55-6.76 30.57-5.69 30.52-4.91L30.52-4.91Q30.49-4.66 30.43-4.49 30.37-4.32 30.18-3.98L30.18-3.98Q29.93-3.59 29.22-2.84 28.52-2.1 27.15-1.31 25.78-0.51 23.62 0.05 21.46 0.61 18.31 0.61L18.31 0.61Q14.94 0.61 12.01-0.26 9.08-1.12 6.87-3.17 4.66-5.22 3.43-8.72 2.2-12.21 2.2-17.43L2.2-17.43Q2.2-23.24 4.21-27.31 6.23-31.37 9.94-33.5 13.65-35.62 18.73-35.62L18.73-35.62Q22.29-35.62 24.45-34.89 26.61-34.16 27.73-33.17 28.86-32.18 29.32-31.45L29.32-31.45Q29.49-31.18 29.57-30.97 29.64-30.76 29.66-30.32L29.66-30.32Q29.74-29.74 29.7-28.61 29.66-27.49 29.52-26.64L29.52-26.64Q29.42-26.1 29.2-25.93L29.2-25.93Q29.1-25.83 28.86-25.76 28.61-25.68 28.13-25.68L28.13-25.68Q27.34-25.68 26.37-25.74 25.39-25.81 24.9-25.88L24.9-25.88Q24.32-25.98 24.05-26.16 23.78-26.34 23.51-26.73L23.51-26.73Q23.07-27.37 22-28.2 20.92-29.03 18.46-29.03L18.46-29.03Q14.99-29.03 12.74-26.35 10.5-23.68 10.5-17.7L10.5-17.7Q10.5-11.74 12.85-8.86 15.21-5.98 18.6-5.98ZM47.31 0.61L47.31 0.61Q41.16 0.61 37.57-2.66 33.98-5.93 33.98-12.4L33.98-12.4Q33.98-19.04 37.71-22.33 41.43-25.61 47.65-25.61L47.65-25.61Q53.66-25.61 57.27-22.38 60.89-19.14 60.89-12.84L60.89-12.84Q60.89-6.27 57.27-2.83 53.66 0.61 47.31 0.61ZM47.56-5.3L47.56-5.3Q50.24-5.3 51.61-6.97 52.98-8.64 52.98-12.7L52.98-12.7Q52.98-16.55 51.6-18.13 50.22-19.7 47.51-19.7L47.51-19.7Q44.89-19.7 43.39-18.01 41.89-16.31 41.89-12.5L41.89-12.5Q41.89-8.52 43.32-6.91 44.75-5.3 47.56-5.3ZM90.3-15.55L90.3-15.55 90.3-1.29Q90.3-0.56 90-0.28 89.69 0 88.96 0L88.96 0 83.93 0Q83.2 0 82.89-0.28 82.59-0.56 82.59-1.29L82.59-1.29 82.59-14.28Q82.59-16.94 81.46-18.16 80.34-19.38 78.41-19.38L78.41-19.38Q76.48-19.38 75.45-18.55 74.41-17.72 73.85-16.46L73.85-16.46 73.85-1.29Q73.85-0.56 73.54-0.28 73.24 0 72.5 0L72.5 0 67.48 0Q66.74 0 66.44-0.28 66.13-0.56 66.13-1.29L66.13-1.29 66.13-21.75Q66.13-22.34 66.38-22.66L66.38-22.66Q66.89-23.34 67.61-24.05 68.33-24.76 69.38-25.56L69.38-25.56Q69.7-25.81 69.99-25.81L69.99-25.81Q70.26-25.81 70.6-25.56L70.6-25.56Q71.63-24.76 72.36-24.02 73.09-23.29 73.65-22.51L73.65-22.51 73.77-22.51Q74.19-23.05 75.02-23.77 75.85-24.49 77.35-25.05 78.85-25.61 81.2-25.61L81.2-25.61Q83.49-25.61 85.57-24.68 87.64-23.75 88.97-21.56 90.3-19.36 90.3-15.55ZM121.06-15.55L121.06-15.55 121.06-1.29Q121.06-0.56 120.76-0.28 120.45 0 119.72 0L119.72 0 114.69 0Q113.96 0 113.65-0.28 113.35-0.56 113.35-1.29L113.35-1.29 113.35-14.28Q113.35-16.94 112.22-18.16 111.1-19.38 109.17-19.38L109.17-19.38Q107.24-19.38 106.21-18.55 105.17-17.72 104.61-16.46L104.61-16.46 104.61-1.29Q104.61-0.56 104.3-0.28 104 0 103.26 0L103.26 0 98.23 0Q97.5 0 97.2-0.28 96.89-0.56 96.89-1.29L96.89-1.29 96.89-21.75Q96.89-22.34 97.14-22.66L97.14-22.66Q97.65-23.34 98.37-24.05 99.09-24.76 100.14-25.56L100.14-25.56Q100.46-25.81 100.75-25.81L100.75-25.81Q101.02-25.81 101.36-25.56L101.36-25.56Q102.39-24.76 103.12-24.02 103.85-23.29 104.41-22.51L104.41-22.51 104.53-22.51Q104.95-23.05 105.78-23.77 106.61-24.49 108.11-25.05 109.61-25.61 111.96-25.61L111.96-25.61Q114.25-25.61 116.33-24.68 118.4-23.75 119.73-21.56 121.06-19.36 121.06-15.55ZM139.91 0.61L139.91 0.61Q135.78 0.61 132.73-0.72 129.68-2.05 127.99-4.86 126.31-7.67 126.31-12.11L126.31-12.11Q126.31-18.77 129.73-22.19 133.14-25.61 138.81-25.61L138.81-25.61Q142.49-25.61 145.05-24.29 147.6-22.97 148.93-20.65 150.26-18.33 150.26-15.36L150.26-15.36Q150.26-12.45 148.77-11.3 147.28-10.16 144.42-10.16L144.42-10.16 133.95-10.16Q134.15-7.64 135.79-6.32 137.44-5 140.27-5L140.27-5Q142.52-5 143.87-5.68 145.23-6.35 145.77-6.74L145.77-6.74Q146.23-7.08 146.82-7.06L146.82-7.06Q147.28-7.06 148.15-6.87 149.01-6.69 149.87-6.2L149.87-6.2Q150.48-5.88 150.48-5.32L150.48-5.32Q150.48-5 150.36-4.42L150.36-4.42Q150.28-4.08 150.11-3.43 149.94-2.78 149.67-2.22L149.67-2.22Q149.53-1.95 149.21-1.71L149.21-1.71Q148.72-1.37 147.63-0.81 146.55-0.24 144.67 0.18 142.79 0.61 139.91 0.61ZM133.9-15.16L133.9-15.16 141.86-15.16Q143.11-15.16 143.11-16.31L143.11-16.31Q143.11-18.04 142.02-19.23 140.93-20.41 138.76-20.41L138.76-20.41Q136.39-20.41 135.28-18.9 134.17-17.38 133.9-15.16ZM168.08-25.61L168.08-25.61Q170.98-25.61 172.3-25.13 173.62-24.66 173.96-24.39L173.96-24.39Q174.5-24.05 174.79-23.51L174.79-23.51Q174.96-23.24 175.18-22.58 175.4-21.92 175.5-21.14L175.5-21.14Q175.62-20.53 175.52-20.28 175.43-20.02 174.91-19.65L174.91-19.65Q174.33-19.26 173.63-18.96 172.94-18.65 172.5-18.53L172.5-18.53Q172.13-18.43 171.94-18.48 171.74-18.53 171.4-18.77L171.4-18.77Q171.01-19.04 170.3-19.37 169.59-19.7 168.35-19.7L168.35-19.7Q166.76-19.7 165.33-18.92 163.9-18.14 163.01-16.58 162.12-15.01 162.12-12.67L162.12-12.67Q162.12-9.16 163.96-7.23 165.81-5.3 168.91-5.3L168.91-5.3Q170.5-5.3 171.55-5.63 172.59-5.96 173.21-6.3L173.21-6.3Q173.69-6.57 173.95-6.43 174.21-6.3 174.35-5.96L174.35-5.96 176.13-1.93Q176.4-1.29 175.84-1.03L175.84-1.03Q174.94-0.56 172.86 0.02 170.79 0.61 167.74 0.61L167.74 0.61Q161.61 0.61 157.95-2.65 154.28-5.91 154.28-12.4L154.28-12.4Q154.28-16.55 155.97-19.51 157.65-22.46 160.75-24.04 163.85-25.61 168.08-25.61ZM190 0.61L190 0.61Q181.85 0.61 181.85-7.86L181.85-7.86 181.85-19.31 179.09-19.31Q178.35-19.31 178.07-19.62 177.79-19.92 177.79-20.65L177.79-20.65 177.79-23.66Q177.79-24.39 178.07-24.69 178.35-25 179.09-25L179.09-25 181.85-25 181.85-28.93Q181.85-29.52 182.09-29.83L182.09-29.83Q183.11-31.18 185.09-32.74L185.09-32.74Q185.43-32.98 185.7-32.98L185.7-32.98Q186-32.98 186.29-32.74L186.29-32.74Q187.34-31.93 188.06-31.23 188.78-30.52 189.29-29.83L189.29-29.83Q189.54-29.52 189.54-28.93L189.54-28.93 189.54-25 193.86-25Q194.59-25 194.87-24.69 195.15-24.39 195.15-23.66L195.15-23.66 195.15-20.65Q195.15-19.92 194.87-19.62 194.59-19.31 193.86-19.31L193.86-19.31 189.54-19.31 189.54-9.2Q189.54-5.3 192.37-5.3L192.37-5.3Q192.81-5.3 193.17-5.38 193.54-5.47 193.81-5.57L193.81-5.57Q194.32-5.76 194.53-5.71 194.74-5.66 194.91-5.18L194.91-5.18 196.32-1.39Q196.54-0.78 196.03-0.51L196.03-0.51Q195.66-0.34 194.26 0.13 192.86 0.61 190 0.61ZM199.27-33.2L199.27-33.2Q199.27-33.52 199.47-33.76 199.67-34.01 199.98-34.4L199.98-34.4Q200.67-35.18 201.57-36.05 202.47-36.91 203.4-37.72L203.4-37.72Q203.99-38.18 204.28-38.18L204.28-38.18Q204.57-38.18 205.18-37.72L205.18-37.72Q207.16-36.01 208.55-34.4L208.55-34.4Q208.87-34.03 209.08-33.78 209.28-33.52 209.28-33.2L209.28-33.2Q209.28-32.89 209.08-32.64 208.87-32.4 208.53-31.98L208.53-31.98Q207.87-31.23 206.99-30.36 206.11-29.49 205.18-28.71L205.18-28.71Q204.84-28.42 204.65-28.33 204.45-28.25 204.28-28.25L204.28-28.25Q204.11-28.25 203.93-28.33 203.74-28.42 203.35-28.71L203.35-28.71Q202.38-29.49 201.52-30.36 200.67-31.23 199.98-32.03L199.98-32.03Q199.67-32.42 199.47-32.65 199.27-32.89 199.27-33.2ZM208.11-23.71L208.11-1.29Q208.11-0.56 207.81-0.28 207.5 0 206.77 0L206.77 0 201.74 0Q201.01 0 200.7-0.28 200.4-0.56 200.4-1.29L200.4-1.29 200.4-23.71Q200.4-24.44 200.7-24.72 201.01-25 201.74-25L201.74-25 206.77-25Q207.5-25 207.81-24.72 208.11-24.44 208.11-23.71L208.11-23.71ZM238.92-15.55L238.92-15.55 238.92-1.29Q238.92-0.56 238.62-0.28 238.31 0 237.58 0L237.58 0 232.55 0Q231.82 0 231.51-0.28 231.21-0.56 231.21-1.29L231.21-1.29 231.21-14.28Q231.21-16.94 230.08-18.16 228.96-19.38 227.03-19.38L227.03-19.38Q225.1-19.38 224.06-18.55 223.03-17.72 222.47-16.46L222.47-16.46 222.47-1.29Q222.47-0.56 222.16-0.28 221.86 0 221.12 0L221.12 0 216.09 0Q215.36 0 215.06-0.28 214.75-0.56 214.75-1.29L214.75-1.29 214.75-21.75Q214.75-22.34 214.99-22.66L214.99-22.66Q215.51-23.34 216.23-24.05 216.95-24.76 218-25.56L218-25.56Q218.31-25.81 218.61-25.81L218.61-25.81Q218.88-25.81 219.22-25.56L219.22-25.56Q220.24-24.76 220.98-24.02 221.71-23.29 222.27-22.51L222.27-22.51 222.39-22.51Q222.81-23.05 223.64-23.77 224.47-24.49 225.97-25.05 227.47-25.61 229.81-25.61L229.81-25.61Q232.11-25.61 234.18-24.68 236.26-23.75 237.59-21.56 238.92-19.36 238.92-15.55ZM269.68-22.66L269.68-22.66 269.68-2.86Q269.68 4.27 265.61 8.01 261.55 11.74 254.47 11.74L254.47 11.74Q251.54 11.74 249.83 11.32 248.12 10.89 247.24 10.5L247.24 10.5Q246.68 10.23 246.51 9.94L246.51 9.94Q246.27 9.55 245.96 8.79 245.66 8.03 245.39 7.13L245.39 7.13Q245.31 6.79 245.36 6.62L245.36 6.62Q245.46 6.37 245.73 6.1L245.73 6.1Q246.17 5.66 246.99 5.08 247.8 4.49 248.24 4.32L248.24 4.32Q248.71 4.15 249.1 4.37L249.1 4.37Q249.73 4.71 250.92 5.14 252.1 5.57 254.25 5.57L254.25 5.57Q257.67 5.57 259.82 3.81 261.96 2.05 261.96-1.61L261.96-1.61 261.96-2.49 261.87-2.49Q261.33-1.81 260.48-1.1 259.62-0.39 258.27 0.1 256.91 0.59 254.79 0.59L254.79 0.59Q251.1 0.59 248.74-1.01 246.39-2.61 245.28-5.42 244.17-8.23 244.17-11.82L244.17-11.82Q244.17-15.75 245.46-18.87 246.75-22 249.81-23.82 252.86-25.63 258.16-25.63L258.16-25.63Q261.33-25.63 263.49-25.17 265.65-24.71 267.12-24.02 268.58-23.34 269.68-22.66ZM257.89-19.73L257.89-19.73Q255.06-19.73 253.57-17.82 252.08-15.92 252.08-11.91L252.08-11.91Q252.08-5.64 257.25-5.64L257.25-5.64Q259.28-5.64 260.35-6.47 261.43-7.3 261.96-8.57L261.96-8.57 261.96-18.65Q261.43-19.04 260.45-19.38 259.47-19.73 257.89-19.73ZM297.78-16.46L297.78-1.29Q297.78-0.56 297.47-0.28 297.16 0 296.43 0L296.43 0 291.4 0Q290.67 0 290.37-0.28 290.06-0.56 290.06-1.29L290.06-1.29 290.06-34.33Q290.06-34.91 290.3-35.23L290.3-35.23Q291.33-36.57 293.31-38.13L293.31-38.13Q293.65-38.38 293.92-38.38L293.92-38.38Q294.24-38.38 294.53-38.13L294.53-38.13Q295.58-37.33 296.3-36.62 297.02-35.91 297.53-35.23L297.53-35.23Q297.78-34.91 297.78-34.33L297.78-34.33 297.78-22.49 297.87-22.49Q298.41-23.19 299.26-23.91 300.12-24.63 301.55-25.12 302.98-25.61 305.2-25.61L305.2-25.61Q307.44-25.61 309.52-24.68 311.59-23.75 312.91-21.56 314.23-19.36 314.23-15.55L314.23-15.55 314.23-1.29Q314.23-0.56 313.93-0.28 313.62 0 312.89 0L312.89 0 307.86 0Q307.13 0 306.82-0.28 306.52-0.56 306.52-1.29L306.52-1.29 306.52-14.21Q306.52-16.92 305.39-18.15 304.27-19.38 302.34-19.38L302.34-19.38Q300.44-19.38 299.39-18.55 298.34-17.72 297.78-16.46L297.78-16.46ZM333.08 0.61L333.08 0.61Q328.95 0.61 325.9-0.72 322.85-2.05 321.16-4.86 319.48-7.67 319.48-12.11L319.48-12.11Q319.48-18.77 322.89-22.19 326.31-25.61 331.98-25.61L331.98-25.61Q335.66-25.61 338.21-24.29 340.77-22.97 342.1-20.65 343.43-18.33 343.43-15.36L343.43-15.36Q343.43-12.45 341.94-11.3 340.45-10.16 337.59-10.16L337.59-10.16 327.12-10.16Q327.31-7.64 328.96-6.32 330.61-5 333.44-5L333.44-5Q335.69-5 337.04-5.68 338.4-6.35 338.93-6.74L338.93-6.74Q339.4-7.08 339.98-7.06L339.98-7.06Q340.45-7.06 341.32-6.87 342.18-6.69 343.04-6.2L343.04-6.2Q343.65-5.88 343.65-5.32L343.65-5.32Q343.65-5 343.52-4.42L343.52-4.42Q343.45-4.08 343.28-3.43 343.11-2.78 342.84-2.22L342.84-2.22Q342.69-1.95 342.38-1.71L342.38-1.71Q341.89-1.37 340.8-0.81 339.72-0.24 337.84 0.18 335.96 0.61 333.08 0.61ZM327.07-15.16L327.07-15.16 335.03-15.16Q336.27-15.16 336.27-16.31L336.27-16.31Q336.27-18.04 335.19-19.23 334.1-20.41 331.93-20.41L331.93-20.41Q329.56-20.41 328.45-18.9 327.34-17.38 327.07-15.16ZM355.27 0.61L355.27 0.61Q351.68 0.61 349.56-1.4 347.45-3.42 347.45-6.96L347.45-6.96Q347.45-8.79 348.12-10.36 348.8-11.94 350.47-13.15 352.14-14.36 355.16-15.09 358.17-15.82 362.86-15.94L362.86-15.94Q362.86-18.16 361.75-19.14 360.64-20.12 358.41-20.12L358.41-20.12Q356.41-20.12 355.14-19.43 353.87-18.75 353.56-18.51L353.56-18.51Q353.21-18.21 352.73-18.29L352.73-18.29Q352.07-18.38 351.32-18.63 350.58-18.87 349.72-19.19L349.72-19.19Q349.6-19.24 349.45-19.35 349.31-19.46 349.28-19.68L349.28-19.68Q349.28-19.8 349.31-19.98 349.33-20.17 349.43-20.65L349.43-20.65Q349.53-21.14 349.72-21.86 349.92-22.58 350.09-22.97L350.09-22.97Q350.31-23.39 350.82-23.75L350.82-23.75Q351.24-24.1 353.34-24.85 355.44-25.61 359.42-25.61L359.42-25.61Q370.38-25.61 370.38-14.94L370.38-14.94 370.38-1.12Q370.38-0.66 370.12-0.33 369.86 0 369.25 0L369.25 0 365.59 0Q365.2 0 364.9-0.11 364.59-0.22 364.32-0.54L364.32-0.54 362.81-2.49 362.64-2.49Q361.52-0.85 359.62-0.12 357.73 0.61 355.27 0.61ZM357.95-5.05L357.95-5.05Q360.2-5.05 361.34-6.2 362.49-7.35 362.81-8.57L362.81-8.57 362.81-11.28Q359.42-11.28 357.72-10.75 356.02-10.23 355.46-9.39 354.9-8.54 354.9-7.57L354.9-7.57Q354.9-6.15 355.78-5.6 356.66-5.05 357.95-5.05ZM384.68-22.17L384.68-20.36 384.78-20.36Q386.61-25.44 391.37-25.44L391.37-25.44Q391.98-25.44 392.37-25.38 392.76-25.32 392.91-25.27L392.91-25.27Q393.28-25.15 393.28-24.71L393.28-24.71 393.28-18.82Q393.28-18.07 392.4-18.41L392.4-18.41Q392.1-18.53 391.55-18.66 391.01-18.8 390.03-18.8L390.03-18.8Q387.51-18.8 386.1-16.96 384.68-15.11 384.68-11.94L384.68-11.94 384.68-1.29Q384.68-0.56 384.38-0.28 384.07 0 383.34 0L383.34 0 378.31 0Q377.58 0 377.27-0.28 376.97-0.56 376.97-1.29L376.97-1.29 376.97-21.75Q376.97-22.34 377.21-22.66L377.21-22.66Q377.72-23.34 378.44-24.05 379.16-24.76 380.21-25.56L380.21-25.56Q380.41-25.71 380.6-25.76 380.8-25.81 380.95-25.81L380.95-25.81Q381.29-25.81 381.63-25.56L381.63-25.56Q383.66-23.97 384.46-22.85L384.46-22.85Q384.68-22.56 384.68-22.17L384.68-22.17ZM406.8 0.61L406.8 0.61Q398.64 0.61 398.64-7.86L398.64-7.86 398.64-19.31 395.89-19.31Q395.15-19.31 394.87-19.62 394.59-19.92 394.59-20.65L394.59-20.65 394.59-23.66Q394.59-24.39 394.87-24.69 395.15-25 395.89-25L395.89-25 398.64-25 398.64-28.93Q398.64-29.52 398.89-29.83L398.89-29.83Q399.91-31.18 401.89-32.74L401.89-32.74Q402.23-32.98 402.5-32.98L402.5-32.98Q402.79-32.98 403.09-32.74L403.09-32.74Q404.14-31.93 404.86-31.23 405.58-30.52 406.09-29.83L406.09-29.83Q406.33-29.52 406.33-28.93L406.33-28.93 406.33-25 410.66-25Q411.39-25 411.67-24.69 411.95-24.39 411.95-23.66L411.95-23.66 411.95-20.65Q411.95-19.92 411.67-19.62 411.39-19.31 410.66-19.31L410.66-19.31 406.33-19.31 406.33-9.2Q406.33-5.3 409.17-5.3L409.17-5.3Q409.61-5.3 409.97-5.38 410.34-5.47 410.61-5.57L410.61-5.57Q411.12-5.76 411.33-5.71 411.53-5.66 411.71-5.18L411.71-5.18 413.12-1.39Q413.34-0.78 412.83-0.51L412.83-0.51Q412.46-0.34 411.06 0.13 409.65 0.61 406.8 0.61ZM424.15 0.61L424.15 0.61Q421.54 0.61 419.82 0.17 418.1-0.27 417.06-0.89 416.02-1.51 415.44-2.03L415.44-2.03Q415-2.44 415.34-2.95L415.34-2.95 417.83-6.64Q418.37-7.42 419.05-6.74L419.05-6.74Q419.76-6.05 420.97-5.41 422.18-4.76 423.98-4.76L423.98-4.76Q425.59-4.76 426.63-5.31 427.67-5.86 427.67-6.91L427.67-6.91Q427.67-7.64 427.21-8.11 426.74-8.57 425.57-9.06 424.4-9.55 422.3-10.3L422.3-10.3Q419.2-11.43 417.61-13.01 416.02-14.6 416.02-17.65L416.02-17.65Q416.02-20.46 417.57-22.22 419.13-23.97 421.55-24.79 423.98-25.61 426.62-25.61L426.62-25.61Q429.96-25.61 431.32-24.99 432.67-24.37 433.07-24.02L433.07-24.02Q433.43-23.71 433.58-23.29L433.58-23.29Q433.9-22.34 434.07-20.78L434.07-20.78Q434.16-19.87 433.6-19.58L433.6-19.58Q433.31-19.41 432.67-19.21 432.04-19.02 431.41-18.87 430.77-18.73 430.45-18.73L430.45-18.73Q430.36-18.73 430.25-18.79 430.14-18.85 429.87-19.09L429.87-19.09Q429.55-19.41 428.78-19.82 428.01-20.24 426.67-20.24L426.67-20.24Q425.35-20.24 424.46-19.81 423.57-19.38 423.57-18.31L423.57-18.31Q423.57-17.14 424.7-16.55 425.84-15.97 428.45-15.04L428.45-15.04Q430.5-14.33 432.03-13.49 433.55-12.65 434.38-11.29 435.21-9.94 435.21-7.64L435.21-7.64Q435.21-4.66 433.59-2.84 431.97-1.03 429.44-0.21 426.91 0.61 424.15 0.61ZM460.72 0.61L460.72 0.61Q458.11 0.61 456.39 0.17 454.67-0.27 453.63-0.89 452.59-1.51 452.01-2.03L452.01-2.03Q451.57-2.44 451.91-2.95L451.91-2.95 454.4-6.64Q454.94-7.42 455.62-6.74L455.62-6.74Q456.33-6.05 457.54-5.41 458.74-4.76 460.55-4.76L460.55-4.76Q462.16-4.76 463.2-5.31 464.24-5.86 464.24-6.91L464.24-6.91Q464.24-7.64 463.77-8.11 463.31-8.57 462.14-9.06 460.97-9.55 458.87-10.3L458.87-10.3Q455.77-11.43 454.18-13.01 452.59-14.6 452.59-17.65L452.59-17.65Q452.59-20.46 454.14-22.22 455.69-23.97 458.12-24.79 460.55-25.61 463.19-25.61L463.19-25.61Q466.53-25.61 467.89-24.99 469.24-24.37 469.63-24.02L469.63-24.02Q470-23.71 470.15-23.29L470.15-23.29Q470.46-22.34 470.63-20.78L470.63-20.78Q470.73-19.87 470.17-19.58L470.17-19.58Q469.88-19.41 469.24-19.21 468.61-19.02 467.97-18.87 467.34-18.73 467.02-18.73L467.02-18.73Q466.92-18.73 466.81-18.79 466.7-18.85 466.43-19.09L466.43-19.09Q466.12-19.41 465.35-19.82 464.58-20.24 463.24-20.24L463.24-20.24Q461.92-20.24 461.03-19.81 460.14-19.38 460.14-18.31L460.14-18.31Q460.14-17.14 461.27-16.55 462.41-15.97 465.02-15.04L465.02-15.04Q467.07-14.33 468.6-13.49 470.12-12.65 470.95-11.29 471.78-9.94 471.78-7.64L471.78-7.64Q471.78-4.66 470.16-2.84 468.53-1.03 466.01-0.21 463.48 0.61 460.72 0.61ZM475.42-33.2L475.42-33.2Q475.42-33.52 475.61-33.76 475.81-34.01 476.12-34.4L476.12-34.4Q476.81-35.18 477.71-36.05 478.61-36.91 479.54-37.72L479.54-37.72Q480.13-38.18 480.42-38.18L480.42-38.18Q480.71-38.18 481.32-37.72L481.32-37.72Q483.3-36.01 484.69-34.4L484.69-34.4Q485.01-34.03 485.22-33.78 485.43-33.52 485.43-33.2L485.43-33.2Q485.43-32.89 485.22-32.64 485.01-32.4 484.67-31.98L484.67-31.98Q484.01-31.23 483.13-30.36 482.25-29.49 481.32-28.71L481.32-28.71Q480.98-28.42 480.79-28.33 480.59-28.25 480.42-28.25L480.42-28.25Q480.25-28.25 480.07-28.33 479.88-28.42 479.49-28.71L479.49-28.71Q478.52-29.49 477.66-30.36 476.81-31.23 476.12-32.03L476.12-32.03Q475.81-32.42 475.61-32.65 475.42-32.89 475.42-33.2ZM484.25-23.71L484.25-1.29Q484.25-0.56 483.95-0.28 483.64 0 482.91 0L482.91 0 477.88 0Q477.15 0 476.84-0.28 476.54-0.56 476.54-1.29L476.54-1.29 476.54-23.71Q476.54-24.44 476.84-24.72 477.15-25 477.88-25L477.88-25 482.91-25Q483.64-25 483.95-24.72 484.25-24.44 484.25-23.71L484.25-23.71ZM515.06-15.55L515.06-15.55 515.06-1.29Q515.06-0.56 514.76-0.28 514.45 0 513.72 0L513.72 0 508.69 0Q507.96 0 507.65-0.28 507.35-0.56 507.35-1.29L507.35-1.29 507.35-14.28Q507.35-16.94 506.22-18.16 505.1-19.38 503.17-19.38L503.17-19.38Q501.24-19.38 500.21-18.55 499.17-17.72 498.61-16.46L498.61-16.46 498.61-1.29Q498.61-0.56 498.3-0.28 498 0 497.26 0L497.26 0 492.24 0Q491.5 0 491.2-0.28 490.89-0.56 490.89-1.29L490.89-1.29 490.89-21.75Q490.89-22.34 491.14-22.66L491.14-22.66Q491.65-23.34 492.37-24.05 493.09-24.76 494.14-25.56L494.14-25.56Q494.46-25.81 494.75-25.81L494.75-25.81Q495.02-25.81 495.36-25.56L495.36-25.56Q496.39-24.76 497.12-24.02 497.85-23.29 498.41-22.51L498.41-22.51 498.53-22.51Q498.95-23.05 499.78-23.77 500.61-24.49 502.11-25.05 503.61-25.61 505.96-25.61L505.96-25.61Q508.25-25.61 510.33-24.68 512.4-23.75 513.73-21.56 515.06-19.36 515.06-15.55ZM534.1-25.61L534.1-25.61Q537.01-25.61 538.33-25.13 539.64-24.66 539.99-24.39L539.99-24.39Q540.52-24.05 540.82-23.51L540.82-23.51Q540.99-23.24 541.21-22.58 541.43-21.92 541.52-21.14L541.52-21.14Q541.65-20.53 541.55-20.28 541.45-20.02 540.94-19.65L540.94-19.65Q540.35-19.26 539.66-18.96 538.96-18.65 538.52-18.53L538.52-18.53Q538.16-18.43 537.96-18.48 537.76-18.53 537.42-18.77L537.42-18.77Q537.03-19.04 536.32-19.37 535.62-19.7 534.37-19.7L534.37-19.7Q532.78-19.7 531.36-18.92 529.93-18.14 529.04-16.58 528.15-15.01 528.15-12.67L528.15-12.67Q528.15-9.16 529.99-7.23 531.83-5.3 534.93-5.3L534.93-5.3Q536.52-5.3 537.57-5.63 538.62-5.96 539.23-6.3L539.23-6.3Q539.72-6.57 539.97-6.43 540.23-6.3 540.38-5.96L540.38-5.96 542.16-1.93Q542.43-1.29 541.87-1.03L541.87-1.03Q540.96-0.56 538.89 0.02 536.81 0.61 533.76 0.61L533.76 0.61Q527.63 0.61 523.97-2.65 520.31-5.91 520.31-12.4L520.31-12.4Q520.31-16.55 521.99-19.51 523.68-22.46 526.78-24.04 529.88-25.61 534.1-25.61ZM558.39 0.61L558.39 0.61Q554.27 0.61 551.21-0.72 548.16-2.05 546.48-4.86 544.79-7.67 544.79-12.11L544.79-12.11Q544.79-18.77 548.21-22.19 551.63-25.61 557.29-25.61L557.29-25.61Q560.98-25.61 563.53-24.29 566.08-22.97 567.41-20.65 568.74-18.33 568.74-15.36L568.74-15.36Q568.74-12.45 567.25-11.3 565.77-10.16 562.91-10.16L562.91-10.16 552.44-10.16Q552.63-7.64 554.28-6.32 555.93-5 558.76-5L558.76-5Q561-5 562.36-5.68 563.71-6.35 564.25-6.74L564.25-6.74Q564.72-7.08 565.3-7.06L565.3-7.06Q565.77-7.06 566.63-6.87 567.5-6.69 568.35-6.2L568.35-6.2Q568.96-5.88 568.96-5.32L568.96-5.32Q568.96-5 568.84-4.42L568.84-4.42Q568.77-4.08 568.6-3.43 568.43-2.78 568.16-2.22L568.16-2.22Q568.01-1.95 567.69-1.71L567.69-1.71Q567.21-1.37 566.12-0.81 565.03-0.24 563.15 0.18 561.27 0.61 558.39 0.61ZM552.39-15.16L552.39-15.16 560.35-15.16Q561.59-15.16 561.59-16.31L561.59-16.31Q561.59-18.04 560.5-19.23 559.42-20.41 557.24-20.41L557.24-20.41Q554.88-20.41 553.77-18.9 552.65-17.38 552.39-15.16ZM586.68-2.08L586.68-2.08 586.68-2.64Q586.68-5.32 587.56-7.48 588.44-9.64 589.84-11.36 591.25-13.09 592.86-14.42 594.47-15.75 595.94-16.8L595.94-16.8Q599.01-18.99 600.59-20.81 602.16-22.63 602.16-24.9L602.16-24.9Q602.16-29.44 597.18-29.44L597.18-29.44Q595.2-29.44 593.69-28.81 592.18-28.17 591.25-27.54L591.25-27.54Q590.71-27.17 590.39-27.22 590.08-27.27 589.73-27.88L589.73-27.88 587.66-31.52Q587.22-32.28 587.93-32.76L587.93-32.76Q589.3-33.69 591.9-34.64 594.5-35.6 598.67-35.6L598.67-35.6Q604.02-35.6 607.02-32.91 610.02-30.22 610.02-25.66L610.02-25.66Q610.02-22.46 608.75-20.14 607.48-17.82 605.46-16.04 603.43-14.26 601.11-12.65L601.11-12.65Q598.74-11.01 596.94-9.4 595.13-7.79 595.13-6.4L595.13-6.4 607.78-6.4Q608.36-6.4 608.66-6.2L608.66-6.2Q609.29-5.76 609.97-5.15 610.66-4.54 611.41-3.69L611.41-3.69Q611.66-3.37 611.66-3.2L611.66-3.2Q611.66-2.98 611.41-2.71L611.41-2.71Q610.66-1.86 609.97-1.25 609.29-0.63 608.66-0.2L608.66-0.2Q608.31 0 607.78 0L607.78 0 588.49 0Q587.44 0 587.06-0.55 586.68-1.1 586.68-2.08ZM629.28 0.61L629.28 0.61Q622.67 0.61 619.48-3.78 616.29-8.18 616.29-16.94L616.29-16.94Q616.29-26.05 619.74-30.82 623.18-35.6 629.97-35.6L629.97-35.6Q636.44-35.6 639.55-31.13 642.66-26.66 642.66-17.75L642.66-17.75Q642.66-12.55 641.34-8.39 640.03-4.22 637.08-1.81 634.14 0.61 629.28 0.61ZM629.53-5.54L629.53-5.54Q632.29-5.54 633.54-8.57 634.8-11.6 634.8-17.5L634.8-17.5Q634.8-23.41 633.57-26.43 632.33-29.44 629.62-29.44L629.62-29.44Q626.74-29.44 625.45-26.33 624.16-23.22 624.16-17.14L624.16-17.14Q624.16-11.4 625.44-8.47 626.72-5.54 629.53-5.54ZM660.29 0.61L660.29 0.61Q653.67 0.61 650.48-3.78 647.3-8.18 647.3-16.94L647.3-16.94Q647.3-26.05 650.74-30.82 654.18-35.6 660.97-35.6L660.97-35.6Q667.44-35.6 670.55-31.13 673.67-26.66 673.67-17.75L673.67-17.75Q673.67-12.55 672.35-8.39 671.03-4.22 668.09-1.81 665.14 0.61 660.29 0.61ZM660.53-5.54L660.53-5.54Q663.29-5.54 664.55-8.57 665.8-11.6 665.8-17.5L665.8-17.5Q665.8-23.41 664.57-26.43 663.34-29.44 660.63-29.44L660.63-29.44Q657.75-29.44 656.45-26.33 655.16-23.22 655.16-17.14L655.16-17.14Q655.16-11.4 656.44-8.47 657.72-5.54 660.53-5.54ZM691.29 0.61L691.29 0.61Q684.67 0.61 681.49-3.78 678.3-8.18 678.3-16.94L678.3-16.94Q678.3-26.05 681.74-30.82 685.19-35.6 691.97-35.6L691.97-35.6Q698.44-35.6 701.56-31.13 704.67-26.66 704.67-17.75L704.67-17.75Q704.67-12.55 703.35-8.39 702.03-4.22 699.09-1.81 696.15 0.61 691.29 0.61ZM691.53-5.54L691.53-5.54Q694.29-5.54 695.55-8.57 696.81-11.6 696.81-17.5L696.81-17.5Q696.81-23.41 695.57-26.43 694.34-29.44 691.63-29.44L691.63-29.44Q688.75-29.44 687.46-26.33 686.16-23.22 686.16-17.14L686.16-17.14Q686.16-11.4 687.44-8.47 688.73-5.54 691.53-5.54Z" opacity="1" transform="matrix(1,0,0,1,0,0)" fill="#556970" class="slogan-text-1" data-fill-palette-color="secondary" id="text-1"></path></svg></g></svg></g></svg></g></svg></g><g><svg viewBox="0 0 87.23623985265317 124.23174553732458" height="124.23174553732458" width="87.23623985265317"><g><svg xmlns="http://www.w3.org/2000/svg" xmlns:xlink="http://www.w3.org/1999/xlink" version="1.1" x="0" y="0" viewBox="21.666 9.65 56.668000000000006 80.69999999999999" enable-background="new 0 0 100 100" xml:space="preserve" height="124.23174553732458" width="87.23623985265317" class="icon-icon-0" data-fill-palette-color="accent" id="icon-0"><g fill="#ff0000" data-fill-palette-color="accent"><path d="M56.973 90.35H43.027l1.994-46.918-23.355 1.994V31.345l23.283 1.988L42.962 9.65h14.076l-1.987 23.683 23.283-1.988v14.081l-23.355-1.994L56.973 90.35zM46.158 87.35h7.684l-2.006-47.197 23.498 2.006v-7.546l-23.57 2.012 2.013-23.974h-7.553l2.013 23.974-23.57-2.012v7.546l23.498-2.006L46.158 87.35z" fill="#ff0000" data-fill-palette-color="accent"></path></g></svg></g></svg></g></svg></g><defs></defs></svg><rect width="395.52" height="99.30408025926315" fill="none" stroke="none" visibility="hidden"></rect></g></svg></g></svg>