<svg xmlns="http://www.w3.org/2000/svg" version="1.1" xmlns:xlink="http://www.w3.org/1999/xlink" xmlns:svgjs="http://svgjs.dev/svgjs" width="1500" height="1500" viewBox="0 0 1500 1500"><g transform="matrix(1,0,0,1,0,-0.0009809305198587026)"><svg viewBox="0 0 280 280" data-background-color="#003366" preserveAspectRatio="xMidYMid meet" height="1500" width="1500" xmlns="http://www.w3.org/2000/svg" xmlns:xlink="http://www.w3.org/1999/xlink"><g id="tight-bounds" transform="matrix(1,0,0,1,0,0.00018310703038082465)"><svg viewBox="0 0 280 280" height="280" width="280"><g><svg viewBox="0 0 280 280" height="280" width="280"><g><svg viewBox="0 0 280 280" height="280" width="280"><g id="textblocktransform"><svg viewBox="0 0 280 280" height="280" width="280" id="textblock"><g><svg viewBox="0 0 280 280" height="280" width="280"><g transform="matrix(1,0,0,1,105.24259113581724,90.50252531694167)"><svg viewBox="0 0 69.51481772836554 98.99494936611664" height="98.99494936611664" width="69.51481772836554"><g id="icon-0"><svg xmlns="http://www.w3.org/2000/svg" xmlns:xlink="http://www.w3.org/1999/xlink" version="1.1" x="0" y="0" viewBox="21.666 9.65 56.668000000000006 80.69999999999999" enable-background="new 0 0 100 100" xml:space="preserve" height="98.99494936611664" width="69.51481772836554" class="icon-xg-0" data-fill-palette-color="accent" id="xg-0"><g fill="#ffffff" data-fill-palette-color="accent"><path d="M56.973 90.35H43.027l1.994-46.918-23.355 1.994V31.345l23.283 1.988L42.962 9.65h14.076l-1.987 23.683 23.283-1.988v14.081l-23.355-1.994L56.973 90.35zM46.158 87.35h7.684l-2.006-47.197 23.498 2.006v-7.546l-23.57 2.012 2.013-23.974h-7.553l2.013 23.974-23.57-2.012v7.546l23.498-2.006L46.158 87.35z" fill="#ffffff" data-fill-palette-color="accent"></path></g></svg></g></svg></g><g id="text-0"><path d="M28.937 87.116l0.184-0.155c0.293 0.109 1.231 0.662 2.816 1.661 1.576 1.003 2.374 1.6 2.395 1.792v0c0.443 2.339-0.144 5.685-1.759 10.037v0c-1.285 3.462-3.647 5.933-7.086 7.412-3.448 1.483-6.927 1.573-10.439 0.27v0c-3.723-1.382-6.452-3.811-8.186-7.288-1.734-3.477-1.93-7.025-0.588-10.642v0c1.148-3.095 2.657-6.158 4.526-9.191v0c3.493 1.353 5.371 2.078 5.632 2.175v0c0.392 0.146 0.487 0.492 0.283 1.04v0c-0.097 0.262-0.226 0.408-0.386 0.441v0c-0.366-0.044-0.749-0.072-1.148-0.086-0.399-0.013-0.952 0.065-1.66 0.235-0.701 0.172-1.354 0.45-1.957 0.835-0.61 0.383-1.246 1.011-1.91 1.884-0.67 0.871-1.234 1.922-1.692 3.155v0c-0.954 2.572-0.63 5.182 0.973 7.831 1.594 2.653 3.82 4.51 6.678 5.57v0c2.123 0.788 4.212 1.145 6.265 1.071 2.053-0.074 3.96-0.687 5.719-1.84 1.754-1.156 3.034-2.82 3.84-4.993v0c0.964-2.596 0.948-4.883-0.046-6.861v0c-0.256-0.513-0.654-1.025-1.194-1.537-0.537-0.518-0.997-0.93-1.38-1.235-0.376-0.303-0.55-0.494-0.52-0.575v0c0.058-0.156 0.153-0.336 0.287-0.542 0.131-0.199 0.248-0.354 0.352-0.464z" fill="#ffffff" data-fill-palette-color="primary"></path><path d="M32.875 62.038v0c1.101-1.515 2.432-2.207 3.993-2.074 1.562 0.133 3.474 1.021 5.736 2.664v0l3.668 2.663c1.29 0.937 2.35 1.567 3.181 1.892v0c0.192 0.074 0.558-0.108 1.098-0.545 0.545-0.433 0.899-0.763 1.062-0.989v0c0.051-0.07 0.218-0.018 0.503 0.156 0.29 0.178 0.475 0.329 0.557 0.454v0c-1.756 2.18-2.692 3.351-2.81 3.512v0c-0.047 0.064-0.853 1.293-2.418 3.686v0c-0.158 0.025-0.379-0.066-0.663-0.273-0.279-0.203-0.386-0.35-0.32-0.441v0c0.199-0.274 0.399-0.708 0.6-1.301 0.21-0.594 0.25-0.972 0.12-1.132v0c-0.539-0.637-1.27-1.292-2.194-1.962v0l-3.604-2.617c-2.08-1.51-3.688-2.235-4.823-2.174-1.127 0.06-2.126 0.689-2.996 1.888v0c-0.492 0.677-0.716 1.545-0.671 2.602 0.048 1.053 0.274 1.725 0.676 2.019v0l6.013 4.367c1.311 0.952 2.382 1.591 3.214 1.915v0c0.192 0.074 0.558-0.108 1.098-0.545 0.545-0.433 0.899-0.763 1.062-0.989v0c0.051-0.07 0.218-0.018 0.503 0.156 0.294 0.172 0.479 0.323 0.557 0.454v0c-1.756 2.18-2.69 3.348-2.804 3.504v0c-0.101 0.14-0.941 1.414-2.517 3.823v0c-0.158 0.025-0.379-0.066-0.664-0.273-0.279-0.203-0.386-0.35-0.32-0.442v0c0.195-0.269 0.411-0.724 0.647-1.364 0.241-0.637 0.297-1.036 0.167-1.197v0c-0.539-0.637-1.259-1.284-2.162-1.939v0l-14.735-10.701c-0.768-0.558-1.54-1.016-2.314-1.373v0c-0.442-0.149-1.042 0.298-1.799 1.34v0l-0.223 0.307c-0.098 0.134-0.273 0.11-0.525-0.074v0c-0.36-0.261-0.491-0.459-0.394-0.594v0c0.422-0.728 0.787-1.423 1.096-2.085 0.305-0.657 0.52-1.19 0.645-1.6 0.125-0.41 0.219-0.765 0.281-1.064 0.062-0.3 0.094-0.519 0.095-0.657v0l0.018-0.246 0.053-0.072c0.066-0.091 0.193-0.135 0.379-0.132 0.19-0.002 0.349 0.028 0.477 0.089v0c0.546 0.774 1.442 1.614 2.689 2.519v0l7.432 5.397c0.091 0.066 0.155 0.075 0.19 0.027v0c0.016-0.021 0.015-0.071-0.003-0.149v0c-0.18-0.894-0.188-1.979-0.024-3.256 0.173-1.278 0.564-2.336 1.173-3.174z" fill="#ffffff" data-fill-palette-color="primary"></path><path d="M55.048 38.756v0c1.237-1.087 2.323-1.501 3.257-1.243v0c0.644 0.734 1.001 1.371 1.07 1.911 0.059 0.54-0.078 0.957-0.413 1.251v0c-0.379 0.333-0.882 0.461-1.507 0.383-0.63-0.083-1.217 0.114-1.761 0.592v0c-0.654 0.574-0.955 1.378-0.905 2.412 0.051 1.034 0.372 1.888 0.964 2.561v0l4.155 4.73c1.069 1.218 1.974 2.076 2.713 2.576v0c0.171 0.115 0.576 0.011 1.213-0.31 0.637-0.312 1.06-0.56 1.27-0.743v0c0.06-0.053 0.212 0.035 0.455 0.262 0.243 0.237 0.389 0.428 0.436 0.572v0c-2.193 1.74-3.371 2.683-3.536 2.828v0c-0.13 0.114-1.229 1.172-3.297 3.174v0c-0.159-0.01-0.355-0.148-0.588-0.412-0.228-0.259-0.299-0.426-0.214-0.501v0c0.249-0.219 0.56-0.616 0.931-1.189 0.376-0.569 0.52-0.948 0.434-1.137v0c-0.39-0.736-0.962-1.533-1.716-2.391v0l-5.233-5.958c-0.719-0.818-1.366-1.258-1.941-1.318v0c-0.429-0.065-0.837-0.012-1.224 0.16-0.388 0.173-0.681 0.346-0.881 0.522-0.2 0.175-0.317 0.243-0.352 0.203v0c-0.443-0.504-0.613-0.823-0.51-0.957v0c1.937-2.293 3.147-3.839 3.632-4.636v0c0.02-0.018 0.048-0.051 0.084-0.1 0.031-0.045 0.047-0.068 0.047-0.068v0c0.085-0.075 0.214-0.033 0.387 0.124 0.183 0.158 0.299 0.29 0.349 0.397v0l1.2 1.743c-0.12-0.902-0.066-1.891 0.164-2.968 0.225-1.073 0.664-1.896 1.317-2.47z" fill="#ffffff" data-fill-palette-color="primary"></path><path d="M67.337 23.91c-0.556-0.138-0.987-0.459-1.293-0.966-0.302-0.5-0.384-1.029-0.246-1.584 0.138-0.556 0.457-0.985 0.957-1.288 0.506-0.305 1.037-0.389 1.593-0.251 0.556 0.138 0.985 0.457 1.287 0.957 0.305 0.506 0.389 1.037 0.252 1.593-0.138 0.556-0.459 0.987-0.966 1.292-0.5 0.302-1.029 0.384-1.584 0.247zM74.951 29.915l4.468 7.403c0.837 1.387 1.576 2.392 2.215 3.015v0c0.148 0.143 0.556 0.118 1.223-0.075 0.67-0.187 1.125-0.353 1.363-0.497v0c0.074-0.045 0.208 0.068 0.403 0.339 0.198 0.276 0.31 0.488 0.336 0.635v0c-2.466 1.325-3.781 2.037-3.946 2.137-0.171 0.103-1.44 0.95-3.807 2.541v0c-0.155-0.038-0.323-0.208-0.505-0.509-0.178-0.296-0.219-0.473-0.123-0.531v0c0.284-0.172 0.66-0.507 1.127-1.006 0.47-0.493 0.677-0.839 0.619-1.037v0c-0.248-0.797-0.667-1.684-1.257-2.662v0l-4.097-6.789c-0.563-0.933-1.122-1.48-1.677-1.641v0c-0.41-0.14-0.822-0.16-1.234-0.059-0.412 0.101-0.732 0.221-0.959 0.358-0.227 0.137-0.355 0.183-0.382 0.138v0c-0.347-0.574-0.457-0.919-0.332-1.033v0c2.306-1.911 3.771-3.218 4.394-3.92v0l0.048-0.075c0.051-0.031 0.088-0.053 0.111-0.067v0c0.097-0.058 0.216 0.005 0.359 0.19 0.146 0.191 0.237 0.342 0.273 0.452v0c0.457 1.027 0.917 1.925 1.38 2.693z" fill="#ffffff" data-fill-palette-color="primary"></path><path d="M92.868 17.161v0c0.575-0.224 1.327-0.436 2.255-0.633 0.928-0.198 1.573-0.335 1.935-0.413v0c0.726 1.093 1.398 2.36 2.016 3.801v0c0.051 0.13-0.094 0.261-0.434 0.394v0c-0.359 0.14-0.589 0.126-0.69-0.041v0c-0.415-0.679-1.055-1.225-1.921-1.636-0.868-0.417-1.692-0.474-2.472-0.169v0c-1.875 0.731-2.512 1.867-1.911 3.407v0c0.152 0.39 0.339 0.713 0.56 0.969 0.223 0.262 0.537 0.471 0.94 0.628 0.403 0.156 0.708 0.262 0.915 0.317 0.201 0.057 0.626 0.134 1.276 0.229 0.654 0.087 1.062 0.146 1.223 0.176v0c0.118 0.011 0.492 0.065 1.122 0.161 0.626 0.105 1.066 0.183 1.32 0.234 0.261 0.048 0.653 0.148 1.176 0.3 0.531 0.156 0.935 0.323 1.211 0.501 0.282 0.175 0.58 0.419 0.895 0.731 0.314 0.312 0.547 0.663 0.699 1.053v0c0.601 1.541 0.504 3.057-0.289 4.551-0.8 1.495-2.007 2.558-3.623 3.187v0c-0.551 0.215-1.064 0.379-1.539 0.494-0.484 0.11-1.069 0.21-1.755 0.299-0.685 0.089-1.209 0.172-1.571 0.249v0c-0.316-0.354-0.718-0.946-1.205-1.776-0.487-0.829-0.834-1.507-1.039-2.033v0c0.144-0.234 0.268-0.372 0.374-0.412v0c0.39-0.152 0.63-0.157 0.721-0.015v0c0.461 0.726 1.245 1.3 2.351 1.725 1.112 0.422 2.151 0.444 3.117 0.068v0c0.835-0.326 1.43-0.821 1.783-1.487 0.354-0.665 0.363-1.428 0.028-2.288v0c-0.171-0.439-0.414-0.815-0.729-1.128-0.32-0.31-0.728-0.543-1.224-0.698-0.493-0.15-0.939-0.261-1.338-0.334-0.403-0.064-0.966-0.137-1.689-0.218-0.721-0.075-1.26-0.15-1.617-0.225v0c-2.486-0.378-4.043-1.375-4.673-2.99v0c-0.55-1.411-0.431-2.779 0.356-4.105 0.787-1.326 1.936-2.284 3.446-2.873z" fill="#ffffff" data-fill-palette-color="primary"></path><path d="M115.381 24.465l-1.918-10.485-2.391 0.437c-0.137 0.025-0.258-0.25-0.363-0.825v0c-0.03-0.163-0.035-0.264-0.015-0.301v0c0.732-0.499 1.465-1.385 2.197-2.66v0c0.235-0.414 0.458-0.874 0.67-1.378 0.205-0.503 0.372-0.939 0.5-1.307 0.135-0.369 0.2-0.567 0.195-0.593v0c0.823-0.151 1.247-0.157 1.273-0.02v0l0.747 4.086c0.719-0.131 1.808-0.324 3.267-0.577 1.459-0.253 2.228-0.387 2.307-0.402v0c0.222-0.041 0.356 0.063 0.401 0.312v0c0.091 0.497 0.049 1.044-0.125 1.643v0l-5.488 1.004 1.85 10.113c0.201 1.098 0.642 1.925 1.325 2.482 0.689 0.556 1.488 0.751 2.396 0.584v0c0.823-0.151 1.628-0.568 2.414-1.252v0c0.069-0.067 0.214 0.028 0.437 0.285 0.216 0.258 0.314 0.405 0.294 0.443v0c-0.338 0.514-0.893 1.061-1.665 1.641-0.778 0.581-1.621 0.955-2.529 1.121v0c-1.372 0.251-2.601 0.01-3.687-0.723-1.087-0.74-1.784-1.949-2.092-3.628z" fill="#ffffff" data-fill-palette-color="primary"></path><path d="M137.008 3.612c-0.412-0.398-0.623-0.893-0.633-1.484-0.01-0.584 0.184-1.083 0.582-1.494 0.398-0.412 0.889-0.623 1.473-0.634 0.591-0.01 1.093 0.184 1.505 0.582 0.412 0.398 0.623 0.889 0.633 1.474 0.01 0.591-0.184 1.093-0.581 1.504-0.398 0.412-0.893 0.623-1.484 0.634-0.584 0.01-1.083-0.184-1.495-0.582zM140.582 12.627l0.15 8.645c0.028 1.62 0.162 2.86 0.403 3.72v0c0.057 0.198 0.422 0.381 1.096 0.549 0.674 0.174 1.15 0.259 1.429 0.254v0c0.086-0.001 0.146 0.164 0.178 0.495 0.032 0.338 0.023 0.577-0.028 0.718v0c-2.798-0.091-4.293-0.135-4.486-0.132-0.199 0.003-1.722 0.1-4.568 0.289v0c-0.115-0.111-0.175-0.342-0.181-0.695-0.006-0.345 0.047-0.519 0.16-0.52v0c0.332-0.006 0.825-0.107 1.479-0.305 0.654-0.191 1.006-0.386 1.056-0.586v0c0.185-0.814 0.268-1.791 0.248-2.934v0l-0.137-7.928c-0.019-1.089-0.228-1.843-0.627-2.261v0c-0.285-0.327-0.631-0.55-1.038-0.67-0.407-0.119-0.744-0.176-1.009-0.172-0.266 0.005-0.399-0.02-0.4-0.072v0c-0.012-0.671 0.065-1.024 0.231-1.06v0c2.954-0.496 4.877-0.892 5.768-1.186v0l0.079-0.042c0.06-0.001 0.103-0.002 0.13-0.002v0c0.113-0.002 0.185 0.113 0.215 0.345 0.031 0.239 0.034 0.415 0.009 0.528v0c-0.12 1.118-0.172 2.125-0.157 3.022z" fill="#ffffff" data-fill-palette-color="primary"></path><path d="M157.859 25.765c0.403 0.48 0.978 0.783 1.724 0.911 0.74 0.126 1.495 0.023 2.266-0.311 0.764-0.334 1.187-0.737 1.268-1.209v0l0.727-4.262c-0.242 0.073-0.811 0.175-1.71 0.305-0.905 0.129-1.614 0.257-2.127 0.385-0.519 0.12-1.049 0.384-1.59 0.79-0.534 0.407-0.856 0.929-0.964 1.564v0c-0.126 0.74 0.009 1.349 0.406 1.827zM164.367 11.07v0c1.519 0.259 2.546 0.812 3.083 1.657 0.537 0.839 0.667 2.074 0.389 3.705v0l-1.628 9.545c-0.099 0.583-0.031 1.093 0.204 1.53 0.242 0.439 0.625 0.703 1.148 0.793v0c0.386 0.066 0.9-0.045 1.542-0.334v0c0.111 0.019 0.149 0.137 0.112 0.353v0c-0.061 0.36-0.18 0.64-0.355 0.839v0c-1.297 0.769-2.344 1.086-3.144 0.949v0c-0.635-0.108-1.196-0.473-1.682-1.095-0.493-0.623-0.799-1.241-0.917-1.854v0c-0.033-0.006-0.153 0.065-0.359 0.211-0.208 0.153-0.485 0.318-0.833 0.495-0.341 0.184-0.733 0.367-1.174 0.547-0.442 0.181-0.945 0.307-1.51 0.38-0.565 0.072-1.122 0.061-1.672-0.033v0c-1.27-0.217-2.26-0.732-2.97-1.547-0.716-0.816-0.96-1.899-0.73-3.248v0c0.104-0.609 0.355-1.155 0.755-1.639 0.393-0.485 0.825-0.867 1.296-1.144 0.471-0.27 1.097-0.524 1.879-0.761 0.775-0.238 1.433-0.402 1.973-0.492 0.541-0.09 1.248-0.205 2.121-0.345 0.878-0.133 1.493-0.241 1.844-0.323v0c0.262-0.036 0.422-0.221 0.478-0.555v0l0.529-3.103c0.15-0.877-0.009-1.605-0.476-2.183-0.467-0.578-1.087-0.933-1.86-1.065v0c-0.831-0.142-1.571 0.025-2.218 0.501-0.646 0.469-1.047 1.159-1.201 2.069v0c-0.164 0.962-0.813 1.347-1.945 1.153v0c-0.773-0.132-1.265-0.485-1.477-1.06v0c0.202-1.185 1.271-2.215 3.205-3.091 1.941-0.875 3.806-1.16 5.593-0.855z" fill="#ffffff" data-fill-palette-color="primary"></path><path d="M195.112 20.763v0c1.805 0.763 2.794 1.937 2.966 3.525 0.176 1.596-0.344 3.834-1.561 6.716v0l-1.489 3.524c-0.631 1.493-1.01 2.681-1.138 3.563v0c-0.029 0.204 0.231 0.519 0.779 0.946 0.552 0.435 0.956 0.707 1.213 0.815v0c0.073 0.031 0.058 0.205-0.047 0.521-0.101 0.325-0.207 0.54-0.316 0.645v0c-2.521-1.217-3.871-1.863-4.048-1.937v0c-0.055-0.023-1.434-0.53-4.138-1.521v0c-0.06-0.148-0.022-0.384 0.116-0.708 0.134-0.318 0.254-0.455 0.357-0.412v0c0.306 0.129 0.773 0.226 1.403 0.29 0.62 0.067 0.997 0.021 1.129-0.139v0c0.493-0.671 0.961-1.533 1.406-2.585v0l1.633-3.864c1.013-2.398 1.396-4.165 1.147-5.301-0.248-1.136-1.067-1.997-2.455-2.584v0c-0.826-0.349-1.746-0.381-2.761-0.096-1.021 0.283-1.634 0.669-1.841 1.158v0l-2.873 6.8c-0.631 1.493-1.01 2.681-1.138 3.564v0c-0.022 0.207 0.24 0.523 0.788 0.95 0.546 0.432 0.947 0.703 1.204 0.811v0c0.073 0.031 0.061 0.206-0.038 0.525-0.107 0.322-0.216 0.536-0.325 0.641v0c-2.521-1.217-3.871-1.863-4.048-1.937v0c-0.153-0.065-1.584-0.594-4.293-1.587v0c-0.06-0.148-0.022-0.384 0.115-0.709 0.134-0.318 0.254-0.455 0.358-0.411v0c0.306 0.129 0.798 0.236 1.476 0.321 0.675 0.091 1.079 0.056 1.212-0.104v0c0.493-0.671 0.961-1.533 1.406-2.586v0l3.086-7.304c0.424-1.003 0.538-1.777 0.343-2.321v0c-0.128-0.414-0.354-0.759-0.678-1.033-0.324-0.274-0.608-0.463-0.853-0.566-0.245-0.103-0.357-0.18-0.336-0.228v0c0.261-0.618 0.475-0.91 0.64-0.876v0c2.908 0.746 4.826 1.163 5.754 1.252v0c0.031 0.013 0.073 0.024 0.127 0.032 0.054 0.008 0.081 0.013 0.082 0.013v0c0.104 0.044 0.126 0.179 0.066 0.406-0.069 0.231-0.137 0.393-0.206 0.487v0c-0.409 0.678-0.678 1.17-0.807 1.476v0c-0.044 0.104-0.041 0.166 0.007 0.187v0c0.024 0.01 0.075 0.003 0.151-0.023v0c0.854-0.367 1.907-0.615 3.158-0.743 1.248-0.122 2.337 0.014 3.267 0.407z" fill="#ffffff" data-fill-palette-color="primary"></path><path d="M224.44 27.152v0c0.455 0.335 0.904 0.649 1.347 0.942 0.448 0.288 0.929 0.597 1.445 0.927 0.521 0.334 0.947 0.606 1.279 0.817v0c-0.056 0.165-0.158 0.349-0.308 0.553v0c-0.232 0.316-0.394 0.44-0.485 0.373v0c-0.225-0.165-0.686-0.385-1.383-0.659-0.706-0.273-1.138-0.347-1.295-0.223v0c-0.786 0.642-1.659 1.616-2.619 2.921v0l-10.788 14.659c-2.09 2.84-4.699 4.722-7.827 5.644-3.132 0.928-5.925 0.488-8.381-1.319v0c-0.246-0.181-0.483-0.425-0.71-0.733-0.222-0.303-0.39-0.568-0.505-0.792v0l-0.132-0.308c-0.041-0.516 0.128-1.031 0.506-1.545v0c0.366-0.497 0.874-0.75 1.523-0.759 0.649-0.009 1.255 0.194 1.817 0.608v0c0.407 0.299 0.685 0.879 0.835 1.739 0.149 0.851 0.37 1.385 0.664 1.602v0c0.316 0.232 0.753 0.311 1.311 0.236 0.559-0.075 1.218-0.299 1.978-0.672 0.764-0.378 1.659-1.05 2.686-2.019 1.022-0.963 2.055-2.153 3.098-3.571v0l11.088-15.068c1.027-1.396 1.685-2.458 1.974-3.186v0c0.07-0.229-0.131-0.628-0.603-1.198-0.466-0.566-0.846-0.957-1.14-1.173v0c-0.091-0.067-0.028-0.247 0.188-0.542v0c0.201-0.273 0.378-0.419 0.532-0.437v0c0.278 0.238 0.847 0.714 1.707 1.429 0.861 0.724 1.593 1.309 2.198 1.754z" fill="#ffffff" data-fill-palette-color="primary"></path><path d="M237.656 53.46v0c-1.01-1.083-2.33-1.504-3.96-1.264-1.634 0.244-3.165 1.033-4.592 2.364v0c-1.68 1.568-2.712 3.344-3.095 5.328-0.383 1.984-0.031 3.558 1.056 4.723v0c1.01 1.083 2.35 1.496 4.017 1.239 1.672-0.262 3.225-1.061 4.657-2.398v0c1.656-1.545 2.661-3.305 3.016-5.281 0.355-1.975-0.011-3.546-1.099-4.711zM239.163 52.68v0c1.717 1.84 2.523 4.037 2.416 6.589-0.107 2.543-1.092 4.685-2.957 6.425v0c-1.879 1.754-4.084 2.617-6.616 2.591-2.527-0.031-4.658-0.976-6.394-2.836-1.735-1.86-2.547-4.068-2.435-6.625 0.121-2.557 1.121-4.712 3-6.465v0c1.903-1.776 4.102-2.642 6.596-2.599 2.489 0.048 4.619 1.022 6.39 2.92z" fill="#ffffff" data-fill-palette-color="primary"></path><path d="M256.329 79.563v0c-0.788-1.416-2.042-2.173-3.763-2.272-1.72-0.099-3.424 0.322-5.112 1.262v0c-1.781 0.992-3.06 2.327-3.836 4.006-0.778 1.688-0.699 3.373 0.239 5.055v0c0.462 0.83 1.014 1.37 1.655 1.621 0.636 0.254 1.27 0.205 1.902-0.147v0l8.73-4.861c0.511-0.284 0.839-0.828 0.984-1.631 0.149-0.797-0.118-1.808-0.799-3.033zM258.136 79.184v0c0.585 1.05 0.886 2.083 0.905 3.099v0c0.094 0.168 0.361 0.13 0.802-0.116v0l3.96-2.205c0.83-0.462 1.57-0.969 2.22-1.521v0c0.321-0.338 0.168-1.07-0.459-2.196v0l-0.184-0.331c-0.081-0.145 0.015-0.294 0.288-0.445v0c0.389-0.216 0.624-0.252 0.704-0.108v0c0.486 0.695 0.962 1.319 1.43 1.872 0.468 0.553 0.861 0.973 1.18 1.259 0.319 0.286 0.603 0.523 0.852 0.711 0.246 0.182 0.438 0.315 0.575 0.398v0l0.196 0.085 0.038 0.07c0.055 0.099 0.043 0.234-0.035 0.407-0.079 0.173-0.172 0.305-0.281 0.396v0c-0.935 0.163-2.076 0.62-3.422 1.37v0l-16.485 9.179c-1.172 0.653-2.058 1.245-2.659 1.778v0c-0.148 0.143-0.21 0.353-0.186 0.628 0.03 0.272 0.095 0.532 0.195 0.78 0.106 0.245 0.22 0.478 0.344 0.699v0l0.149 0.35c0.016 0.083-0.113 0.2-0.386 0.351v0c-0.366 0.204-0.589 0.233-0.669 0.088v0c-0.227-0.353-0.504-0.734-0.832-1.145-0.322-0.414-0.637-0.797-0.947-1.148-0.313-0.358-0.606-0.685-0.878-0.982-0.278-0.294-0.516-0.53-0.714-0.709v0l-0.253-0.292c-0.081-0.145 0.085-0.332 0.496-0.562v0l0.444-0.247c0.145-0.081 0.167-0.158 0.066-0.23v0c-1.519-0.94-2.62-2.023-3.302-3.247v0c-1.128-2.025-1.35-4.124-0.668-6.298 0.676-2.171 2.016-3.813 4.017-4.928v0c2.373-1.322 4.921-1.646 7.645-0.974 2.733 0.675 4.684 2.063 5.854 4.164z" fill="#ffffff" data-fill-palette-color="primary"></path><path d="M272.769 100.245c0.262-0.509 0.675-0.854 1.238-1.034 0.557-0.178 1.09-0.136 1.599 0.126 0.509 0.262 0.853 0.672 1.031 1.229 0.18 0.563 0.139 1.099-0.124 1.608-0.262 0.509-0.672 0.853-1.228 1.031-0.563 0.18-1.099 0.139-1.608-0.123-0.509-0.262-0.854-0.675-1.035-1.238-0.178-0.557-0.136-1.09 0.127-1.599zM265.166 106.265l-8.235 2.636c-1.543 0.494-2.692 0.98-3.445 1.458v0c-0.174 0.111-0.244 0.514-0.21 1.207 0.027 0.696 0.083 1.176 0.168 1.442v0c0.026 0.082-0.115 0.187-0.423 0.313-0.315 0.129-0.546 0.189-0.695 0.181v0c-0.719-2.705-1.108-4.15-1.167-4.334-0.061-0.19-0.592-1.62-1.593-4.291v0c0.073-0.142 0.277-0.267 0.613-0.374 0.329-0.105 0.511-0.104 0.545 0.004v0c0.101 0.316 0.341 0.759 0.718 1.328 0.371 0.572 0.66 0.852 0.866 0.842v0c0.832-0.057 1.793-0.26 2.88-0.608v0l7.553-2.416c1.037-0.332 1.699-0.749 1.984-1.252v0c0.231-0.367 0.345-0.762 0.342-1.187-0.003-0.424-0.045-0.763-0.127-1.016-0.081-0.253-0.096-0.388-0.045-0.404v0c0.639-0.204 0.999-0.233 1.081-0.084v0c1.327 2.686 2.259 4.413 2.799 5.181v0l0.062 0.064c0.018 0.057 0.031 0.098 0.039 0.123v0c0.034 0.108-0.055 0.209-0.268 0.306-0.22 0.098-0.387 0.152-0.503 0.161v0c-1.105 0.207-2.085 0.447-2.939 0.72z" fill="#ffffff" data-fill-palette-color="primary"></path><path d="M26.836 202.925l-0.044 0.251c-0.298 0.112-1.415 0.312-3.35 0.6-1.933 0.294-2.971 0.372-3.115 0.235v0c-1.948-1.538-3.775-4.576-5.482-9.114v0c-1.356-3.606-1.184-7.168 0.515-10.688 1.697-3.526 4.376-5.977 8.038-7.354v0c3.879-1.459 7.693-1.41 11.443 0.146 3.747 1.55 6.33 4.211 7.749 7.985v0c1.211 3.22 2.116 6.665 2.715 10.335v0c-3.68 1.327-5.657 2.042-5.93 2.144v0c-0.41 0.154-0.724-0.058-0.942-0.635v0c-0.103-0.274-0.101-0.476 0.006-0.609v0c0.324-0.214 0.649-0.453 0.975-0.718 0.32-0.262 0.699-0.699 1.136-1.31 0.441-0.62 0.768-1.289 0.98-2.008 0.212-0.718 0.284-1.65 0.215-2.795-0.075-1.143-0.353-2.354-0.835-3.634v0c-1.007-2.679-3.046-4.517-6.117-5.512-3.071-0.995-6.095-0.933-9.072 0.186v0c-2.213 0.832-4.105 1.98-5.676 3.444-1.565 1.461-2.646 3.248-3.242 5.359-0.593 2.103-0.463 4.289 0.39 6.558v0c1.017 2.704 2.592 4.496 4.725 5.376v0c0.555 0.231 1.222 0.363 2.001 0.397 0.779 0.034 1.42 0.041 1.924 0.021 0.512-0.015 0.784 0.018 0.814 0.099v0c0.061 0.162 0.106 0.368 0.137 0.619 0.033 0.257 0.047 0.465 0.042 0.622z" fill="#ffffff" data-fill-palette-color="primary"></path><path d="M48.671 215.61v0c1.158 1.572 1.425 3.116 0.8 4.632-0.628 1.51-2.119 3.132-4.471 4.864v0l-3.802 2.8c-1.342 0.989-2.308 1.844-2.898 2.567v0c-0.13 0.17-0.062 0.594 0.206 1.271 0.258 0.676 0.474 1.131 0.648 1.367v0c0.051 0.07-0.052 0.22-0.311 0.452-0.268 0.23-0.478 0.364-0.631 0.403v0c-1.611-2.434-2.478-3.734-2.6-3.9v0c-0.051-0.07-1.018-1.259-2.9-3.568v0c0.02-0.163 0.177-0.353 0.471-0.57 0.294-0.217 0.477-0.277 0.548-0.181v0c0.205 0.278 0.572 0.614 1.101 1.008 0.52 0.392 0.881 0.552 1.081 0.478v0c0.807-0.338 1.691-0.862 2.654-1.571v0l3.73-2.747c2.166-1.595 3.397-2.964 3.694-4.106 0.302-1.146-0.006-2.343-0.923-3.589v0c-0.52-0.706-1.314-1.202-2.382-1.487-1.059-0.284-1.8-0.271-2.222 0.04v0l-6.241 4.597c-1.364 1.004-2.34 1.868-2.929 2.59v0c-0.13 0.17-0.064 0.591 0.2 1.263 0.262 0.681 0.48 1.139 0.653 1.375v0c0.051 0.07-0.054 0.217-0.316 0.443-0.264 0.235-0.472 0.372-0.626 0.411v0c-1.615-2.44-2.482-3.74-2.6-3.9v0c-0.106-0.144-1.108-1.382-3.006-3.712v0c0.02-0.163 0.177-0.353 0.471-0.57 0.294-0.217 0.477-0.277 0.548-0.18v0c0.205 0.278 0.59 0.638 1.154 1.08 0.555 0.441 0.934 0.624 1.135 0.55v0c0.803-0.344 1.672-0.86 2.608-1.55v0l15.296-11.266c0.802-0.591 1.505-1.216 2.109-1.874v0c0.288-0.393 0.034-1.13-0.762-2.21v0l-0.236-0.321c-0.102-0.139-0.025-0.303 0.231-0.492v0c0.374-0.276 0.613-0.344 0.715-0.205v0c0.595 0.651 1.171 1.232 1.73 1.744 0.559 0.512 1.023 0.896 1.393 1.152 0.37 0.256 0.692 0.464 0.967 0.624 0.28 0.157 0.489 0.255 0.625 0.294v0l0.234 0.1 0.053 0.072c0.071 0.096 0.076 0.237 0.015 0.423-0.057 0.191-0.137 0.34-0.239 0.448v0c-0.938 0.295-2.054 0.919-3.348 1.872v0l-7.717 5.683c-0.096 0.071-0.127 0.13-0.091 0.178v0c0.016 0.021 0.065 0.038 0.149 0.051v0c0.94 0.1 2.019 0.435 3.239 1.005 1.22 0.57 2.151 1.291 2.793 2.162z" fill="#ffffff" data-fill-palette-color="primary"></path><path d="M68.199 235.815v0c1.305 1.131 1.89 2.195 1.754 3.193v0c-0.67 0.773-1.277 1.231-1.823 1.374-0.55 0.148-1.003 0.067-1.359-0.242v0c-0.397-0.344-0.597-0.847-0.603-1.51-0.005-0.663-0.294-1.243-0.866-1.739v0c-0.683-0.591-1.556-0.786-2.619-0.583-1.059 0.198-1.895 0.651-2.509 1.359v0l-4.299 4.962c-1.109 1.28-1.871 2.337-2.287 3.172v0c-0.09 0.195 0.073 0.595 0.489 1.201 0.416 0.615 0.734 1.019 0.955 1.21v0c0.065 0.057-0.005 0.224-0.211 0.502-0.205 0.288-0.379 0.467-0.52 0.539v0c-2.108-2.02-3.25-3.105-3.425-3.258v0c-0.136-0.117-1.386-1.104-3.75-2.959v0c-0.016-0.164 0.095-0.383 0.334-0.659 0.239-0.276 0.404-0.375 0.495-0.297v0c0.261 0.226 0.716 0.493 1.363 0.799 0.639 0.307 1.048 0.403 1.229 0.287v0c0.707-0.512 1.452-1.22 2.235-2.123v0l5.414-6.25c0.748-0.863 1.11-1.591 1.087-2.182v0c0.01-0.457-0.103-0.875-0.337-1.254-0.234-0.379-0.454-0.657-0.66-0.836-0.211-0.183-0.297-0.297-0.258-0.341v0c0.457-0.527 0.759-0.744 0.907-0.651v0c2.648 1.67 4.421 2.701 5.32 3.093v0c0.02 0.017 0.057 0.041 0.111 0.07 0.054 0.029 0.081 0.044 0.081 0.044v0c0.085 0.074 0.06 0.215-0.076 0.422-0.145 0.208-0.265 0.346-0.358 0.414v0l-1.639 1.48c0.914-0.254 1.944-0.337 3.09-0.249 1.141 0.083 2.052 0.42 2.734 1.012z" fill="#ffffff" data-fill-palette-color="primary"></path><path d="M82.804 239.5c-0.151-0.577-0.068-1.131 0.249-1.661 0.313-0.525 0.761-0.861 1.344-1.008 0.579-0.142 1.131-0.056 1.656 0.257 0.525 0.313 0.862 0.758 1.013 1.336 0.147 0.583 0.064 1.137-0.249 1.661-0.316 0.53-0.764 0.866-1.343 1.008-0.583 0.147-1.137 0.064-1.662-0.249-0.525-0.313-0.861-0.761-1.008-1.344zM81.008 249.472l-4.62 7.742c-0.868 1.454-1.433 2.629-1.696 3.523v0c-0.054 0.207 0.173 0.571 0.682 1.092 0.5 0.523 0.876 0.859 1.127 1.009v0c0.074 0.044 0.037 0.223-0.112 0.537-0.158 0.316-0.299 0.521-0.425 0.616v0c-2.429-1.619-3.732-2.482-3.909-2.588-0.177-0.105-1.58-0.858-4.21-2.256v0c-0.039-0.155 0.035-0.389 0.222-0.703 0.187-0.314 0.329-0.442 0.426-0.384v0c0.302 0.18 0.796 0.363 1.483 0.548 0.683 0.191 1.102 0.213 1.259 0.067v0c0.612-0.625 1.225-1.45 1.838-2.476v0l4.236-7.101c0.585-0.981 0.812-1.762 0.68-2.344v0c-0.065-0.449-0.246-0.839-0.543-1.171-0.297-0.332-0.565-0.569-0.805-0.712-0.234-0.14-0.335-0.235-0.304-0.286v0c0.357-0.599 0.617-0.865 0.778-0.8v0c2.899 1.181 4.823 1.884 5.772 2.11v0l0.097 0.011c0.051 0.031 0.088 0.053 0.111 0.067v0c0.103 0.061 0.102 0.204 0 0.429-0.101 0.234-0.194 0.391-0.281 0.47v0c-0.724 0.929-1.327 1.795-1.806 2.6z" fill="#ffffff" data-fill-palette-color="primary"></path><path d="M100.07 253.548v0c0.601 0.232 1.328 0.599 2.181 1.099 0.853 0.501 1.445 0.847 1.777 1.04v0c-0.211 1.357-0.583 2.808-1.117 4.353v0c-0.053 0.136-0.256 0.136-0.608 0v0c-0.378-0.146-0.545-0.321-0.502-0.526v0c0.158-0.815 0.05-1.686-0.325-2.614-0.377-0.922-0.974-1.541-1.792-1.856v0c-1.964-0.759-3.256-0.336-3.876 1.268v0c-0.158 0.409-0.241 0.79-0.249 1.142-0.011 0.359 0.084 0.741 0.283 1.146 0.206 0.407 0.365 0.704 0.479 0.889 0.113 0.186 0.389 0.542 0.826 1.068 0.442 0.534 0.715 0.867 0.82 1v0c0.084 0.096 0.332 0.403 0.746 0.918 0.404 0.519 0.692 0.89 0.862 1.113 0.164 0.22 0.395 0.573 0.691 1.058 0.294 0.491 0.487 0.904 0.579 1.238 0.085 0.332 0.142 0.728 0.171 1.188 0.026 0.466-0.039 0.903-0.198 1.312v0c-0.62 1.604-1.767 2.703-3.441 3.294-1.666 0.588-3.341 0.556-5.026-0.095v0c-0.57-0.22-1.08-0.457-1.531-0.709-0.451-0.253-0.973-0.586-1.567-1.001-0.588-0.412-1.048-0.715-1.38-0.907v0c0-0.498 0.106-1.241 0.316-2.228 0.208-0.98 0.418-1.743 0.629-2.288v0c0.279-0.077 0.474-0.094 0.585-0.051v0c0.409 0.158 0.595 0.322 0.558 0.493v0c-0.149 0.882 0.055 1.876 0.61 2.98 0.556 1.105 1.338 1.852 2.347 2.243v0c0.873 0.338 1.681 0.376 2.424 0.114 0.742-0.261 1.286-0.841 1.633-1.739v0c0.177-0.458 0.253-0.921 0.226-1.387-0.02-0.464-0.169-0.927-0.445-1.39-0.274-0.469-0.542-0.872-0.804-1.208-0.262-0.336-0.643-0.786-1.144-1.35-0.499-0.57-0.86-1.009-1.083-1.315v0c-1.651-2.048-2.15-3.914-1.499-5.6v0c0.568-1.468 1.622-2.438 3.165-2.91 1.54-0.466 3.1-0.393 4.679 0.218z" fill="#ffffff" data-fill-palette-color="primary"></path><path d="M113.96 271.878l1.983-10.939-2.5-0.453c-0.144-0.026-0.161-0.343-0.05-0.951v0c0.031-0.17 0.062-0.266 0.092-0.287v0c0.905-0.227 1.948-0.825 3.129-1.792v0c0.381-0.316 0.765-0.685 1.153-1.107 0.392-0.415 0.718-0.778 0.977-1.089 0.265-0.31 0.4-0.478 0.405-0.503v0c0.863 0.156 1.281 0.306 1.255 0.45v0l-0.773 4.264c0.745 0.135 1.878 0.347 3.398 0.636 1.52 0.289 2.323 0.441 2.408 0.456v0c0.229 0.041 0.319 0.193 0.272 0.455v0c-0.094 0.516-0.336 1.036-0.728 1.558v0l-5.725-1.037-1.911 10.547c-0.208 1.15-0.081 2.122 0.383 2.915 0.463 0.799 1.168 1.285 2.115 1.456v0c0.863 0.156 1.801 0.043 2.815-0.34v0c0.101-0.036 0.209 0.112 0.325 0.443 0.115 0.331 0.158 0.508 0.127 0.53v0c-0.515 0.386-1.258 0.72-2.227 1.003-0.969 0.283-1.928 0.339-2.876 0.168v0c-1.438-0.261-2.551-0.952-3.339-2.074-0.789-1.122-1.025-2.558-0.708-4.309z" fill="#ffffff" data-fill-palette-color="primary"></path><path d="M137.405 255.347c-0.417-0.426-0.621-0.948-0.609-1.565 0.011-0.611 0.233-1.125 0.666-1.543 0.433-0.411 0.954-0.61 1.565-0.599 0.611 0.011 1.125 0.23 1.542 0.656 0.417 0.433 0.62 0.954 0.61 1.565-0.011 0.618-0.233 1.132-0.666 1.542-0.433 0.417-0.954 0.62-1.565 0.61-0.611-0.011-1.125-0.233-1.543-0.666zM140.8 264.894l-0.163 9.014c-0.031 1.693 0.062 2.994 0.278 3.901v0c0.056 0.207 0.434 0.41 1.135 0.608 0.694 0.205 1.187 0.31 1.479 0.316v0c0.086 0.002 0.143 0.175 0.17 0.521 0.02 0.352-0.001 0.601-0.063 0.746v0c-2.912-0.199-4.472-0.3-4.678-0.304-0.206-0.004-1.798 0.041-4.775 0.133v0c-0.111-0.115-0.163-0.355-0.156-0.72 0.007-0.365 0.066-0.547 0.179-0.545v0c0.352 0.006 0.872-0.081 1.559-0.261 0.687-0.174 1.063-0.363 1.126-0.567v0c0.221-0.846 0.343-1.867 0.365-3.062v0l0.149-8.267c0.021-1.142-0.171-1.933-0.575-2.372v0c-0.279-0.357-0.63-0.606-1.053-0.746-0.423-0.14-0.773-0.213-1.052-0.219-0.272-0.005-0.408-0.037-0.407-0.097v0c0.013-0.697 0.105-1.058 0.279-1.081v0c3.103-0.416 5.122-0.761 6.057-1.036v0l0.09-0.038c0.06 0.001 0.103 0.002 0.13 0.002v0c0.12 0.002 0.19 0.126 0.212 0.372 0.029 0.253 0.025 0.436-0.01 0.548v0c-0.167 1.166-0.259 2.217-0.276 3.154z" fill="#ffffff" data-fill-palette-color="primary"></path><path d="M159.706 275.306c0.561 0.33 1.227 0.43 2 0.3 0.779-0.131 1.49-0.493 2.131-1.086 0.64-0.599 0.919-1.141 0.837-1.626v0l-0.749-4.45c-0.209 0.156-0.738 0.454-1.587 0.893-0.843 0.432-1.499 0.798-1.967 1.099-0.468 0.301-0.895 0.743-1.282 1.327-0.393 0.585-0.534 1.208-0.423 1.869v0c0.131 0.779 0.478 1.337 1.04 1.674zM161.063 258.581v0c1.585-0.267 2.786-0.075 3.602 0.576 0.822 0.643 1.376 1.812 1.662 3.508v0l1.678 9.971c0.103 0.609 0.345 1.087 0.726 1.434 0.383 0.353 0.849 0.483 1.399 0.391v0c0.4-0.067 0.87-0.355 1.411-0.864v0c0.111-0.019 0.186 0.086 0.225 0.316v0c0.063 0.373 0.042 0.69-0.063 0.95v0c-1.01 1.2-1.931 1.871-2.763 2.01v0c-0.661 0.111-1.342-0.054-2.043-0.494-0.695-0.449-1.208-0.955-1.538-1.519v0c-0.026 0.004-0.118 0.118-0.277 0.339-0.159 0.215-0.375 0.474-0.647 0.776-0.274 0.295-0.598 0.606-0.975 0.932-0.375 0.333-0.827 0.631-1.354 0.894-0.533 0.272-1.088 0.456-1.665 0.553v0c-1.323 0.223-2.476 0.053-3.46-0.508-0.984-0.562-1.594-1.547-1.83-2.955v0c-0.107-0.635-0.047-1.258 0.18-1.869 0.22-0.616 0.515-1.141 0.887-1.574 0.372-0.433 0.899-0.899 1.583-1.398 0.684-0.499 1.278-0.889 1.783-1.169 0.5-0.273 1.157-0.626 1.974-1.059 0.816-0.434 1.382-0.751 1.698-0.953v0c0.248-0.129 0.342-0.367 0.284-0.714v0l-0.544-3.232c-0.155-0.923-0.564-1.589-1.225-1.996-0.661-0.407-1.395-0.543-2.2-0.408v0c-0.865 0.145-1.535 0.561-2.013 1.248-0.477 0.686-0.636 1.504-0.476 2.454v0c0.17 1.009-0.335 1.612-1.513 1.811v0c-0.806 0.136-1.411-0.042-1.817-0.533v0c-0.208-1.238 0.492-2.622 2.099-4.152 1.608-1.53 3.345-2.452 5.212-2.766z" fill="#ffffff" data-fill-palette-color="primary"></path><path d="M187.726 249.916v0c1.879-0.79 3.479-0.671 4.799 0.36 1.326 1.028 2.622 3.047 3.888 6.059v0l1.545 3.674c0.657 1.561 1.267 2.713 1.831 3.455v0c0.129 0.169 0.554 0.203 1.275 0.102 0.717-0.093 1.211-0.196 1.48-0.31v0c0.08-0.033 0.202 0.103 0.366 0.408 0.161 0.314 0.242 0.55 0.244 0.708v0c-2.744 0.996-4.211 1.533-4.401 1.614v0c-0.049 0.021-1.432 0.681-4.148 1.982v0c-0.154-0.058-0.302-0.255-0.444-0.592-0.142-0.337-0.157-0.528-0.047-0.574v0c0.324-0.136 0.737-0.414 1.238-0.834 0.509-0.416 0.749-0.729 0.718-0.94v0c-0.14-0.863-0.441-1.846-0.905-2.948v0l-1.695-4.031c-1.053-2.504-2.093-4.077-3.119-4.719-1.035-0.645-2.278-0.663-3.729-0.053v0c-0.863 0.363-1.556 1.029-2.078 1.998-0.531 0.965-0.689 1.702-0.476 2.21v0l2.99 7.108c0.657 1.561 1.267 2.713 1.831 3.455v0c0.135 0.167 0.563 0.199 1.284 0.098 0.717-0.093 1.211-0.196 1.48-0.309v0c0.08-0.033 0.199 0.104 0.357 0.412 0.167 0.312 0.251 0.546 0.253 0.704v0c-2.744 0.996-4.211 1.533-4.401 1.613v0c-0.159 0.067-1.597 0.751-4.314 2.052v0c-0.154-0.058-0.302-0.255-0.443-0.592-0.142-0.337-0.157-0.528-0.047-0.574v0c0.324-0.136 0.765-0.426 1.321-0.869 0.558-0.437 0.825-0.761 0.8-0.975v0c-0.14-0.863-0.441-1.846-0.905-2.948v0l-3.205-7.621c-0.443-1.053-0.938-1.699-1.485-1.937v0c-0.406-0.211-0.827-0.297-1.264-0.258-0.443 0.042-0.794 0.118-1.051 0.226-0.257 0.108-0.397 0.135-0.42 0.08v0c-0.27-0.643-0.328-1.011-0.173-1.105v0c2.67-1.634 4.377-2.767 5.12-3.397v0c0.031-0.013 0.068-0.036 0.112-0.068 0.05-0.035 0.075-0.053 0.075-0.054v0c0.11-0.046 0.225 0.039 0.345 0.255 0.122 0.222 0.193 0.391 0.212 0.505v0c0.213 0.797 0.387 1.357 0.524 1.682v0c0.046 0.11 0.094 0.155 0.143 0.135v0c0.031-0.013 0.059-0.057 0.084-0.133v0c0.352-0.912 0.936-1.878 1.753-2.899 0.821-1.03 1.715-1.748 2.682-2.154z" fill="#ffffff" data-fill-palette-color="primary"></path><path d="M202.094 230.729v0c0.471-0.346 0.919-0.695 1.344-1.048 0.434-0.352 0.897-0.737 1.388-1.156 0.49-0.41 0.892-0.75 1.204-1.02v0c0.154 0.109 0.308 0.268 0.461 0.477v0c0.244 0.332 0.317 0.533 0.222 0.604v0c-0.236 0.173-0.599 0.564-1.092 1.173-0.488 0.614-0.696 1.022-0.622 1.223v0c0.391 0.982 1.088 2.155 2.09 3.52v0l11.246 15.311c2.174 2.96 3.238 6.142 3.191 9.547-0.055 3.403-1.365 6.045-3.929 7.928v0c-0.262 0.193-0.579 0.355-0.951 0.489-0.376 0.128-0.691 0.215-0.945 0.261v0l-0.355 0.039c-0.518-0.122-0.976-0.453-1.373-0.995v0c-0.381-0.519-0.477-1.104-0.287-1.754 0.194-0.645 0.585-1.184 1.174-1.616v0c0.423-0.311 1.084-0.409 1.983-0.295 0.903 0.119 1.508 0.067 1.813-0.157v0c0.327-0.24 0.539-0.651 0.638-1.235 0.103-0.578 0.084-1.306-0.058-2.182-0.136-0.881-0.526-1.979-1.17-3.294-0.643-1.324-1.507-2.725-2.592-4.202v0l-11.558-15.737c-1.069-1.456-1.921-2.442-2.554-2.957v0c-0.207-0.136-0.668-0.062-1.381 0.223-0.71 0.29-1.217 0.548-1.522 0.772v0c-0.096 0.071-0.259-0.049-0.487-0.36v0c-0.204-0.278-0.294-0.501-0.268-0.668v0c0.325-0.197 0.98-0.612 1.965-1.245 0.98-0.629 1.788-1.178 2.425-1.646z" fill="#ffffff" data-fill-palette-color="primary"></path><path d="M226.224 224.216v0c-1.059 1.129-1.406 2.533-1.042 4.213 0.359 1.685 1.285 3.227 2.777 4.626v0c1.744 1.636 3.663 2.584 5.758 2.845 2.095 0.262 3.71-0.213 4.845-1.424v0c1.059-1.129 1.398-2.554 1.019-4.275-0.389-1.721-1.329-3.282-2.821-4.681v0c-1.72-1.613-3.622-2.536-5.706-2.77-2.084-0.234-3.694 0.255-4.83 1.466zM225.308 222.702v0c1.799-1.918 4.027-2.911 6.685-2.977 2.662-0.062 4.962 0.816 6.9 2.633v0c1.957 1.835 3.009 4.073 3.154 6.714 0.15 2.636-0.683 4.923-2.5 6.86-1.817 1.938-4.062 2.933-6.734 2.986-2.672 0.053-4.986-0.838-6.943-2.674v0c-1.981-1.858-3.035-4.084-3.161-6.679-0.126-2.594 0.741-4.882 2.599-6.863z" fill="#ffffff" data-fill-palette-color="primary"></path><path d="M242.8 201.058v0c-0.826 1.478-0.81 3.009 0.048 4.592 0.852 1.579 2.157 2.86 3.914 3.841v0c1.861 1.04 3.75 1.445 5.666 1.214 1.92-0.236 3.37-1.232 4.352-2.989v0c0.483-0.864 0.663-1.649 0.54-2.356-0.125-0.701-0.519-1.237-1.179-1.607v0l-9.097-5.082c-0.533-0.298-1.198-0.293-1.994 0.016-0.79 0.312-1.54 1.102-2.25 2.371zM241.477 199.669v0c0.612-1.096 1.36-1.93 2.242-2.502v0c0.1-0.18-0.078-0.398-0.536-0.653v0l-4.122-2.304c-0.87-0.486-1.729-0.867-2.579-1.144v0c-0.477-0.099-1.043 0.437-1.697 1.608v0l-0.195 0.348c-0.084 0.151-0.265 0.148-0.544-0.007v0c-0.406-0.227-0.567-0.415-0.482-0.566v0c0.346-0.811 0.637-1.576 0.872-2.297 0.235-0.721 0.393-1.302 0.473-1.745 0.077-0.437 0.131-0.813 0.163-1.129 0.027-0.32 0.038-0.565 0.034-0.735v0l-0.026-0.219 0.044-0.079c0.055-0.099 0.181-0.161 0.379-0.187 0.194-0.021 0.363-0.01 0.507 0.032v0c0.653 0.738 1.681 1.498 3.084 2.282v0l17.193 9.606c1.223 0.683 2.235 1.146 3.036 1.388v0c0.209 0.048 0.429-0.012 0.66-0.179 0.228-0.177 0.423-0.376 0.584-0.598 0.159-0.231 0.304-0.462 0.434-0.693v0l0.224-0.32c0.071-0.059 0.246-0.011 0.524 0.144v0c0.383 0.214 0.532 0.396 0.448 0.547v0c-0.185 0.399-0.371 0.854-0.558 1.366-0.187 0.512-0.355 1.004-0.505 1.475-0.14 0.469-0.268 0.908-0.381 1.316-0.111 0.402-0.19 0.742-0.239 1.02v0l-0.12 0.378c-0.087 0.157-0.346 0.115-0.775-0.125v0l-0.46-0.258c-0.151-0.084-0.23-0.064-0.24 0.061v0c-0.006 1.876-0.363 3.449-1.072 4.718v0c-1.182 2.116-2.926 3.466-5.23 4.051-2.298 0.587-4.491 0.298-6.579-0.869v0c-2.47-1.38-4.154-3.466-5.051-6.257-0.898-2.791-0.734-5.283 0.49-7.474z" fill="#ffffff" data-fill-palette-color="primary"></path><path d="M245 179.184c-0.529 0.276-1.087 0.319-1.675 0.129-0.582-0.188-1.009-0.549-1.284-1.084-0.268-0.533-0.308-1.09-0.12-1.671 0.188-0.582 0.546-1.01 1.074-1.287 0.535-0.274 1.093-0.317 1.675-0.129 0.588 0.19 1.016 0.551 1.284 1.083 0.274 0.535 0.317 1.093 0.129 1.675-0.188 0.582-0.549 1.009-1.084 1.284zM255.12 178.7l8.581 2.768c1.612 0.52 2.883 0.808 3.814 0.864v0c0.214 0.006 0.518-0.297 0.911-0.91 0.397-0.605 0.641-1.046 0.73-1.324v0c0.026-0.082 0.209-0.086 0.548-0.012 0.343 0.083 0.575 0.175 0.696 0.277v0c-1.034 2.73-1.583 4.193-1.646 4.389-0.063 0.196-0.482 1.732-1.256 4.608v0c-0.142 0.073-0.387 0.053-0.734-0.059-0.348-0.112-0.504-0.222-0.47-0.329v0c0.108-0.335 0.175-0.858 0.202-1.568 0.033-0.708-0.039-1.122-0.217-1.242v0c-0.746-0.457-1.688-0.869-2.825-1.236v0l-7.869-2.538c-1.087-0.351-1.899-0.396-2.437-0.137v0c-0.423 0.164-0.762 0.427-1.019 0.791-0.257 0.364-0.428 0.678-0.514 0.944-0.084 0.259-0.154 0.38-0.211 0.362v0c-0.664-0.214-0.982-0.407-0.954-0.58v0c0.501-3.09 0.755-5.123 0.763-6.097v0l-0.01-0.098c0.018-0.057 0.032-0.098 0.039-0.123v0c0.037-0.114 0.176-0.146 0.419-0.096 0.25 0.046 0.424 0.102 0.521 0.168v0c1.068 0.498 2.047 0.89 2.938 1.178z" fill="#ffffff" data-fill-palette-color="primary"></path><path d="M3.253 144.011c0-6.141 4.978-11.12 11.12-11.119 6.141 0 11.12 4.978 11.119 11.119 0 6.141-4.978 11.12-11.119 11.12-6.141 0-11.12-4.978-11.12-11.12z" fill="#ffffff" data-fill-palette-color="primary"></path><path d="M254.3 144.011c0-6.141 4.978-11.12 11.12-11.119 6.141 0 11.12 4.978 11.12 11.119 0 6.141-4.978 11.12-11.12 11.12-6.141 0-11.12-4.978-11.12-11.12z" fill="#ffffff" data-fill-palette-color="primary"></path></g><g id="text-1"></g></svg></g></svg></g></svg></g></svg></g><defs></defs></svg><rect width="280" height="280" fill="none" stroke="none" visibility="hidden"></rect></g></svg></g></svg>